<svg width="15" height="27" viewBox="0 0 15 27" fill="none" xmlns="http://www.w3.org/2000/svg">
<path d="M0 3.28125C0 1.47 1.47 0 3.28125 0H11.7188C13.53 0 15 1.47 15 3.28125V22.9688C15 23.839 14.6543 24.6736 14.0389 25.2889C13.4236 25.9043 12.589 26.25 11.7188 26.25H3.28125C2.41101 26.25 1.57641 25.9043 0.961056 25.2889C0.345702 24.6736 0 23.839 0 22.9688V3.28125ZM5.625 20.625C5.37636 20.625 5.1379 20.7238 4.96209 20.8996C4.78627 21.0754 4.6875 21.3139 4.6875 21.5625C4.6875 21.8111 4.78627 22.0496 4.96209 22.2254C5.1379 22.4012 5.37636 22.5 5.625 22.5H9.375C9.62364 22.5 9.8621 22.4012 10.0379 22.2254C10.2137 22.0496 10.3125 21.8111 10.3125 21.5625C10.3125 21.3139 10.2137 21.0754 10.0379 20.8996C9.8621 20.7238 9.62364 20.625 9.375 20.625H5.625Z" fill="#BD7306"/>
</svg>
