<svg width="20" height="25" viewBox="0 0 20 25" fill="none" xmlns="http://www.w3.org/2000/svg">
<path fill-rule="evenodd" clip-rule="evenodd" d="M16.25 0C17.2446 0 18.1984 0.395088 18.9017 1.09835C19.6049 1.80161 20 2.75544 20 3.75V23.75C19.9999 23.9854 19.9332 24.216 19.8078 24.4153C19.6823 24.6145 19.5032 24.7742 19.2909 24.8761C19.0787 24.978 18.842 25.0179 18.6081 24.9911C18.3741 24.9644 18.1525 24.8721 17.9688 24.725L15.625 22.85L13.2812 24.725C13.0411 24.9174 12.7385 25.0144 12.4313 24.9976C12.1241 24.9807 11.8339 24.8512 11.6163 24.6338L10 23.0175L8.38375 24.6338C8.16625 24.8514 7.87614 24.9811 7.56893 24.9982C7.26172 25.0153 6.95901 24.9184 6.71875 24.7262L4.375 22.85L2.03125 24.725C1.84747 24.8721 1.62586 24.9644 1.39195 24.9911C1.15804 25.0179 0.921335 24.978 0.709086 24.8761C0.496838 24.7742 0.317676 24.6145 0.192228 24.4153C0.0667802 24.216 0.00014705 23.9854 0 23.75V3.75C0 2.75544 0.395088 1.80161 1.09835 1.09835C1.80161 0.395088 2.75544 0 3.75 0H16.25ZM10 12.5H6.25C5.91848 12.5 5.60054 12.6317 5.36612 12.8661C5.1317 13.1005 5 13.4185 5 13.75C5 14.0815 5.1317 14.3995 5.36612 14.6339C5.60054 14.8683 5.91848 15 6.25 15H10C10.3315 15 10.6495 14.8683 10.8839 14.6339C11.1183 14.3995 11.25 14.0815 11.25 13.75C11.25 13.4185 11.1183 13.1005 10.8839 12.8661C10.6495 12.6317 10.3315 12.5 10 12.5ZM13.75 7.5H6.25C5.9314 7.50035 5.62496 7.62235 5.39329 7.84106C5.16162 8.05977 5.02221 8.35869 5.00353 8.67674C4.98486 8.9948 5.08834 9.30797 5.29283 9.55229C5.49732 9.79661 5.78738 9.95362 6.10375 9.99125L6.25 10H13.75C14.0686 9.99965 14.375 9.87765 14.6067 9.65894C14.8384 9.44023 14.9778 9.14131 14.9965 8.82326C15.0151 8.5052 14.9117 8.19203 14.7072 7.94771C14.5027 7.70339 14.2126 7.54638 13.8962 7.50875L13.75 7.5Z" fill="#03A86C"/>
</svg>
