<svg width="40" height="40" viewBox="0 0 40 40" fill="none" xmlns="http://www.w3.org/2000/svg">
<path d="M0 0H40V40H0V0Z" fill="#212020"/>
<path d="M8 13C8 11.6739 8.39509 10.4021 9.09835 9.46447C9.80161 8.52678 10.7554 8 11.75 8H28.25C29.2446 8 30.1984 8.52678 30.9016 9.46447C31.6049 10.4021 32 11.6739 32 13V27C32 28.3261 31.6049 29.5979 30.9016 30.5355C30.1984 31.4732 29.2446 32 28.25 32H11.75C10.7554 32 9.80161 31.4732 9.09835 30.5355C8.39509 29.5979 8 28.3261 8 27V13ZM19.25 12H11.75C11.5511 12 11.3603 12.1054 11.2197 12.2929C11.079 12.4804 11 12.7348 11 13C11 13.2652 11.079 13.5196 11.2197 13.7071C11.3603 13.8946 11.5511 14 11.75 14H19.25C19.4489 14 19.6397 13.8946 19.7803 13.7071C19.921 13.5196 20 13.2652 20 13C20 12.7348 19.921 12.4804 19.7803 12.2929C19.6397 12.1054 19.4489 12 19.25 12ZM23.75 16H11.75C11.5511 16 11.3603 16.1054 11.2197 16.2929C11.079 16.4804 11 16.7348 11 17C11 17.2652 11.079 17.5196 11.2197 17.7071C11.3603 17.8946 11.5511 18 11.75 18H23.75C23.9489 18 24.1397 17.8946 24.2803 17.7071C24.421 17.5196 24.5 17.2652 24.5 17C24.5 16.7348 24.421 16.4804 24.2803 16.2929C24.1397 16.1054 23.9489 16 23.75 16ZM12.5 22C12.1022 22 11.7206 22.2107 11.4393 22.5858C11.158 22.9609 11 23.4696 11 24V26C11 26.5304 11.158 27.0391 11.4393 27.4142C11.7206 27.7893 12.1022 28 12.5 28H18.5C18.8978 28 19.2794 27.7893 19.5607 27.4142C19.842 27.0391 20 26.5304 20 26V24C20 23.4696 19.842 22.9609 19.5607 22.5858C19.2794 22.2107 18.8978 22 18.5 22H12.5Z" fill="#9747FF"/>
</svg>
