<svg width="150" height="150" viewBox="0 0 150 150" fill="none" xmlns="http://www.w3.org/2000/svg">
<path d="M115.625 56.25H134.375V131.25H115.625V56.25ZM90.625 81.25H109.375V131.25H90.625V81.25ZM65.625 68.75H84.375V131.25H65.625V68.75ZM40.625 100H59.375V131.25H40.625V100ZM15.625 87.5H34.375V131.25H15.625V87.5Z" fill="#00BCD4"/>
<path d="M25 59.375C30.1777 59.375 34.375 55.1777 34.375 50C34.375 44.8223 30.1777 40.625 25 40.625C19.8223 40.625 15.625 44.8223 15.625 50C15.625 55.1777 19.8223 59.375 25 59.375Z" fill="#3F51B5"/>
<path d="M50 65.625C55.1777 65.625 59.375 61.4277 59.375 56.25C59.375 51.0723 55.1777 46.875 50 46.875C44.8223 46.875 40.625 51.0723 40.625 56.25C40.625 61.4277 44.8223 65.625 50 65.625Z" fill="#3F51B5"/>
<path d="M75 43.75C80.1777 43.75 84.375 39.5527 84.375 34.375C84.375 29.1973 80.1777 25 75 25C69.8223 25 65.625 29.1973 65.625 34.375C65.625 39.5527 69.8223 43.75 75 43.75Z" fill="#3F51B5"/>
<path d="M100 50C105.178 50 109.375 45.8027 109.375 40.625C109.375 35.4473 105.178 31.25 100 31.25C94.8223 31.25 90.625 35.4473 90.625 40.625C90.625 45.8027 94.8223 50 100 50Z" fill="#3F51B5"/>
<path d="M125 37.5C130.178 37.5 134.375 33.3027 134.375 28.125C134.375 22.9473 130.178 18.75 125 18.75C119.822 18.75 115.625 22.9473 115.625 28.125C115.625 33.3027 119.822 37.5 125 37.5Z" fill="#3F51B5"/>
<path d="M122.187 22.5L99.375 34.0625L73.4375 27.5L48.4375 49.375L26.5625 44.0625L23.4375 55.9375L51.5625 63.125L76.5625 41.25L100.625 47.1875L127.812 33.75L122.187 22.5Z" fill="#3F51B5"/>
</svg>
