<svg width="90" height="20" viewBox="0 0 90 20" fill="none" xmlns="http://www.w3.org/2000/svg">
<rect width="90" height="20" rx="5" fill="#BD7306"/>
<path d="M10.6477 14.1278C9.99432 14.1278 9.43324 13.9844 8.96449 13.6974C8.49858 13.4105 8.1392 13.0142 7.88636 12.5085C7.63636 12 7.51136 11.4148 7.51136 10.7528C7.51136 10.0881 7.6392 9.50142 7.89489 8.9929C8.15057 8.48153 8.51136 8.08381 8.97727 7.79972C9.44602 7.51278 10 7.36932 10.6392 7.36932C11.1705 7.36932 11.6406 7.46733 12.0497 7.66335C12.4616 7.85653 12.7898 8.13068 13.0341 8.4858C13.2784 8.83807 13.4176 9.25 13.4517 9.72159H11.9773C11.9176 9.40625 11.7756 9.14347 11.5511 8.93324C11.3295 8.72017 11.0327 8.61364 10.6605 8.61364C10.3452 8.61364 10.0682 8.69886 9.82955 8.86932C9.59091 9.03693 9.40483 9.27841 9.27131 9.59375C9.14063 9.90909 9.07528 10.2869 9.07528 10.7273C9.07528 11.1733 9.14063 11.5568 9.27131 11.8778C9.40199 12.196 9.58523 12.4418 9.82102 12.6151C10.0597 12.7855 10.3395 12.8707 10.6605 12.8707C10.8878 12.8707 11.0909 12.8281 11.2699 12.7429C11.4517 12.6548 11.6037 12.5284 11.7259 12.3636C11.848 12.1989 11.9318 11.9986 11.9773 11.7628H13.4517C13.4148 12.2259 13.2784 12.6364 13.0426 12.9943C12.8068 13.3494 12.4858 13.6278 12.0795 13.8295C11.6733 14.0284 11.196 14.1278 10.6477 14.1278ZM17.5735 14.1278C16.9343 14.1278 16.3803 13.9872 15.9116 13.706C15.4428 13.4247 15.0792 13.0312 14.8207 12.5256C14.565 12.0199 14.4371 11.429 14.4371 10.7528C14.4371 10.0767 14.565 9.48437 14.8207 8.97585C15.0792 8.46733 15.4428 8.07244 15.9116 7.79119C16.3803 7.50994 16.9343 7.36932 17.5735 7.36932C18.2127 7.36932 18.7667 7.50994 19.2354 7.79119C19.7042 8.07244 20.0664 8.46733 20.3221 8.97585C20.5806 9.48437 20.7099 10.0767 20.7099 10.7528C20.7099 11.429 20.5806 12.0199 20.3221 12.5256C20.0664 13.0312 19.7042 13.4247 19.2354 13.706C18.7667 13.9872 18.2127 14.1278 17.5735 14.1278ZM17.582 12.892C17.9286 12.892 18.2184 12.7969 18.4513 12.6065C18.6843 12.4134 18.8576 12.1548 18.9712 11.831C19.0877 11.5071 19.146 11.1463 19.146 10.7486C19.146 10.348 19.0877 9.9858 18.9712 9.66193C18.8576 9.33523 18.6843 9.07528 18.4513 8.8821C18.2184 8.68892 17.9286 8.59233 17.582 8.59233C17.2269 8.59233 16.9315 8.68892 16.6957 8.8821C16.4627 9.07528 16.288 9.33523 16.1715 9.66193C16.0579 9.9858 16.0011 10.348 16.0011 10.7486C16.0011 11.1463 16.0579 11.5071 16.1715 11.831C16.288 12.1548 16.4627 12.4134 16.6957 12.6065C16.9315 12.7969 17.2269 12.892 17.582 12.892ZM22.0192 14V7.45455H23.4936V8.56676H23.5703C23.7067 8.19176 23.9325 7.89915 24.2479 7.68892C24.5632 7.47585 24.9396 7.36932 25.3771 7.36932C25.8203 7.36932 26.1939 7.47727 26.4979 7.69318C26.8047 7.90625 27.0206 8.19744 27.1456 8.56676H27.2138C27.3587 8.20312 27.603 7.91335 27.9467 7.69744C28.2933 7.47869 28.7038 7.36932 29.1783 7.36932C29.7805 7.36932 30.272 7.55966 30.6527 7.94034C31.0334 8.32102 31.2237 8.87642 31.2237 9.60653V14H29.6768V9.84517C29.6768 9.43892 29.5689 9.14205 29.353 8.95455C29.1371 8.7642 28.8729 8.66903 28.5604 8.66903C28.1882 8.66903 27.897 8.78551 27.6868 9.01847C27.4794 9.24858 27.3757 9.5483 27.3757 9.91761V14H25.8629V9.78125C25.8629 9.44318 25.7607 9.1733 25.5561 8.97159C25.3544 8.76989 25.0902 8.66903 24.7635 8.66903C24.5419 8.66903 24.3402 8.72585 24.1584 8.83949C23.9766 8.95028 23.8317 9.10795 23.7237 9.3125C23.6158 9.5142 23.5618 9.75 23.5618 10.0199V14H22.0192ZM32.7887 14V7.45455H34.3313V14H32.7887ZM33.5643 6.52557C33.32 6.52557 33.1097 6.4446 32.9336 6.28267C32.7575 6.1179 32.6694 5.92045 32.6694 5.69034C32.6694 5.45739 32.7575 5.25994 32.9336 5.09801C33.1097 4.93324 33.32 4.85085 33.5643 4.85085C33.8114 4.85085 34.0217 4.93324 34.195 5.09801C34.3711 5.25994 34.4592 5.45739 34.4592 5.69034C34.4592 5.92045 34.3711 6.1179 34.195 6.28267C34.0217 6.4446 33.8114 6.52557 33.5643 6.52557ZM37.4602 10.1648V14H35.9176V7.45455H37.392V8.56676H37.4688C37.6193 8.20028 37.8594 7.90909 38.1889 7.69318C38.5213 7.47727 38.9318 7.36932 39.4205 7.36932C39.8722 7.36932 40.2656 7.46591 40.6009 7.65909C40.9389 7.85227 41.2003 8.1321 41.3849 8.49858C41.5724 8.86506 41.6648 9.30966 41.6619 9.83239V14H40.1193V10.071C40.1193 9.63352 40.0057 9.29119 39.7784 9.04403C39.554 8.79687 39.2429 8.6733 38.8452 8.6733C38.5753 8.6733 38.3352 8.73295 38.125 8.85227C37.9176 8.96875 37.7543 9.13778 37.6349 9.35938C37.5185 9.58097 37.4602 9.84943 37.4602 10.1648ZM46.0767 16.5909C45.5227 16.5909 45.0469 16.5156 44.6491 16.3651C44.2514 16.2173 43.9318 16.0185 43.6903 15.7685C43.4489 15.5185 43.2812 15.2415 43.1875 14.9375L44.5767 14.6009C44.6392 14.7287 44.7301 14.8551 44.8494 14.9801C44.9688 15.108 45.1293 15.2131 45.331 15.2955C45.5355 15.3807 45.7926 15.4233 46.1023 15.4233C46.5398 15.4233 46.902 15.3168 47.1889 15.1037C47.4759 14.8935 47.6193 14.5469 47.6193 14.0639V12.8239H47.5426C47.4631 12.983 47.3466 13.1463 47.1932 13.3139C47.0426 13.4815 46.8423 13.6222 46.5923 13.7358C46.3452 13.8494 46.0341 13.9062 45.6591 13.9062C45.1562 13.9062 44.7003 13.7884 44.2912 13.5526C43.8849 13.3139 43.5611 12.9588 43.3196 12.4872C43.081 12.0128 42.9616 11.419 42.9616 10.706C42.9616 9.98722 43.081 9.38068 43.3196 8.88636C43.5611 8.3892 43.8864 8.01278 44.2955 7.7571C44.7045 7.49858 45.1605 7.36932 45.6634 7.36932C46.0469 7.36932 46.3622 7.43466 46.6094 7.56534C46.8594 7.69318 47.0582 7.84801 47.206 8.02983C47.3537 8.20881 47.4659 8.37784 47.5426 8.53693H47.6278V7.45455H49.1491V14.1065C49.1491 14.6662 49.0156 15.1293 48.7486 15.4957C48.4815 15.8622 48.1165 16.1364 47.6534 16.3182C47.1903 16.5 46.6648 16.5909 46.0767 16.5909ZM46.0895 12.696C46.4162 12.696 46.6946 12.6165 46.9247 12.4574C47.1548 12.2983 47.3295 12.0696 47.4489 11.7713C47.5682 11.473 47.6278 11.1151 47.6278 10.6974C47.6278 10.2855 47.5682 9.92472 47.4489 9.61506C47.3324 9.3054 47.1591 9.06534 46.929 8.89489C46.7017 8.72159 46.4219 8.63494 46.0895 8.63494C45.7457 8.63494 45.4588 8.72443 45.2287 8.90341C44.9986 9.08239 44.8253 9.32812 44.7088 9.64062C44.5923 9.95028 44.5341 10.3026 44.5341 10.6974C44.5341 11.098 44.5923 11.4489 44.7088 11.75C44.8281 12.0483 45.0028 12.2812 45.233 12.4489C45.4659 12.6136 45.7514 12.696 46.0895 12.696ZM58.88 9.18466L57.4737 9.33807C57.4339 9.19602 57.3643 9.0625 57.2649 8.9375C57.1683 8.8125 57.0376 8.71165 56.8729 8.63494C56.7081 8.55824 56.5064 8.51989 56.2678 8.51989C55.9467 8.51989 55.6768 8.58949 55.4581 8.72869C55.2422 8.8679 55.1357 9.0483 55.1385 9.26989C55.1357 9.46023 55.2053 9.61506 55.3473 9.73438C55.4922 9.85369 55.7308 9.9517 56.0632 10.0284L57.1797 10.267C57.799 10.4006 58.2592 10.6122 58.5604 10.902C58.8643 11.1918 59.0178 11.571 59.0206 12.0398C59.0178 12.4517 58.897 12.8153 58.6584 13.1307C58.4226 13.4432 58.0945 13.6875 57.674 13.8636C57.2536 14.0398 56.7706 14.1278 56.2251 14.1278C55.424 14.1278 54.7791 13.9602 54.2905 13.625C53.8018 13.2869 53.5107 12.8168 53.4169 12.2145L54.9212 12.0696C54.9893 12.3651 55.1342 12.5881 55.3558 12.7386C55.5774 12.8892 55.8658 12.9645 56.2209 12.9645C56.5874 12.9645 56.8814 12.8892 57.103 12.7386C57.3274 12.5881 57.4396 12.402 57.4396 12.1804C57.4396 11.9929 57.3672 11.8381 57.2223 11.7159C57.0803 11.5937 56.8587 11.5 56.5575 11.4347L55.4411 11.2003C54.8132 11.0696 54.3487 10.8494 54.0476 10.5398C53.7464 10.2273 53.5973 9.83239 53.6001 9.35511C53.5973 8.9517 53.7067 8.60227 53.9283 8.30682C54.1527 8.00852 54.4638 7.77841 54.8615 7.61648C55.2621 7.4517 55.7237 7.36932 56.2464 7.36932C57.0135 7.36932 57.6172 7.53267 58.0575 7.85938C58.5007 8.18608 58.7749 8.62784 58.88 9.18466ZM63.1477 14.1278C62.5085 14.1278 61.9545 13.9872 61.4858 13.706C61.017 13.4247 60.6534 13.0312 60.3949 12.5256C60.1392 12.0199 60.0114 11.429 60.0114 10.7528C60.0114 10.0767 60.1392 9.48437 60.3949 8.97585C60.6534 8.46733 61.017 8.07244 61.4858 7.79119C61.9545 7.50994 62.5085 7.36932 63.1477 7.36932C63.7869 7.36932 64.3409 7.50994 64.8097 7.79119C65.2784 8.07244 65.6406 8.46733 65.8963 8.97585C66.1548 9.48437 66.2841 10.0767 66.2841 10.7528C66.2841 11.429 66.1548 12.0199 65.8963 12.5256C65.6406 13.0312 65.2784 13.4247 64.8097 13.706C64.3409 13.9872 63.7869 14.1278 63.1477 14.1278ZM63.1562 12.892C63.5028 12.892 63.7926 12.7969 64.0256 12.6065C64.2585 12.4134 64.4318 12.1548 64.5455 11.831C64.6619 11.5071 64.7202 11.1463 64.7202 10.7486C64.7202 10.348 64.6619 9.9858 64.5455 9.66193C64.4318 9.33523 64.2585 9.07528 64.0256 8.8821C63.7926 8.68892 63.5028 8.59233 63.1562 8.59233C62.8011 8.59233 62.5057 8.68892 62.2699 8.8821C62.0369 9.07528 61.8622 9.33523 61.7457 9.66193C61.6321 9.9858 61.5753 10.348 61.5753 10.7486C61.5753 11.1463 61.6321 11.5071 61.7457 11.831C61.8622 12.1548 62.0369 12.4134 62.2699 12.6065C62.5057 12.7969 62.8011 12.892 63.1562 12.892ZM70.4485 14.1278C69.8093 14.1278 69.2553 13.9872 68.7866 13.706C68.3178 13.4247 67.9542 13.0312 67.6957 12.5256C67.44 12.0199 67.3121 11.429 67.3121 10.7528C67.3121 10.0767 67.44 9.48437 67.6957 8.97585C67.9542 8.46733 68.3178 8.07244 68.7866 7.79119C69.2553 7.50994 69.8093 7.36932 70.4485 7.36932C71.0877 7.36932 71.6417 7.50994 72.1104 7.79119C72.5792 8.07244 72.9414 8.46733 73.1971 8.97585C73.4556 9.48437 73.5849 10.0767 73.5849 10.7528C73.5849 11.429 73.4556 12.0199 73.1971 12.5256C72.9414 13.0312 72.5792 13.4247 72.1104 13.706C71.6417 13.9872 71.0877 14.1278 70.4485 14.1278ZM70.457 12.892C70.8036 12.892 71.0934 12.7969 71.3263 12.6065C71.5593 12.4134 71.7326 12.1548 71.8462 11.831C71.9627 11.5071 72.021 11.1463 72.021 10.7486C72.021 10.348 71.9627 9.9858 71.8462 9.66193C71.7326 9.33523 71.5593 9.07528 71.3263 8.8821C71.0934 8.68892 70.8036 8.59233 70.457 8.59233C70.1019 8.59233 69.8065 8.68892 69.5707 8.8821C69.3377 9.07528 69.163 9.33523 69.0465 9.66193C68.9329 9.9858 68.8761 10.348 68.8761 10.7486C68.8761 11.1463 68.9329 11.5071 69.0465 11.831C69.163 12.1548 69.3377 12.4134 69.5707 12.6065C69.8065 12.7969 70.1019 12.892 70.457 12.892ZM76.4368 10.1648V14H74.8942V7.45455H76.3686V8.56676H76.4453C76.5959 8.20028 76.8359 7.90909 77.1655 7.69318C77.4979 7.47727 77.9084 7.36932 78.397 7.36932C78.8487 7.36932 79.2422 7.46591 79.5774 7.65909C79.9155 7.85227 80.1768 8.1321 80.3615 8.49858C80.549 8.86506 80.6413 9.30966 80.6385 9.83239V14H79.0959V10.071C79.0959 9.63352 78.9822 9.29119 78.755 9.04403C78.5305 8.79687 78.2195 8.6733 77.8217 8.6733C77.5518 8.6733 77.3118 8.73295 77.1016 8.85227C76.8942 8.96875 76.7308 9.13778 76.6115 9.35938C76.495 9.58097 76.4368 9.84943 76.4368 10.1648Z" fill="#D9D9D9"/>
</svg>
