<svg width="100" height="22" viewBox="0 0 100 22" fill="none" xmlns="http://www.w3.org/2000/svg">
<rect width="100" height="21.4286" rx="10" fill="#C57D11"/>
<path d="M19.331 9.21733H17.7372C17.6918 8.95597 17.608 8.72443 17.4858 8.52273C17.3636 8.31818 17.2116 8.14489 17.0298 8.00284C16.848 7.8608 16.6406 7.75426 16.4077 7.68324C16.1776 7.60938 15.929 7.57244 15.6619 7.57244C15.1875 7.57244 14.767 7.69176 14.4006 7.9304C14.0341 8.16619 13.7472 8.51278 13.5398 8.97017C13.3324 9.42472 13.2287 9.98011 13.2287 10.6364C13.2287 11.304 13.3324 11.8665 13.5398 12.3239C13.75 12.7784 14.0369 13.1222 14.4006 13.3551C14.767 13.5852 15.1861 13.7003 15.6577 13.7003C15.919 13.7003 16.1634 13.6662 16.3906 13.598C16.6207 13.527 16.8267 13.4233 17.0085 13.2869C17.1932 13.1506 17.348 12.983 17.473 12.7841C17.6009 12.5852 17.6889 12.358 17.7372 12.1023L19.331 12.1108C19.2713 12.5256 19.142 12.9148 18.9432 13.2784C18.7472 13.642 18.4901 13.9631 18.1719 14.2415C17.8537 14.517 17.4815 14.733 17.0554 14.8892C16.6293 15.0426 16.1563 15.1193 15.6364 15.1193C14.8693 15.1193 14.1847 14.9418 13.5824 14.5866C12.9801 14.2315 12.5057 13.7188 12.1591 13.0483C11.8125 12.3778 11.6392 11.5739 11.6392 10.6364C11.6392 9.69602 11.8139 8.89205 12.1634 8.22443C12.5128 7.55398 12.9886 7.04119 13.5909 6.68608C14.1932 6.33097 14.875 6.15341 15.6364 6.15341C16.1222 6.15341 16.5739 6.22159 16.9915 6.35795C17.4091 6.49432 17.7813 6.6946 18.108 6.95881C18.4347 7.22017 18.7031 7.54119 18.9134 7.92188C19.1264 8.29972 19.2656 8.73153 19.331 9.21733ZM23.5657 15.1278C22.9265 15.1278 22.3725 14.9872 21.9038 14.706C21.435 14.4247 21.0714 14.0312 20.8129 13.5256C20.5572 13.0199 20.4293 12.429 20.4293 11.7528C20.4293 11.0767 20.5572 10.4844 20.8129 9.97585C21.0714 9.46733 21.435 9.07244 21.9038 8.79119C22.3725 8.50994 22.9265 8.36932 23.5657 8.36932C24.2049 8.36932 24.7589 8.50994 25.2276 8.79119C25.6964 9.07244 26.0586 9.46733 26.3143 9.97585C26.5728 10.4844 26.7021 11.0767 26.7021 11.7528C26.7021 12.429 26.5728 13.0199 26.3143 13.5256C26.0586 14.0312 25.6964 14.4247 25.2276 14.706C24.7589 14.9872 24.2049 15.1278 23.5657 15.1278ZM23.5742 13.892C23.9208 13.892 24.2106 13.7969 24.4435 13.6065C24.6765 13.4134 24.8498 13.1548 24.9634 12.831C25.0799 12.5071 25.1381 12.1463 25.1381 11.7486C25.1381 11.348 25.0799 10.9858 24.9634 10.6619C24.8498 10.3352 24.6765 10.0753 24.4435 9.8821C24.2106 9.68892 23.9208 9.59233 23.5742 9.59233C23.2191 9.59233 22.9237 9.68892 22.6879 9.8821C22.4549 10.0753 22.2802 10.3352 22.1637 10.6619C22.0501 10.9858 21.9933 11.348 21.9933 11.7486C21.9933 12.1463 22.0501 12.5071 22.1637 12.831C22.2802 13.1548 22.4549 13.4134 22.6879 13.6065C22.9237 13.7969 23.2191 13.892 23.5742 13.892ZM28.0114 15V8.45455H29.4858V9.56676H29.5625C29.6989 9.19176 29.9247 8.89915 30.2401 8.68892C30.5554 8.47585 30.9318 8.36932 31.3693 8.36932C31.8125 8.36932 32.1861 8.47727 32.4901 8.69318C32.7969 8.90625 33.0128 9.19744 33.1378 9.56676H33.206C33.3509 9.20312 33.5952 8.91335 33.9389 8.69744C34.2855 8.47869 34.696 8.36932 35.1705 8.36932C35.7727 8.36932 36.2642 8.55966 36.6449 8.94034C37.0256 9.32102 37.2159 9.87642 37.2159 10.6065V15H35.669V10.8452C35.669 10.4389 35.5611 10.142 35.3452 9.95455C35.1293 9.7642 34.8651 9.66903 34.5526 9.66903C34.1804 9.66903 33.8892 9.78551 33.679 10.0185C33.4716 10.2486 33.3679 10.5483 33.3679 10.9176V15H31.8551V10.7812C31.8551 10.4432 31.7528 10.1733 31.5483 9.97159C31.3466 9.76989 31.0824 9.66903 30.7557 9.66903C30.5341 9.66903 30.3324 9.72585 30.1506 9.83949C29.9688 9.95028 29.8239 10.108 29.7159 10.3125C29.608 10.5142 29.554 10.75 29.554 11.0199V15H28.0114ZM38.7809 15V8.45455H40.3235V15H38.7809ZM39.5565 7.52557C39.3121 7.52557 39.1019 7.4446 38.9258 7.28267C38.7496 7.1179 38.6616 6.92045 38.6616 6.69034C38.6616 6.45739 38.7496 6.25994 38.9258 6.09801C39.1019 5.93324 39.3121 5.85085 39.5565 5.85085C39.8036 5.85085 40.0138 5.93324 40.1871 6.09801C40.3633 6.25994 40.4513 6.45739 40.4513 6.69034C40.4513 6.92045 40.3633 7.1179 40.1871 7.28267C40.0138 7.4446 39.8036 7.52557 39.5565 7.52557ZM43.4524 11.1648V15H41.9098V8.45455H43.3842V9.56676H43.4609C43.6115 9.20028 43.8516 8.90909 44.1811 8.69318C44.5135 8.47727 44.924 8.36932 45.4126 8.36932C45.8643 8.36932 46.2578 8.46591 46.593 8.65909C46.9311 8.85227 47.1925 9.1321 47.3771 9.49858C47.5646 9.86506 47.657 10.3097 47.6541 10.8324V15H46.1115V11.071C46.1115 10.6335 45.9979 10.2912 45.7706 10.044C45.5462 9.79687 45.2351 9.6733 44.8374 9.6733C44.5675 9.6733 44.3274 9.73295 44.1172 9.85227C43.9098 9.96875 43.7464 10.1378 43.6271 10.3594C43.5107 10.581 43.4524 10.8494 43.4524 11.1648ZM52.0689 17.5909C51.5149 17.5909 51.0391 17.5156 50.6413 17.3651C50.2436 17.2173 49.924 17.0185 49.6825 16.7685C49.4411 16.5185 49.2734 16.2415 49.1797 15.9375L50.5689 15.6009C50.6314 15.7287 50.7223 15.8551 50.8416 15.9801C50.9609 16.108 51.1214 16.2131 51.3232 16.2955C51.5277 16.3807 51.7848 16.4233 52.0945 16.4233C52.532 16.4233 52.8942 16.3168 53.1811 16.1037C53.468 15.8935 53.6115 15.5469 53.6115 15.0639V13.8239H53.5348C53.4553 13.983 53.3388 14.1463 53.1854 14.3139C53.0348 14.4815 52.8345 14.6222 52.5845 14.7358C52.3374 14.8494 52.0263 14.9062 51.6513 14.9062C51.1484 14.9062 50.6925 14.7884 50.2834 14.5526C49.8771 14.3139 49.5533 13.9588 49.3118 13.4872C49.0732 13.0128 48.9538 12.419 48.9538 11.706C48.9538 10.9872 49.0732 10.3807 49.3118 9.88636C49.5533 9.3892 49.8786 9.01278 50.2876 8.7571C50.6967 8.49858 51.1527 8.36932 51.6555 8.36932C52.0391 8.36932 52.3544 8.43466 52.6016 8.56534C52.8516 8.69318 53.0504 8.84801 53.1982 9.02983C53.3459 9.20881 53.4581 9.37784 53.5348 9.53693H53.62V8.45455H55.1413V15.1065C55.1413 15.6662 55.0078 16.1293 54.7408 16.4957C54.4737 16.8622 54.1087 17.1364 53.6456 17.3182C53.1825 17.5 52.657 17.5909 52.0689 17.5909ZM52.0817 13.696C52.4084 13.696 52.6868 13.6165 52.9169 13.4574C53.147 13.2983 53.3217 13.0696 53.4411 12.7713C53.5604 12.473 53.62 12.1151 53.62 11.6974C53.62 11.2855 53.5604 10.9247 53.4411 10.6151C53.3246 10.3054 53.1513 10.0653 52.9212 9.89489C52.6939 9.72159 52.4141 9.63494 52.0817 9.63494C51.7379 9.63494 51.451 9.72443 51.2209 9.90341C50.9908 10.0824 50.8175 10.3281 50.701 10.6406C50.5845 10.9503 50.5263 11.3026 50.5263 11.6974C50.5263 12.098 50.5845 12.4489 50.701 12.75C50.8203 13.0483 50.995 13.2812 51.2251 13.4489C51.4581 13.6136 51.7436 13.696 52.0817 13.696ZM64.8722 10.1847L63.4659 10.3381C63.4261 10.196 63.3565 10.0625 63.2571 9.9375C63.1605 9.8125 63.0298 9.71165 62.8651 9.63494C62.7003 9.55824 62.4986 9.51989 62.2599 9.51989C61.9389 9.51989 61.669 9.58949 61.4503 9.72869C61.2344 9.8679 61.1278 10.0483 61.1307 10.2699C61.1278 10.4602 61.1974 10.6151 61.3395 10.7344C61.4844 10.8537 61.723 10.9517 62.0554 11.0284L63.1719 11.267C63.7912 11.4006 64.2514 11.6122 64.5526 11.902C64.8565 12.1918 65.0099 12.571 65.0128 13.0398C65.0099 13.4517 64.8892 13.8153 64.6506 14.1307C64.4148 14.4432 64.0866 14.6875 63.6662 14.8636C63.2457 15.0398 62.7628 15.1278 62.2173 15.1278C61.4162 15.1278 60.7713 14.9602 60.2827 14.625C59.794 14.2869 59.5028 13.8168 59.4091 13.2145L60.9134 13.0696C60.9815 13.3651 61.1264 13.5881 61.348 13.7386C61.5696 13.8892 61.858 13.9645 62.2131 13.9645C62.5795 13.9645 62.8736 13.8892 63.0952 13.7386C63.3196 13.5881 63.4318 13.402 63.4318 13.1804C63.4318 12.9929 63.3594 12.8381 63.2145 12.7159C63.0724 12.5937 62.8509 12.5 62.5497 12.4347L61.4332 12.2003C60.8054 12.0696 60.3409 11.8494 60.0398 11.5398C59.7386 11.2273 59.5895 10.8324 59.5923 10.3551C59.5895 9.9517 59.6989 9.60227 59.9205 9.30682C60.1449 9.00852 60.456 8.77841 60.8537 8.61648C61.2543 8.4517 61.7159 8.36932 62.2386 8.36932C63.0057 8.36932 63.6094 8.53267 64.0497 8.85938C64.4929 9.18608 64.767 9.62784 64.8722 10.1847ZM69.1399 15.1278C68.5007 15.1278 67.9467 14.9872 67.478 14.706C67.0092 14.4247 66.6456 14.0312 66.3871 13.5256C66.1314 13.0199 66.0036 12.429 66.0036 11.7528C66.0036 11.0767 66.1314 10.4844 66.3871 9.97585C66.6456 9.46733 67.0092 9.07244 67.478 8.79119C67.9467 8.50994 68.5007 8.36932 69.1399 8.36932C69.7791 8.36932 70.3331 8.50994 70.8018 8.79119C71.2706 9.07244 71.6328 9.46733 71.8885 9.97585C72.147 10.4844 72.2763 11.0767 72.2763 11.7528C72.2763 12.429 72.147 13.0199 71.8885 13.5256C71.6328 14.0312 71.2706 14.4247 70.8018 14.706C70.3331 14.9872 69.7791 15.1278 69.1399 15.1278ZM69.1484 13.892C69.495 13.892 69.7848 13.7969 70.0178 13.6065C70.2507 13.4134 70.424 13.1548 70.5376 12.831C70.6541 12.5071 70.7124 12.1463 70.7124 11.7486C70.7124 11.348 70.6541 10.9858 70.5376 10.6619C70.424 10.3352 70.2507 10.0753 70.0178 9.8821C69.7848 9.68892 69.495 9.59233 69.1484 9.59233C68.7933 9.59233 68.4979 9.68892 68.2621 9.8821C68.0291 10.0753 67.8544 10.3352 67.7379 10.6619C67.6243 10.9858 67.5675 11.348 67.5675 11.7486C67.5675 12.1463 67.6243 12.5071 67.7379 12.831C67.8544 13.1548 68.0291 13.4134 68.2621 13.6065C68.4979 13.7969 68.7933 13.892 69.1484 13.892ZM76.4407 15.1278C75.8015 15.1278 75.2475 14.9872 74.7788 14.706C74.31 14.4247 73.9464 14.0312 73.6879 13.5256C73.4322 13.0199 73.3043 12.429 73.3043 11.7528C73.3043 11.0767 73.4322 10.4844 73.6879 9.97585C73.9464 9.46733 74.31 9.07244 74.7788 8.79119C75.2475 8.50994 75.8015 8.36932 76.4407 8.36932C77.0799 8.36932 77.6339 8.50994 78.1026 8.79119C78.5714 9.07244 78.9336 9.46733 79.1893 9.97585C79.4478 10.4844 79.5771 11.0767 79.5771 11.7528C79.5771 12.429 79.4478 13.0199 79.1893 13.5256C78.9336 14.0312 78.5714 14.4247 78.1026 14.706C77.6339 14.9872 77.0799 15.1278 76.4407 15.1278ZM76.4492 13.892C76.7958 13.892 77.0856 13.7969 77.3185 13.6065C77.5515 13.4134 77.7248 13.1548 77.8384 12.831C77.9549 12.5071 78.0131 12.1463 78.0131 11.7486C78.0131 11.348 77.9549 10.9858 77.8384 10.6619C77.7248 10.3352 77.5515 10.0753 77.3185 9.8821C77.0856 9.68892 76.7958 9.59233 76.4492 9.59233C76.0941 9.59233 75.7987 9.68892 75.5629 9.8821C75.3299 10.0753 75.1552 10.3352 75.0387 10.6619C74.9251 10.9858 74.8683 11.348 74.8683 11.7486C74.8683 12.1463 74.9251 12.5071 75.0387 12.831C75.1552 13.1548 75.3299 13.4134 75.5629 13.6065C75.7987 13.7969 76.0941 13.892 76.4492 13.892ZM82.429 11.1648V15H80.8864V8.45455H82.3608V9.56676H82.4375C82.5881 9.20028 82.8281 8.90909 83.1577 8.69318C83.4901 8.47727 83.9006 8.36932 84.3892 8.36932C84.8409 8.36932 85.2344 8.46591 85.5696 8.65909C85.9077 8.85227 86.169 9.1321 86.3537 9.49858C86.5412 9.86506 86.6335 10.3097 86.6307 10.8324V15H85.0881V11.071C85.0881 10.6335 84.9744 10.2912 84.7472 10.044C84.5227 9.79687 84.2116 9.6733 83.8139 9.6733C83.544 9.6733 83.304 9.73295 83.0938 9.85227C82.8864 9.96875 82.723 10.1378 82.6037 10.3594C82.4872 10.581 82.429 10.8494 82.429 11.1648Z" fill="white"/>
</svg>
