<svg width="30" height="30" viewBox="0 0 30 30" fill="none" xmlns="http://www.w3.org/2000/svg">
<path d="M15 25C15.5833 25 16.0767 24.7983 16.48 24.395C16.8833 23.9917 17.0844 23.4989 17.0833 22.9167C17.0833 22.3333 16.8817 21.84 16.4783 21.4367C16.075 21.0333 15.5822 20.8322 15 20.8333C14.4167 20.8333 13.9233 21.035 13.52 21.4383C13.1167 21.8417 12.9156 22.3344 12.9167 22.9167C12.9167 23.5 13.1183 23.9933 13.5217 24.3967C13.925 24.8 14.4178 25.0011 15 25ZM13.5 18.5833H16.5833C16.5833 17.5833 16.6944 16.8472 16.9167 16.375C17.1389 15.9028 17.6111 15.3056 18.3333 14.5833C19.3056 13.6111 19.9928 12.7983 20.395 12.145C20.7972 11.4917 20.9989 10.7489 21 9.91667C21 8.44444 20.5 7.25722 19.5 6.355C18.5 5.45278 17.1528 5.00111 15.4583 5C13.9306 5 12.6322 5.375 11.5633 6.125C10.4944 6.875 9.75111 7.91667 9.33333 9.25L12.0833 10.3333C12.2778 9.58333 12.6667 8.97944 13.25 8.52167C13.8333 8.06389 14.5139 7.83444 15.2917 7.83333C16.0417 7.83333 16.6667 8.035 17.1667 8.43833C17.6667 8.84167 17.9167 9.37611 17.9167 10.0417C17.9167 10.5139 17.7639 11.0139 17.4583 11.5417C17.1528 12.0694 16.6389 12.6528 15.9167 13.2917C15 14.0972 14.3678 14.8683 14.02 15.605C13.6722 16.3417 13.4989 17.3344 13.5 18.5833ZM0 30V0H30V30H0Z" fill="#3F51B5"/>
</svg>
