<svg width="30" height="30" viewBox="0 0 30 30" fill="none" xmlns="http://www.w3.org/2000/svg">
<path d="M14.9801 0C13.0941 0 11.416 1.26316 10.7922 3.15789H1.61442V6.31579H4.51033L0.129336 17.3684C-0.568652 20.5263 1.61442 22.1053 5.32712 22.1053C9.03982 22.1053 11.3566 20.5263 10.5249 17.3684L6.14392 6.31579H10.7774C11.2674 7.6579 12.2327 8.68421 13.4951 9.20526V26.8421H0.129336V30H29.831V26.8421H16.4652V9.18947C17.7276 8.68421 18.6929 7.6579 19.1681 6.31579H23.8164L19.4354 17.3684C18.7374 20.5263 20.9205 22.1053 24.6332 22.1053C28.3459 22.1053 30.6626 20.5263 29.831 17.3684L25.45 6.31579H28.3459V3.15789H19.1829C18.5443 1.26316 16.8662 0 14.9801 0ZM14.9801 3.15789C15.374 3.15789 15.7518 3.32425 16.0303 3.62036C16.3088 3.91647 16.4652 4.31808 16.4652 4.73684C16.4652 5.15561 16.3088 5.55722 16.0303 5.85333C15.7518 6.14944 15.374 6.31579 14.9801 6.31579C14.5863 6.31579 14.2085 6.14944 13.93 5.85333C13.6515 5.55722 13.4951 5.15561 13.4951 4.73684C13.4951 4.31808 13.6515 3.91647 13.93 3.62036C14.2085 3.32425 14.5863 3.15789 14.9801 3.15789ZM5.32712 11.4474L7.55474 17.3684H3.0995L5.32712 11.4474ZM24.6332 11.4474L26.8608 17.3684H22.4056L24.6332 11.4474Z" fill="#FFC107"/>
</svg>
