<svg width="48" height="48" viewBox="0 0 48 48" fill="none" xmlns="http://www.w3.org/2000/svg">
<path d="M17.9955 41C17.1709 41 16.4647 40.72 15.877 40.16C15.2893 39.6 14.996 38.9276 14.997 38.1429C14.997 37.3571 15.2908 36.6843 15.8785 36.1243C16.4662 35.5643 17.1719 35.2848 17.9955 35.2857C18.8201 35.2857 19.5262 35.5657 20.1139 36.1257C20.7016 36.6857 20.995 37.3581 20.994 38.1429C20.994 38.9286 20.7001 39.6014 20.1124 40.1614C19.5247 40.7214 18.8191 41.0009 17.9955 41ZM32.9879 41C32.1633 41 31.4572 40.72 30.8695 40.16C30.2818 39.6 29.9884 38.9276 29.9894 38.1429C29.9894 37.3571 30.2833 36.6843 30.871 36.1243C31.4587 35.5643 32.1643 35.2848 32.9879 35.2857C33.8125 35.2857 34.5187 35.5657 35.1064 36.1257C35.6941 36.6857 35.9874 37.3581 35.9864 38.1429C35.9864 38.9286 35.6926 39.6014 35.1049 40.1614C34.5172 40.7214 33.8115 41.0009 32.9879 41ZM11.9985 15.2857H10.4993C10.0745 15.2857 9.71814 15.1486 9.43029 14.8743C9.14243 14.6 8.99901 14.261 9.00001 13.8571C9.00001 13.4524 9.14393 13.1129 9.43179 12.8386C9.71964 12.5643 10.0755 12.4276 10.4993 12.4286H12.973C13.2479 12.4286 13.5102 12.5 13.7601 12.6429C14.01 12.7857 14.1974 12.9881 14.3223 13.25L20.2818 25.2857H30.7765L36.2113 16C36.3362 15.7619 36.5112 15.5833 36.736 15.4643C36.9609 15.3452 37.2108 15.2857 37.4857 15.2857C38.0604 15.2857 38.4917 15.5181 38.7795 15.9829C39.0674 16.4476 39.0734 16.9176 38.7975 17.3929L33.4377 26.6429C33.1628 27.119 32.794 27.4881 32.3313 27.75C31.8685 28.0119 31.3628 28.1429 30.814 28.1429H19.6446L17.9955 31H34.4872C34.912 31 35.2683 31.1371 35.5561 31.4114C35.844 31.6857 35.9874 32.0248 35.9864 32.4286C35.9864 32.8333 35.8425 33.1729 35.5546 33.4471C35.2668 33.7214 34.911 33.8581 34.4872 33.8571H17.9955C16.871 33.8571 16.015 33.3929 15.4273 32.4643C14.8396 31.5357 14.8211 30.5952 15.3718 29.6429L17.3958 26.1429L11.9985 15.2857ZM25.4917 23.1429C25.0669 23.1429 24.7106 23.0057 24.4227 22.7314C24.1349 22.4571 23.9915 22.1181 23.9925 21.7143C23.9925 21.3095 24.1364 20.97 24.4242 20.6957C24.7121 20.4214 25.0679 20.2848 25.4917 20.2857C25.9165 20.2857 26.2728 20.4229 26.5607 20.6971C26.8485 20.9714 26.992 21.3105 26.9909 21.7143C26.9909 22.119 26.847 22.4586 26.5592 22.7329C26.2713 23.0071 25.9155 23.1438 25.4917 23.1429ZM25.4917 18.1429C25.0669 18.1429 24.7106 18.0057 24.4227 17.7314C24.1349 17.4571 23.9915 17.1181 23.9925 16.7143V12.4286C23.9925 12.0238 24.1364 11.6843 24.4242 11.41C24.7121 11.1357 25.0679 10.9991 25.4917 11C25.9165 11 26.2728 11.1371 26.5607 11.4114C26.8485 11.6857 26.992 12.0248 26.9909 12.4286V16.7143C26.9909 17.1191 26.847 17.4586 26.5592 17.7329C26.2713 18.0071 25.9155 18.1438 25.4917 18.1429Z" fill="#9747FF"/>
</svg>
