<svg width="20" height="25" viewBox="0 0 20 25" fill="none" xmlns="http://www.w3.org/2000/svg">
<path fill-rule="evenodd" clip-rule="evenodd" d="M15.3846 5.83333V10H17.6923C18.3043 10 18.8913 10.2634 19.3241 10.7322C19.7569 11.2011 20 11.837 20 12.5V22.5C20 23.163 19.7569 23.7989 19.3241 24.2678C18.8913 24.7366 18.3043 25 17.6923 25H2.30769C1.69565 25 1.10868 24.7366 0.675907 24.2678C0.243131 23.7989 0 23.163 0 22.5V12.5C0 11.837 0.243131 11.2011 0.675907 10.7322C1.10868 10.2634 1.69565 10 2.30769 10H4.61538V5.83333C4.61538 4.28624 5.18269 2.80251 6.1925 1.70854C7.20231 0.614581 8.57191 0 10 0C11.4281 0 12.7977 0.614581 13.8075 1.70854C14.8173 2.80251 15.3846 4.28624 15.3846 5.83333ZM6.15385 5.83333C6.15385 4.72826 6.55906 3.66846 7.28036 2.88705C8.00165 2.10565 8.97994 1.66667 10 1.66667C11.0201 1.66667 11.9983 2.10565 12.7196 2.88705C13.4409 3.66846 13.8462 4.72826 13.8462 5.83333V10H6.15385V5.83333Z" fill="#03A900"/>
</svg>
