<svg width="30" height="30" viewBox="0 0 30 30" fill="none" xmlns="http://www.w3.org/2000/svg">
<circle cx="15" cy="15" r="15" fill="#D9D9D9"/>
<path d="M15 18C15.5304 18 16.0391 17.7893 16.4142 17.4142C16.7893 17.0391 17 16.5304 17 16C17 15.4696 16.7893 14.9609 16.4142 14.5858C16.0391 14.2107 15.5304 14 15 14C14.4696 14 13.9609 14.2107 13.5858 14.5858C13.2107 14.9609 13 15.4696 13 16C13 16.5304 13.2107 17.0391 13.5858 17.4142C13.9609 17.7893 14.4696 18 15 18ZM9 18C9.53043 18 10.0391 17.7893 10.4142 17.4142C10.7893 17.0391 11 16.5304 11 16C11 15.4696 10.7893 14.9609 10.4142 14.5858C10.0391 14.2107 9.53043 14 9 14C8.46957 14 7.96086 14.2107 7.58579 14.5858C7.21071 14.9609 7 15.4696 7 16C7 16.5304 7.21071 17.0391 7.58579 17.4142C7.96086 17.7893 8.46957 18 9 18ZM21 18C21.5304 18 22.0391 17.7893 22.4142 17.4142C22.7893 17.0391 23 16.5304 23 16C23 15.4696 22.7893 14.9609 22.4142 14.5858C22.0391 14.2107 21.5304 14 21 14C20.4696 14 19.9609 14.2107 19.5858 14.5858C19.2107 14.9609 19 15.4696 19 16C19 16.5304 19.2107 17.0391 19.5858 17.4142C19.9609 17.7893 20.4696 18 21 18Z" fill="#8E8B8B"/>
</svg>
