<svg width="30" height="30" viewBox="0 0 30 30" fill="none" xmlns="http://www.w3.org/2000/svg">
<path d="M3.33333 4.16667C2.44928 4.16667 1.60143 4.51786 0.976311 5.14298C0.35119 5.7681 0 6.61595 0 7.50001L0 22.5C0 23.3841 0.35119 24.2319 0.976311 24.857C1.60143 25.4821 2.44928 25.8333 3.33333 25.8333H10V4.16667H3.33333Z" fill="#009A49"/>
<path d="M10 4.16667H20V25.8333H10V4.16667Z" fill="#EEEEEE"/>
<path d="M26.6667 4.16667H20V25.8333H26.6667C27.5507 25.8333 28.3986 25.4821 29.0237 24.857C29.6488 24.2319 30 23.3841 30 22.5V7.50001C30 6.61595 29.6488 5.7681 29.0237 5.14298C28.3986 4.51786 27.5507 4.16667 26.6667 4.16667Z" fill="#009A49"/>
</svg>
