<svg width="50" height="50" viewBox="0 0 50 50" fill="none" xmlns="http://www.w3.org/2000/svg">
<circle cx="25" cy="25" r="25" fill="#03A86C"/>
<path d="M30.3864 24.1818C30.3864 25.4242 30.1591 26.4924 29.7045 27.3864C29.25 28.2765 28.6269 28.9621 27.8352 29.4432C27.0473 29.9205 26.1515 30.1591 25.1477 30.1591C24.1402 30.1591 23.2405 29.9205 22.4489 29.4432C21.661 28.9621 21.0398 28.2746 20.5852 27.3807C20.1307 26.4867 19.9034 25.4205 19.9034 24.1818C19.9034 22.9394 20.1307 21.8731 20.5852 20.983C21.0398 20.089 21.661 19.4034 22.4489 18.9261C23.2405 18.4451 24.1402 18.2045 25.1477 18.2045C26.1515 18.2045 27.0473 18.4451 27.8352 18.9261C28.6269 19.4034 29.25 20.089 29.7045 20.983C30.1591 21.8731 30.3864 22.9394 30.3864 24.1818ZM28.6477 24.1818C28.6477 23.2348 28.4943 22.4375 28.1875 21.7898C27.8845 21.1383 27.4678 20.6458 26.9375 20.3125C26.411 19.9754 25.8144 19.8068 25.1477 19.8068C24.4773 19.8068 23.8788 19.9754 23.3523 20.3125C22.8258 20.6458 22.4091 21.1383 22.1023 21.7898C21.7992 22.4375 21.6477 23.2348 21.6477 24.1818C21.6477 25.1288 21.7992 25.928 22.1023 26.5795C22.4091 27.2273 22.8258 27.7197 23.3523 28.0568C23.8788 28.3902 24.4773 28.5568 25.1477 28.5568C25.8144 28.5568 26.411 28.3902 26.9375 28.0568C27.4678 27.7197 27.8845 27.2273 28.1875 26.5795C28.4943 25.928 28.6477 25.1288 28.6477 24.1818Z" fill="white"/>
</svg>
