<svg width="60" height="60" viewBox="0 0 60 60" fill="none" xmlns="http://www.w3.org/2000/svg">
<path d="M24.878 7.31707C25.4602 7.31707 26.0186 7.54834 26.4302 7.96001C26.8419 8.37167 27.0732 8.93001 27.0732 9.5122V32.9268H50.4878C51.0183 32.9269 51.5308 33.119 51.9305 33.4676C52.3303 33.8163 52.5903 34.2979 52.6624 34.8234L52.6829 35.122C52.6829 49.6683 40.8878 60 26.3415 60C19.3553 60 12.6552 57.2247 7.71524 52.2848C2.77525 47.3448 0 40.6447 0 33.6585C0 19.1122 10.3317 7.31707 24.878 7.31707ZM33.6585 0C40.6447 0 47.3448 2.77525 52.2848 7.71524C57.2247 12.6552 60 19.3553 60 26.3415C60 26.9236 59.7687 27.482 59.3571 27.8936C58.9454 28.3053 58.3871 28.5366 57.8049 28.5366H33.6585C33.0764 28.5366 32.518 28.3053 32.1064 27.8936C31.6947 27.482 31.4634 26.9236 31.4634 26.3415V2.19512C31.4634 1.61294 31.6947 1.0546 32.1064 0.642936C32.518 0.231271 33.0764 0 33.6585 0Z" fill="#BD7306"/>
</svg>
