<svg width="50" height="50" viewBox="0 0 50 50" fill="none" xmlns="http://www.w3.org/2000/svg">
<circle cx="25" cy="25" r="25" fill="#3C0E6A"/>
<path d="M21.2784 30V18.3636H25.4261C26.3277 18.3636 27.0758 18.5189 27.6705 18.8295C28.2689 19.1402 28.7159 19.5701 29.0114 20.1193C29.3068 20.6648 29.4545 21.2955 29.4545 22.0114C29.4545 22.7235 29.3049 23.3504 29.0057 23.892C28.7102 24.4299 28.2633 24.8485 27.6648 25.1477C27.0701 25.447 26.322 25.5966 25.4205 25.5966H22.2784V24.0852H25.2614C25.8295 24.0852 26.2917 24.0038 26.6477 23.8409C27.0076 23.678 27.2708 23.4413 27.4375 23.1307C27.6042 22.8201 27.6875 22.447 27.6875 22.0114C27.6875 21.572 27.6023 21.1913 27.4318 20.8693C27.2652 20.5473 27.0019 20.3011 26.642 20.1307C26.286 19.9564 25.8182 19.8693 25.2386 19.8693H23.0341V30H21.2784ZM27.0227 24.75L29.8977 30H27.8977L25.0795 24.75H27.0227Z" fill="white"/>
</svg>
