<svg width="30" height="30" viewBox="0 0 30 30" fill="none" xmlns="http://www.w3.org/2000/svg">
<path d="M8.33337 2.5V5H5.83337V6.66667H8.33337V9.16667H10V6.66667H12.5V5H10V2.5H8.33337Z" fill="#9747FF"/>
<path fill-rule="evenodd" clip-rule="evenodd" d="M5.83333 0C5.17029 0 4.53441 0.263392 4.06557 0.732233C3.59672 1.20107 3.33333 1.83696 3.33333 2.5V3.33333H0V19.1667H18.3333V3.33333H15V2.5C15 1.83696 14.7366 1.20107 14.2678 0.732233C13.7989 0.263392 13.163 0 12.5 0H5.83333ZM12.5 11.6667C13.163 11.6667 13.7989 11.4033 14.2678 10.9344C14.7366 10.4656 15 9.82971 15 9.16667V8.33333H16.6667V17.5H12.5V12.5H5.83333V17.5H1.66667V8.33333H3.33333V9.16667C3.33333 9.82971 3.59672 10.4656 4.06557 10.9344C4.53441 11.4033 5.17029 11.6667 5.83333 11.6667H12.5ZM5 2.5C5 2.27899 5.0878 2.06702 5.24408 1.91074C5.40036 1.75446 5.61232 1.66667 5.83333 1.66667H12.5C12.721 1.66667 12.933 1.75446 13.0893 1.91074C13.2455 2.06702 13.3333 2.27899 13.3333 2.5V9.16667C13.3333 9.38768 13.2455 9.59964 13.0893 9.75592C12.933 9.9122 12.721 10 12.5 10H5.83333C5.61232 10 5.40036 9.9122 5.24408 9.75592C5.0878 9.59964 5 9.38768 5 9.16667V2.5ZM1.66667 5H3.33333V6.66667H1.66667V5ZM16.6667 6.66667H15V5H16.6667V6.66667ZM10.8333 14.1667V17.5H7.5V14.1667H10.8333ZM20 18.3333C20 17.4493 20.3512 16.6014 20.9763 15.9763C21.6014 15.3512 22.4493 15 23.3333 15C24.2174 15 25.0652 15.3512 25.6904 15.9763C26.3155 16.6014 26.6667 17.4493 26.6667 18.3333C26.6667 19.2174 26.3155 20.0652 25.6904 20.6904C25.0652 21.3155 24.2174 21.6667 23.3333 21.6667C22.4493 21.6667 21.6014 21.3155 20.9763 20.6904C20.3512 20.0652 20 19.2174 20 18.3333ZM23.3333 16.6667C22.8913 16.6667 22.4674 16.8423 22.1548 17.1548C21.8423 17.4674 21.6667 17.8913 21.6667 18.3333C21.6667 18.7754 21.8423 19.1993 22.1548 19.5118C22.4674 19.8244 22.8913 20 23.3333 20C23.7754 20 24.1993 19.8244 24.5118 19.5118C24.8244 19.1993 25 18.7754 25 18.3333C25 17.8913 24.8244 17.4674 24.5118 17.1548C24.1993 16.8423 23.7754 16.6667 23.3333 16.6667ZM23.3333 22.5C21.1083 22.5 16.6667 23.7183 16.6667 26.1367V28.3333H9.16667C8.55917 28.3333 8.165 28.1142 7.91417 27.8317C7.65 27.5342 7.5 27.1142 7.5 26.6667V23.6783L10.2442 26.4225L11.4225 25.2442L6.66667 20.4883L1.91083 25.2442L3.08917 26.4225L5.83333 23.6783V26.6667C5.83333 27.4692 6.1 28.2992 6.66917 28.9392C7.25167 29.5942 8.1075 30 9.16667 30H30V26.1367C30 23.7183 25.5583 22.5 23.3333 22.5ZM18.5783 25.7225C18.3425 25.96 18.3333 26.09 18.3333 26.1367V28.3333H28.3333V26.1367C28.3333 26.09 28.325 25.96 28.0883 25.7225C27.8383 25.47 27.4175 25.1942 26.8333 24.9392C25.6567 24.4233 24.2167 24.1667 23.3333 24.1667C22.45 24.1667 21.01 24.425 19.8333 24.9383C19.2492 25.1933 18.8292 25.47 18.5783 25.7225Z" fill="#9747FF"/>
</svg>
