<svg width="50" height="50" viewBox="0 0 50 50" fill="none" xmlns="http://www.w3.org/2000/svg">
<circle cx="25" cy="25" r="25" fill="#3C0E6A"/>
<path d="M26.625 21.4205C26.5644 20.8826 26.3144 20.4659 25.875 20.1705C25.4356 19.8712 24.8826 19.7216 24.2159 19.7216C23.7386 19.7216 23.3258 19.7973 22.9773 19.9489C22.6288 20.0966 22.358 20.3011 22.1648 20.5625C21.9754 20.8201 21.8807 21.1136 21.8807 21.4432C21.8807 21.7197 21.9451 21.9583 22.0739 22.1591C22.2064 22.3598 22.3788 22.5284 22.5909 22.6648C22.8068 22.7973 23.0379 22.9091 23.2841 23C23.5303 23.0871 23.767 23.1591 23.9943 23.2159L25.1307 23.5114C25.5019 23.6023 25.8826 23.7254 26.2727 23.8807C26.6629 24.036 27.0246 24.2405 27.358 24.4943C27.6913 24.7481 27.9602 25.0625 28.1648 25.4375C28.3731 25.8125 28.4773 26.2614 28.4773 26.7841C28.4773 27.4432 28.3068 28.0284 27.9659 28.5398C27.6288 29.0511 27.1383 29.4545 26.4943 29.75C25.8542 30.0455 25.0795 30.1932 24.1705 30.1932C23.2992 30.1932 22.5455 30.0549 21.9091 29.7784C21.2727 29.5019 20.7746 29.1098 20.4148 28.6023C20.0549 28.0909 19.8561 27.4848 19.8182 26.7841H21.5795C21.6136 27.2045 21.75 27.5549 21.9886 27.8352C22.2311 28.1117 22.5398 28.3182 22.9148 28.4545C23.2936 28.5871 23.7083 28.6534 24.1591 28.6534C24.6553 28.6534 25.0966 28.5758 25.483 28.4205C25.8731 28.2614 26.1799 28.0417 26.4034 27.7614C26.6269 27.4773 26.7386 27.1458 26.7386 26.767C26.7386 26.4223 26.6402 26.1402 26.4432 25.9205C26.25 25.7008 25.9867 25.5189 25.6534 25.375C25.3239 25.2311 24.9508 25.1042 24.5341 24.9943L23.1591 24.6193C22.2273 24.3655 21.4886 23.9924 20.9432 23.5C20.4015 23.0076 20.1307 22.3561 20.1307 21.5455C20.1307 20.875 20.3125 20.2898 20.6761 19.7898C21.0398 19.2898 21.5322 18.9015 22.1534 18.625C22.7746 18.3447 23.4754 18.2045 24.2557 18.2045C25.0436 18.2045 25.7386 18.3428 26.3409 18.6193C26.947 18.8958 27.4242 19.2765 27.7727 19.7614C28.1212 20.2424 28.303 20.7955 28.3182 21.4205H26.625Z" fill="white"/>
</svg>
