<svg width="248" height="342" viewBox="0 0 248 342" fill="none" xmlns="http://www.w3.org/2000/svg">
<rect x="6.59998" y="0.5" width="234.6" height="341" rx="4.5" fill="#3C0E6A" stroke="#A6A6A6"/>
<path d="M161.406 288.672V289.438C160.927 289.521 160.562 289.625 160.312 289.75C160.062 289.875 159.875 290.052 159.75 290.281C159.625 290.51 159.562 290.818 159.562 291.203C159.562 291.557 159.604 291.943 159.688 292.359C159.771 292.766 159.891 293.224 160.047 293.734L163.703 306.484L168.188 293.641C168.25 293.443 168.312 293.234 168.375 293.016C168.438 292.797 168.49 292.583 168.531 292.375C168.583 292.167 168.615 291.984 168.625 291.828C168.646 291.672 168.656 291.526 168.656 291.391C168.656 290.766 168.51 290.312 168.219 290.031C167.938 289.74 167.453 289.542 166.766 289.438V288.672H173.328V289.438C172.901 289.542 172.557 289.693 172.297 289.891C172.036 290.089 171.776 290.406 171.516 290.844C171.266 291.281 170.958 291.979 170.594 292.938L164.109 310.25H162.062L156.797 292.828C156.516 291.88 156.271 291.208 156.062 290.812C155.854 290.406 155.625 290.104 155.375 289.906C155.125 289.698 154.781 289.542 154.344 289.438V288.672H161.406ZM179.969 306.094C179.969 306.792 179.99 307.302 180.031 307.625C180.083 307.948 180.161 308.203 180.266 308.391C180.38 308.578 180.542 308.734 180.75 308.859C180.969 308.984 181.318 309.109 181.797 309.234V310H175.203V309.234C175.849 309.068 176.281 308.885 176.5 308.688C176.719 308.479 176.859 308.188 176.922 307.812C176.995 307.438 177.031 306.865 177.031 306.094V292.578C177.031 291.859 177.005 291.339 176.953 291.016C176.901 290.682 176.812 290.427 176.688 290.25C176.573 290.062 176.417 289.917 176.219 289.812C176.021 289.698 175.682 289.573 175.203 289.438V288.672H181.797V289.438C181.339 289.552 181.005 289.667 180.797 289.781C180.599 289.896 180.438 290.042 180.312 290.219C180.198 290.385 180.109 290.641 180.047 290.984C179.995 291.328 179.969 291.859 179.969 292.578V306.094ZM187 305.141C187.208 306.057 187.49 306.781 187.844 307.312C188.198 307.844 188.656 308.24 189.219 308.5C189.781 308.75 190.505 308.875 191.391 308.875C192.609 308.875 193.542 308.557 194.188 307.922C194.844 307.286 195.172 306.359 195.172 305.141C195.172 304.359 195.036 303.703 194.766 303.172C194.495 302.641 194.052 302.141 193.438 301.672C192.823 301.203 191.885 300.656 190.625 300.031C189.406 299.427 188.443 298.839 187.734 298.266C187.026 297.682 186.495 297.052 186.141 296.375C185.797 295.698 185.625 294.958 185.625 294.156C185.625 292.99 185.896 291.979 186.438 291.125C186.99 290.26 187.792 289.594 188.844 289.125C189.906 288.656 191.12 288.422 192.484 288.422C193.276 288.422 194.047 288.464 194.797 288.547C195.557 288.63 196.505 288.818 197.641 289.109V293.328H196.094C195.854 292.411 195.552 291.698 195.188 291.188C194.823 290.677 194.396 290.323 193.906 290.125C193.417 289.917 192.781 289.812 192 289.812C191.323 289.812 190.714 289.938 190.172 290.188C189.641 290.438 189.219 290.818 188.906 291.328C188.594 291.828 188.438 292.427 188.438 293.125C188.438 293.865 188.568 294.49 188.828 295C189.099 295.51 189.516 295.984 190.078 296.422C190.641 296.859 191.474 297.349 192.578 297.891C193.911 298.557 194.943 299.177 195.672 299.75C196.411 300.323 196.984 300.979 197.391 301.719C197.807 302.448 198.016 303.302 198.016 304.281C198.016 305.375 197.844 306.302 197.5 307.062C197.156 307.812 196.677 308.427 196.062 308.906C195.458 309.375 194.729 309.719 193.875 309.938C193.031 310.146 192.104 310.25 191.094 310.25C189.458 310.25 187.573 309.974 185.438 309.422V305.141H187ZM211.719 310V309.234C212.24 309.13 212.625 309.016 212.875 308.891C213.135 308.766 213.328 308.594 213.453 308.375C213.578 308.146 213.641 307.844 213.641 307.469C213.641 307.115 213.599 306.734 213.516 306.328C213.432 305.911 213.312 305.448 213.156 304.938L212.578 302.922H205.297L204.766 304.453C204.495 305.224 204.318 305.807 204.234 306.203C204.151 306.599 204.109 306.958 204.109 307.281C204.109 307.906 204.266 308.365 204.578 308.656C204.901 308.948 205.391 309.141 206.047 309.234V310H199.375V309.234C199.958 309.141 200.464 308.802 200.891 308.219C201.328 307.635 201.75 306.802 202.156 305.719L208.672 288.422H211.141L216.453 305.844C216.703 306.656 216.922 307.276 217.109 307.703C217.307 308.13 217.542 308.464 217.812 308.703C218.083 308.943 218.453 309.12 218.922 309.234V310H211.719ZM205.719 301.562H212.25L209.281 291.484L205.719 301.562Z" fill="white"/>
<rect width="59.9333" height="3" rx="1.5" transform="matrix(1 0 0 -1 66.0333 342)" fill="#FFC107"/>
<path d="M180.733 340.5C180.733 339.672 181.405 339 182.233 339H240.667C240.667 340.657 239.324 342 237.667 342H182.233C181.405 342 180.733 341.328 180.733 340.5Z" fill="#009A49"/>
<path d="M8.16663 339H66.4333C67.3538 339 68.1 339.746 68.1 340.667C68.1 341.403 67.503 342 66.7666 342H11.1666C9.50977 342 8.16663 340.657 8.16663 339Z" fill="#F0693F"/>
<rect x="123.9" y="339" width="59.9333" height="3" rx="1.5" fill="#2992DF"/>
<g opacity="0.4" filter="url(#filter0_d_65_9)">
<mask id="path-7-outside-1_65_9" maskUnits="userSpaceOnUse" x="32" y="115" width="186" height="49" fill="black">
<rect fill="white" x="32" y="115" width="186" height="49"/>
<path d="M53.4872 128.131C53.3509 126.756 52.7656 125.687 51.7315 124.926C50.6974 124.165 49.294 123.784 47.5213 123.784C46.3168 123.784 45.2997 123.955 44.4702 124.295C43.6406 124.625 43.0043 125.085 42.5611 125.676C42.1293 126.267 41.9134 126.938 41.9134 127.688C41.8906 128.312 42.0213 128.858 42.3054 129.324C42.6009 129.79 43.0043 130.193 43.5156 130.534C44.027 130.864 44.6179 131.153 45.2884 131.403C45.9588 131.642 46.6747 131.847 47.4361 132.017L50.5724 132.767C52.0952 133.108 53.4929 133.562 54.7656 134.131C56.0384 134.699 57.1406 135.398 58.0724 136.227C59.0043 137.057 59.7259 138.034 60.2372 139.159C60.7599 140.284 61.027 141.574 61.0384 143.028C61.027 145.165 60.4815 147.017 59.402 148.585C58.3338 150.142 56.7884 151.352 54.7656 152.216C52.7543 153.068 50.3281 153.494 47.4872 153.494C44.669 153.494 42.2145 153.062 40.1236 152.199C38.044 151.335 36.419 150.057 35.2486 148.364C34.0895 146.659 33.4815 144.551 33.4247 142.04H40.5668C40.6463 143.21 40.9815 144.187 41.5724 144.972C42.1747 145.744 42.9759 146.33 43.9759 146.727C44.9872 147.114 46.1293 147.307 47.402 147.307C48.652 147.307 49.7372 147.125 50.6577 146.761C51.5895 146.398 52.3111 145.892 52.8224 145.244C53.3338 144.597 53.5895 143.852 53.5895 143.011C53.5895 142.227 53.3565 141.568 52.8906 141.034C52.4361 140.5 51.7656 140.045 50.8793 139.67C50.0043 139.295 48.9304 138.955 47.6577 138.648L43.8565 137.693C40.9134 136.977 38.5895 135.858 36.8849 134.335C35.1804 132.812 34.3338 130.761 34.3452 128.182C34.3338 126.068 34.8963 124.222 36.0327 122.642C37.1804 121.062 38.7543 119.83 40.7543 118.943C42.7543 118.057 45.027 117.614 47.5724 117.614C50.1634 117.614 52.4247 118.057 54.3565 118.943C56.2997 119.83 57.8111 121.062 58.8906 122.642C59.9702 124.222 60.527 126.051 60.5611 128.131H53.4872ZM73.3324 153.494C71.6619 153.494 70.1733 153.205 68.8665 152.625C67.5597 152.034 66.5256 151.165 65.7642 150.017C65.0142 148.858 64.6392 147.415 64.6392 145.688C64.6392 144.233 64.9063 143.011 65.4403 142.023C65.9744 141.034 66.7017 140.239 67.6222 139.636C68.5426 139.034 69.5881 138.58 70.7585 138.273C71.9403 137.966 73.179 137.75 74.4744 137.625C75.9972 137.466 77.2244 137.318 78.1562 137.182C79.0881 137.034 79.7642 136.818 80.1847 136.534C80.6051 136.25 80.8153 135.83 80.8153 135.273V135.17C80.8153 134.091 80.4744 133.256 79.7926 132.665C79.1222 132.074 78.1676 131.778 76.929 131.778C75.6222 131.778 74.5824 132.068 73.8097 132.648C73.0369 133.216 72.5256 133.932 72.2756 134.795L65.5597 134.25C65.9006 132.659 66.571 131.284 67.571 130.125C68.571 128.955 69.8608 128.057 71.4403 127.432C73.0313 126.795 74.8722 126.477 76.9631 126.477C78.4176 126.477 79.8097 126.648 81.1392 126.989C82.4801 127.33 83.6676 127.858 84.7017 128.574C85.7472 129.29 86.571 130.21 87.1733 131.335C87.7756 132.449 88.0767 133.784 88.0767 135.341V153H81.1903V149.369H80.9858C80.5653 150.188 80.0028 150.909 79.2983 151.534C78.5938 152.148 77.7472 152.631 76.7585 152.983C75.7699 153.324 74.6278 153.494 73.3324 153.494ZM75.4119 148.483C76.4801 148.483 77.4233 148.273 78.2415 147.852C79.0597 147.42 79.7017 146.841 80.1676 146.114C80.6335 145.386 80.8665 144.562 80.8665 143.642V140.864C80.6392 141.011 80.3267 141.148 79.929 141.273C79.5426 141.386 79.1051 141.494 78.6165 141.597C78.1278 141.687 77.6392 141.773 77.1506 141.852C76.6619 141.92 76.2188 141.983 75.821 142.04C74.9688 142.165 74.2244 142.364 73.5881 142.636C72.9517 142.909 72.4574 143.278 72.1051 143.744C71.7528 144.199 71.5767 144.767 71.5767 145.449C71.5767 146.438 71.9347 147.193 72.6506 147.716C73.3778 148.227 74.2983 148.483 75.4119 148.483ZM117.182 126.818L108.028 153H99.8466L90.6932 126.818H98.3636L103.801 145.551H104.074L109.494 126.818H117.182ZM120.898 153V126.818H128.159V153H120.898ZM124.545 123.443C123.466 123.443 122.54 123.085 121.767 122.369C121.006 121.642 120.625 120.773 120.625 119.761C120.625 118.761 121.006 117.903 121.767 117.188C122.54 116.46 123.466 116.097 124.545 116.097C125.625 116.097 126.545 116.46 127.307 117.188C128.08 117.903 128.466 118.761 128.466 119.761C128.466 120.773 128.08 121.642 127.307 122.369C126.545 123.085 125.625 123.443 124.545 123.443ZM134.112 153V118.091H147.885C150.533 118.091 152.788 118.597 154.652 119.608C156.516 120.608 157.936 122 158.913 123.784C159.902 125.557 160.396 127.602 160.396 129.92C160.396 132.239 159.896 134.284 158.896 136.057C157.896 137.83 156.447 139.21 154.55 140.199C152.663 141.187 150.379 141.682 147.697 141.682H138.919V135.767H146.504C147.925 135.767 149.095 135.523 150.016 135.034C150.947 134.534 151.641 133.847 152.095 132.972C152.561 132.085 152.794 131.068 152.794 129.92C152.794 128.761 152.561 127.75 152.095 126.886C151.641 126.011 150.947 125.335 150.016 124.858C149.084 124.369 147.902 124.125 146.47 124.125H141.493V153H134.112ZM171.817 153.494C170.146 153.494 168.658 153.205 167.351 152.625C166.044 152.034 165.01 151.165 164.249 150.017C163.499 148.858 163.124 147.415 163.124 145.688C163.124 144.233 163.391 143.011 163.925 142.023C164.459 141.034 165.186 140.239 166.107 139.636C167.027 139.034 168.072 138.58 169.243 138.273C170.425 137.966 171.663 137.75 172.959 137.625C174.482 137.466 175.709 137.318 176.641 137.182C177.572 137.034 178.249 136.818 178.669 136.534C179.089 136.25 179.3 135.83 179.3 135.273V135.17C179.3 134.091 178.959 133.256 178.277 132.665C177.607 132.074 176.652 131.778 175.413 131.778C174.107 131.778 173.067 132.068 172.294 132.648C171.521 133.216 171.01 133.932 170.76 134.795L164.044 134.25C164.385 132.659 165.055 131.284 166.055 130.125C167.055 128.955 168.345 128.057 169.925 127.432C171.516 126.795 173.357 126.477 175.447 126.477C176.902 126.477 178.294 126.648 179.624 126.989C180.964 127.33 182.152 127.858 183.186 128.574C184.232 129.29 185.055 130.21 185.658 131.335C186.26 132.449 186.561 133.784 186.561 135.341V153H179.675V149.369H179.47C179.05 150.188 178.487 150.909 177.783 151.534C177.078 152.148 176.232 152.631 175.243 152.983C174.254 153.324 173.112 153.494 171.817 153.494ZM173.896 148.483C174.964 148.483 175.908 148.273 176.726 147.852C177.544 147.42 178.186 146.841 178.652 146.114C179.118 145.386 179.351 144.562 179.351 143.642V140.864C179.124 141.011 178.811 141.148 178.413 141.273C178.027 141.386 177.589 141.494 177.101 141.597C176.612 141.687 176.124 141.773 175.635 141.852C175.146 141.92 174.703 141.983 174.305 142.04C173.453 142.165 172.709 142.364 172.072 142.636C171.436 142.909 170.942 143.278 170.589 143.744C170.237 144.199 170.061 144.767 170.061 145.449C170.061 146.438 170.419 147.193 171.135 147.716C171.862 148.227 172.783 148.483 173.896 148.483ZM195.74 162.818C194.82 162.818 193.956 162.744 193.149 162.597C192.354 162.46 191.695 162.284 191.172 162.068L192.808 156.648C193.661 156.909 194.428 157.051 195.109 157.074C195.803 157.097 196.399 156.938 196.899 156.597C197.411 156.256 197.825 155.676 198.143 154.858L198.57 153.75L189.178 126.818H196.814L202.234 146.045H202.507L207.979 126.818H215.666L205.49 155.83C205.001 157.239 204.337 158.466 203.496 159.511C202.666 160.568 201.615 161.381 200.342 161.949C199.07 162.528 197.536 162.818 195.74 162.818Z"/>
</mask>
<path d="M53.4872 128.131C53.3509 126.756 52.7656 125.687 51.7315 124.926C50.6974 124.165 49.294 123.784 47.5213 123.784C46.3168 123.784 45.2997 123.955 44.4702 124.295C43.6406 124.625 43.0043 125.085 42.5611 125.676C42.1293 126.267 41.9134 126.938 41.9134 127.688C41.8906 128.312 42.0213 128.858 42.3054 129.324C42.6009 129.79 43.0043 130.193 43.5156 130.534C44.027 130.864 44.6179 131.153 45.2884 131.403C45.9588 131.642 46.6747 131.847 47.4361 132.017L50.5724 132.767C52.0952 133.108 53.4929 133.562 54.7656 134.131C56.0384 134.699 57.1406 135.398 58.0724 136.227C59.0043 137.057 59.7259 138.034 60.2372 139.159C60.7599 140.284 61.027 141.574 61.0384 143.028C61.027 145.165 60.4815 147.017 59.402 148.585C58.3338 150.142 56.7884 151.352 54.7656 152.216C52.7543 153.068 50.3281 153.494 47.4872 153.494C44.669 153.494 42.2145 153.062 40.1236 152.199C38.044 151.335 36.419 150.057 35.2486 148.364C34.0895 146.659 33.4815 144.551 33.4247 142.04H40.5668C40.6463 143.21 40.9815 144.187 41.5724 144.972C42.1747 145.744 42.9759 146.33 43.9759 146.727C44.9872 147.114 46.1293 147.307 47.402 147.307C48.652 147.307 49.7372 147.125 50.6577 146.761C51.5895 146.398 52.3111 145.892 52.8224 145.244C53.3338 144.597 53.5895 143.852 53.5895 143.011C53.5895 142.227 53.3565 141.568 52.8906 141.034C52.4361 140.5 51.7656 140.045 50.8793 139.67C50.0043 139.295 48.9304 138.955 47.6577 138.648L43.8565 137.693C40.9134 136.977 38.5895 135.858 36.8849 134.335C35.1804 132.812 34.3338 130.761 34.3452 128.182C34.3338 126.068 34.8963 124.222 36.0327 122.642C37.1804 121.062 38.7543 119.83 40.7543 118.943C42.7543 118.057 45.027 117.614 47.5724 117.614C50.1634 117.614 52.4247 118.057 54.3565 118.943C56.2997 119.83 57.8111 121.062 58.8906 122.642C59.9702 124.222 60.527 126.051 60.5611 128.131H53.4872ZM73.3324 153.494C71.6619 153.494 70.1733 153.205 68.8665 152.625C67.5597 152.034 66.5256 151.165 65.7642 150.017C65.0142 148.858 64.6392 147.415 64.6392 145.688C64.6392 144.233 64.9063 143.011 65.4403 142.023C65.9744 141.034 66.7017 140.239 67.6222 139.636C68.5426 139.034 69.5881 138.58 70.7585 138.273C71.9403 137.966 73.179 137.75 74.4744 137.625C75.9972 137.466 77.2244 137.318 78.1562 137.182C79.0881 137.034 79.7642 136.818 80.1847 136.534C80.6051 136.25 80.8153 135.83 80.8153 135.273V135.17C80.8153 134.091 80.4744 133.256 79.7926 132.665C79.1222 132.074 78.1676 131.778 76.929 131.778C75.6222 131.778 74.5824 132.068 73.8097 132.648C73.0369 133.216 72.5256 133.932 72.2756 134.795L65.5597 134.25C65.9006 132.659 66.571 131.284 67.571 130.125C68.571 128.955 69.8608 128.057 71.4403 127.432C73.0313 126.795 74.8722 126.477 76.9631 126.477C78.4176 126.477 79.8097 126.648 81.1392 126.989C82.4801 127.33 83.6676 127.858 84.7017 128.574C85.7472 129.29 86.571 130.21 87.1733 131.335C87.7756 132.449 88.0767 133.784 88.0767 135.341V153H81.1903V149.369H80.9858C80.5653 150.188 80.0028 150.909 79.2983 151.534C78.5938 152.148 77.7472 152.631 76.7585 152.983C75.7699 153.324 74.6278 153.494 73.3324 153.494ZM75.4119 148.483C76.4801 148.483 77.4233 148.273 78.2415 147.852C79.0597 147.42 79.7017 146.841 80.1676 146.114C80.6335 145.386 80.8665 144.562 80.8665 143.642V140.864C80.6392 141.011 80.3267 141.148 79.929 141.273C79.5426 141.386 79.1051 141.494 78.6165 141.597C78.1278 141.687 77.6392 141.773 77.1506 141.852C76.6619 141.92 76.2188 141.983 75.821 142.04C74.9688 142.165 74.2244 142.364 73.5881 142.636C72.9517 142.909 72.4574 143.278 72.1051 143.744C71.7528 144.199 71.5767 144.767 71.5767 145.449C71.5767 146.438 71.9347 147.193 72.6506 147.716C73.3778 148.227 74.2983 148.483 75.4119 148.483ZM117.182 126.818L108.028 153H99.8466L90.6932 126.818H98.3636L103.801 145.551H104.074L109.494 126.818H117.182ZM120.898 153V126.818H128.159V153H120.898ZM124.545 123.443C123.466 123.443 122.54 123.085 121.767 122.369C121.006 121.642 120.625 120.773 120.625 119.761C120.625 118.761 121.006 117.903 121.767 117.188C122.54 116.46 123.466 116.097 124.545 116.097C125.625 116.097 126.545 116.46 127.307 117.188C128.08 117.903 128.466 118.761 128.466 119.761C128.466 120.773 128.08 121.642 127.307 122.369C126.545 123.085 125.625 123.443 124.545 123.443ZM134.112 153V118.091H147.885C150.533 118.091 152.788 118.597 154.652 119.608C156.516 120.608 157.936 122 158.913 123.784C159.902 125.557 160.396 127.602 160.396 129.92C160.396 132.239 159.896 134.284 158.896 136.057C157.896 137.83 156.447 139.21 154.55 140.199C152.663 141.187 150.379 141.682 147.697 141.682H138.919V135.767H146.504C147.925 135.767 149.095 135.523 150.016 135.034C150.947 134.534 151.641 133.847 152.095 132.972C152.561 132.085 152.794 131.068 152.794 129.92C152.794 128.761 152.561 127.75 152.095 126.886C151.641 126.011 150.947 125.335 150.016 124.858C149.084 124.369 147.902 124.125 146.47 124.125H141.493V153H134.112ZM171.817 153.494C170.146 153.494 168.658 153.205 167.351 152.625C166.044 152.034 165.01 151.165 164.249 150.017C163.499 148.858 163.124 147.415 163.124 145.688C163.124 144.233 163.391 143.011 163.925 142.023C164.459 141.034 165.186 140.239 166.107 139.636C167.027 139.034 168.072 138.58 169.243 138.273C170.425 137.966 171.663 137.75 172.959 137.625C174.482 137.466 175.709 137.318 176.641 137.182C177.572 137.034 178.249 136.818 178.669 136.534C179.089 136.25 179.3 135.83 179.3 135.273V135.17C179.3 134.091 178.959 133.256 178.277 132.665C177.607 132.074 176.652 131.778 175.413 131.778C174.107 131.778 173.067 132.068 172.294 132.648C171.521 133.216 171.01 133.932 170.76 134.795L164.044 134.25C164.385 132.659 165.055 131.284 166.055 130.125C167.055 128.955 168.345 128.057 169.925 127.432C171.516 126.795 173.357 126.477 175.447 126.477C176.902 126.477 178.294 126.648 179.624 126.989C180.964 127.33 182.152 127.858 183.186 128.574C184.232 129.29 185.055 130.21 185.658 131.335C186.26 132.449 186.561 133.784 186.561 135.341V153H179.675V149.369H179.47C179.05 150.188 178.487 150.909 177.783 151.534C177.078 152.148 176.232 152.631 175.243 152.983C174.254 153.324 173.112 153.494 171.817 153.494ZM173.896 148.483C174.964 148.483 175.908 148.273 176.726 147.852C177.544 147.42 178.186 146.841 178.652 146.114C179.118 145.386 179.351 144.562 179.351 143.642V140.864C179.124 141.011 178.811 141.148 178.413 141.273C178.027 141.386 177.589 141.494 177.101 141.597C176.612 141.687 176.124 141.773 175.635 141.852C175.146 141.92 174.703 141.983 174.305 142.04C173.453 142.165 172.709 142.364 172.072 142.636C171.436 142.909 170.942 143.278 170.589 143.744C170.237 144.199 170.061 144.767 170.061 145.449C170.061 146.438 170.419 147.193 171.135 147.716C171.862 148.227 172.783 148.483 173.896 148.483ZM195.74 162.818C194.82 162.818 193.956 162.744 193.149 162.597C192.354 162.46 191.695 162.284 191.172 162.068L192.808 156.648C193.661 156.909 194.428 157.051 195.109 157.074C195.803 157.097 196.399 156.938 196.899 156.597C197.411 156.256 197.825 155.676 198.143 154.858L198.57 153.75L189.178 126.818H196.814L202.234 146.045H202.507L207.979 126.818H215.666L205.49 155.83C205.001 157.239 204.337 158.466 203.496 159.511C202.666 160.568 201.615 161.381 200.342 161.949C199.07 162.528 197.536 162.818 195.74 162.818Z" fill="#D9D9D9"/>
<path d="M53.4872 128.131L52.4921 128.229L52.5815 129.131H53.4872V128.131ZM44.4702 124.295L44.8394 125.225L44.8503 125.22L44.4702 124.295ZM42.5611 125.676L41.761 125.076L41.7537 125.086L42.5611 125.676ZM41.9134 127.688L42.9127 127.724L42.9134 127.706V127.688H41.9134ZM42.3054 129.324L41.4516 129.844L41.4562 129.852L41.4609 129.859L42.3054 129.324ZM43.5156 130.534L42.9609 131.366L42.9674 131.37L42.9739 131.375L43.5156 130.534ZM45.2884 131.403L44.939 132.34L44.946 132.343L44.953 132.346L45.2884 131.403ZM47.4361 132.017L47.6687 131.044L47.6616 131.043L47.6546 131.041L47.4361 132.017ZM50.5724 132.767L50.3399 133.74L50.3469 133.741L50.354 133.743L50.5724 132.767ZM54.7656 134.131L54.358 135.044L54.7656 134.131ZM58.0724 136.227L58.7374 135.48L58.0724 136.227ZM60.2372 139.159L59.3268 139.573L59.3303 139.58L60.2372 139.159ZM61.0384 143.028L62.0384 143.034L62.0383 143.021L61.0384 143.028ZM59.402 148.585L58.5783 148.018L58.5774 148.019L59.402 148.585ZM54.7656 152.216L55.1558 153.137L55.1583 153.136L54.7656 152.216ZM40.1236 152.199L39.74 153.122L39.7418 153.123L40.1236 152.199ZM35.2486 148.364L34.4216 148.926L34.426 148.932L35.2486 148.364ZM33.4247 142.04V141.04H32.4018L32.425 142.062L33.4247 142.04ZM40.5668 142.04L41.5645 141.972L41.5011 141.04H40.5668V142.04ZM41.5724 144.972L40.7738 145.573L40.7787 145.58L40.7837 145.586L41.5724 144.972ZM43.9759 146.727L43.6062 147.657L43.619 147.661L43.9759 146.727ZM50.6577 146.761L50.2941 145.83L50.2902 145.831L50.6577 146.761ZM52.8224 145.244L53.6073 145.864L52.8224 145.244ZM52.8906 141.034L52.129 141.682L52.1371 141.691L52.8906 141.034ZM50.8793 139.67L50.4853 140.59L50.4896 140.591L50.8793 139.67ZM47.6577 138.648L47.4141 139.618L47.4233 139.62L47.6577 138.648ZM43.8565 137.693L44.1001 136.723L44.0929 136.722L43.8565 137.693ZM36.8849 134.335L36.2187 135.081L36.8849 134.335ZM34.3452 128.182L35.3452 128.186L35.3452 128.176L34.3452 128.182ZM36.0327 122.642L35.2237 122.054L35.2209 122.058L36.0327 122.642ZM54.3565 118.943L53.9395 119.852L53.9415 119.853L54.3565 118.943ZM58.8906 122.642L58.065 123.206V123.206L58.8906 122.642ZM60.5611 128.131V129.131H61.5776L61.5609 128.114L60.5611 128.131ZM53.4872 128.131L54.4823 128.032C54.3204 126.399 53.6054 125.064 52.3244 124.121L51.7315 124.926L51.1386 125.731C51.9258 126.311 52.3813 127.112 52.4921 128.229L53.4872 128.131ZM51.7315 124.926L52.3244 124.121C51.064 123.193 49.4279 122.784 47.5213 122.784V123.784V124.784C49.1601 124.784 50.3309 125.137 51.1386 125.731L51.7315 124.926ZM47.5213 123.784V122.784C46.2285 122.784 45.0739 122.966 44.0901 123.371L44.4702 124.295L44.8503 125.22C45.5256 124.943 46.405 124.784 47.5213 124.784V123.784ZM44.4702 124.295L44.101 123.366C43.1361 123.749 42.3358 124.31 41.7611 125.076L42.5611 125.676L43.3611 126.276C43.6727 125.861 44.1452 125.501 44.8394 125.225L44.4702 124.295ZM42.5611 125.676L41.7537 125.086C41.1934 125.853 40.9134 126.731 40.9134 127.688H41.9134H42.9134C42.9134 127.144 43.0651 126.681 43.3685 126.266L42.5611 125.676ZM41.9134 127.688L40.914 127.651C40.8852 128.443 41.0511 129.188 41.4516 129.844L42.3054 129.324L43.1592 128.803C42.9915 128.528 42.896 128.182 42.9127 127.724L41.9134 127.688ZM42.3054 129.324L41.4609 129.859C41.8393 130.456 42.3466 130.957 42.9609 131.366L43.5156 130.534L44.0703 129.702C43.6619 129.43 43.3624 129.123 43.1499 128.788L42.3054 129.324ZM43.5156 130.534L42.9739 131.375C43.5552 131.749 44.2126 132.07 44.939 132.34L45.2884 131.403L45.6377 130.466C45.0232 130.237 44.4988 129.978 44.0573 129.694L43.5156 130.534ZM45.2884 131.403L44.953 132.346C45.6652 132.599 46.4204 132.814 47.2176 132.993L47.4361 132.017L47.6546 131.041C46.9291 130.879 46.2525 130.685 45.6237 130.461L45.2884 131.403ZM47.4361 132.017L47.2035 132.99L50.3399 133.74L50.5724 132.767L50.805 131.794L47.6687 131.044L47.4361 132.017ZM50.5724 132.767L50.354 133.743C51.8193 134.071 53.1528 134.506 54.358 135.044L54.7656 134.131L55.1733 133.218C53.833 132.619 52.371 132.145 50.7909 131.791L50.5724 132.767ZM54.7656 134.131L54.358 135.044C55.5478 135.575 56.5608 136.22 57.4075 136.974L58.0724 136.227L58.7374 135.48C57.7204 134.575 56.5289 133.823 55.1733 133.218L54.7656 134.131ZM58.0724 136.227L57.4075 136.974C58.2362 137.712 58.8737 138.576 59.3269 139.573L60.2372 139.159L61.1476 138.745C60.578 137.492 59.7723 136.402 58.7374 135.48L58.0724 136.227ZM60.2372 139.159L59.3303 139.58C59.7833 140.555 60.0279 141.7 60.0384 143.036L61.0384 143.028L62.0383 143.021C62.026 141.448 61.7366 140.013 61.1441 138.738L60.2372 139.159ZM61.0384 143.028L60.0384 143.023C60.0279 144.984 59.5304 146.635 58.5783 148.018L59.402 148.585L60.2257 149.152C61.4326 147.399 62.026 145.345 62.0383 143.034L61.0384 143.028ZM59.402 148.585L58.5774 148.019C57.6334 149.395 56.2504 150.495 54.373 151.296L54.7656 152.216L55.1583 153.136C57.3263 152.21 59.0342 150.889 60.2266 149.151L59.402 148.585ZM54.7656 152.216L54.3755 151.295C52.5186 152.082 50.2325 152.494 47.4872 152.494V153.494V154.494C50.4237 154.494 52.9899 154.054 55.1558 153.137L54.7656 152.216ZM47.4872 153.494V152.494C44.7689 152.494 42.4494 152.078 40.5053 151.275L40.1236 152.199L39.7418 153.123C41.9796 154.047 44.5692 154.494 47.4872 154.494V153.494ZM40.1236 152.199L40.5071 151.275C38.5876 150.478 37.1222 149.315 36.0712 147.795L35.2486 148.364L34.426 148.932C35.7159 150.798 37.5004 152.192 39.74 153.122L40.1236 152.199ZM35.2486 148.364L36.0755 147.801C35.0465 146.288 34.4779 144.378 34.4245 142.017L33.4247 142.04L32.425 142.062C32.4852 144.724 33.1325 147.03 34.4217 148.926L35.2486 148.364ZM33.4247 142.04V143.04H40.5668V142.04V141.04H33.4247V142.04ZM40.5668 142.04L39.5691 142.108C39.6592 143.433 40.0451 144.606 40.7738 145.573L41.5724 144.972L42.3711 144.37C41.918 143.769 41.6334 142.987 41.5645 141.972L40.5668 142.04ZM41.5724 144.972L40.7837 145.586C41.5058 146.513 42.4578 147.2 43.6063 147.656L43.9759 146.727L44.3454 145.798C43.4939 145.459 42.8436 144.976 42.3612 144.357L41.5724 144.972ZM43.9759 146.727L43.619 147.661C44.7624 148.098 46.0283 148.307 47.402 148.307V147.307V146.307C46.2302 146.307 45.212 146.129 44.3327 145.793L43.9759 146.727ZM47.402 147.307V148.307C48.746 148.307 49.9614 148.112 51.0251 147.691L50.6577 146.761L50.2902 145.831C49.5131 146.138 48.558 146.307 47.402 146.307V147.307ZM50.6577 146.761L51.0212 147.693C52.0836 147.278 52.9645 146.678 53.6073 145.864L52.8224 145.244L52.0376 144.625C51.6576 145.106 51.0954 145.517 50.2941 145.83L50.6577 146.761ZM52.8224 145.244L53.6073 145.864C54.2609 145.036 54.5895 144.073 54.5895 143.011H53.5895H52.5895C52.5895 143.632 52.4068 144.157 52.0376 144.625L52.8224 145.244ZM53.5895 143.011H54.5895C54.5895 142.013 54.2863 141.113 53.6442 140.377L52.8906 141.034L52.1371 141.691C52.4268 142.024 52.5895 142.441 52.5895 143.011H53.5895ZM52.8906 141.034L53.6522 140.386C53.0662 139.697 52.2482 139.164 51.2689 138.749L50.8793 139.67L50.4896 140.591C51.283 140.927 51.806 141.303 52.1291 141.682L52.8906 141.034ZM50.8793 139.67L51.2732 138.751C50.3315 138.348 49.2006 137.991 47.892 137.676L47.6577 138.648L47.4233 139.62C48.6602 139.918 49.677 140.243 50.4853 140.59L50.8793 139.67ZM47.6577 138.648L47.9012 137.678L44.1001 136.723L43.8565 137.693L43.613 138.663L47.4141 139.618L47.6577 138.648ZM43.8565 137.693L44.0929 136.722C41.2594 136.032 39.0998 134.973 37.5512 133.589L36.8849 134.335L36.2187 135.081C38.0792 136.743 40.5673 137.922 43.6202 138.665L43.8565 137.693ZM36.8849 134.335L37.5512 133.589C36.0889 132.283 35.3349 130.52 35.3452 128.186L34.3452 128.182L33.3452 128.177C33.3327 131.002 34.2719 133.342 36.2187 135.081L36.8849 134.335ZM34.3452 128.182L35.3452 128.176C35.3348 126.255 35.8423 124.619 36.8444 123.226L36.0327 122.642L35.2209 122.058C33.9503 123.824 33.3328 125.881 33.3452 128.187L34.3452 128.182ZM36.0327 122.642L36.8417 123.23C37.8738 121.809 39.3006 120.681 41.1594 119.857L40.7543 118.943L40.3491 118.029C38.2079 118.978 36.487 120.316 35.2237 122.054L36.0327 122.642ZM40.7543 118.943L41.1594 119.857C43.0127 119.036 45.1439 118.614 47.5724 118.614V117.614V116.614C44.9101 116.614 42.4959 117.078 40.3491 118.029L40.7543 118.943ZM47.5724 117.614V118.614C50.0503 118.614 52.1639 119.037 53.9395 119.852L54.3565 118.943L54.7736 118.034C52.6855 117.076 50.2764 116.614 47.5724 116.614V117.614ZM54.3565 118.943L53.9415 119.853C55.7387 120.673 57.0999 121.794 58.065 123.206L58.8906 122.642L59.7162 122.078C58.5222 120.331 56.8607 118.986 54.7715 118.033L54.3565 118.943ZM58.8906 122.642L58.065 123.206C59.0245 124.61 59.53 126.245 59.5612 128.147L60.5611 128.131L61.5609 128.114C61.5239 125.857 60.9159 123.833 59.7162 122.078L58.8906 122.642ZM60.5611 128.131V127.131H53.4872V128.131V129.131H60.5611V128.131ZM68.8665 152.625L68.4545 153.536L68.4611 153.539L68.8665 152.625ZM65.7642 150.017L64.9246 150.56L64.9309 150.57L65.7642 150.017ZM65.4403 142.023L64.5605 141.547L65.4403 142.023ZM67.6222 139.636L67.0746 138.8L67.6222 139.636ZM70.7585 138.273L70.5072 137.305L70.505 137.305L70.7585 138.273ZM74.4744 137.625L74.5705 138.62L74.5783 138.62L74.4744 137.625ZM78.1562 137.182L78.3011 138.171L78.3128 138.169L78.1562 137.182ZM80.1847 136.534L79.6248 135.706L80.1847 136.534ZM79.7926 132.665L79.1314 133.415L79.1377 133.42L79.7926 132.665ZM73.8097 132.648L74.4021 133.453L74.4097 133.448L73.8097 132.648ZM72.2756 134.795L72.1946 135.792L73.009 135.858L73.2361 135.074L72.2756 134.795ZM65.5597 134.25L64.5819 134.04L64.3431 135.154L65.4787 135.247L65.5597 134.25ZM67.571 130.125L68.3282 130.778L68.3313 130.775L67.571 130.125ZM71.4403 127.432L71.8083 128.362L71.8117 128.36L71.4403 127.432ZM81.1392 126.989L80.8908 127.957L80.8928 127.958L81.1392 126.989ZM84.7017 128.574L84.1325 129.396L84.1367 129.399L84.7017 128.574ZM87.1733 131.335L86.2917 131.807L86.2937 131.811L87.1733 131.335ZM88.0767 153V154H89.0767V153H88.0767ZM81.1903 153H80.1903V154H81.1903V153ZM81.1903 149.369H82.1903V148.369H81.1903V149.369ZM80.9858 149.369V148.369H80.3754L80.0964 148.912L80.9858 149.369ZM79.2983 151.534L79.9551 152.288L79.9619 152.282L79.2983 151.534ZM76.7585 152.983L77.0845 153.928L77.0942 153.925L76.7585 152.983ZM78.2415 147.852L78.6986 148.742L78.7082 148.737L78.2415 147.852ZM80.1676 146.114L79.3256 145.574V145.574L80.1676 146.114ZM80.8665 140.864H81.8665V139.021L80.3215 140.025L80.8665 140.864ZM79.929 141.273L80.2111 142.232L80.22 142.229L80.2288 142.227L79.929 141.273ZM78.6165 141.597L78.7994 142.58L78.8104 142.578L78.8213 142.575L78.6165 141.597ZM77.1506 141.852L77.2888 142.843L77.3 142.841L77.3112 142.839L77.1506 141.852ZM75.821 142.04L75.6796 141.05L75.6759 141.05L75.821 142.04ZM73.5881 142.636L73.982 143.556L73.5881 142.636ZM72.1051 143.744L72.8956 144.357L72.9028 144.347L72.1051 143.744ZM72.6506 147.716L72.0609 148.524L72.0681 148.529L72.0754 148.534L72.6506 147.716ZM73.3324 153.494V152.494C71.7783 152.494 70.4313 152.225 69.2719 151.711L68.8665 152.625L68.4611 153.539C69.9153 154.184 71.5456 154.494 73.3324 154.494V153.494ZM68.8665 152.625L69.2785 151.714C68.1356 151.197 67.2505 150.449 66.5975 149.464L65.7642 150.017L64.9309 150.57C65.8006 151.881 66.9837 152.871 68.4545 153.536L68.8665 152.625ZM65.7642 150.017L66.6038 149.474C65.982 148.513 65.6392 147.27 65.6392 145.688H64.6392H63.6392C63.6392 147.559 64.0464 149.203 64.9246 150.56L65.7642 150.017ZM64.6392 145.688H65.6392C65.6392 144.351 65.8848 143.304 66.3202 142.498L65.4403 142.023L64.5605 141.547C63.9277 142.719 63.6392 144.114 63.6392 145.688H64.6392ZM65.4403 142.023L66.3202 142.498C66.777 141.652 67.3914 140.982 68.1697 140.473L67.6222 139.636L67.0746 138.8C66.012 139.495 65.1718 140.416 64.5605 141.547L65.4403 142.023ZM67.6222 139.636L68.1697 140.473C68.9913 139.936 69.9356 139.522 71.0121 139.24L70.7585 138.273L70.505 137.305C69.2405 137.637 68.0939 138.133 67.0746 138.8L67.6222 139.636ZM70.7585 138.273L71.0098 139.241C72.1375 138.948 73.324 138.741 74.5705 138.62L74.4744 137.625L74.3784 136.63C73.034 136.759 71.7432 136.984 70.5072 137.305L70.7585 138.273ZM74.4744 137.625L74.5783 138.62C76.1074 138.46 77.3499 138.31 78.301 138.171L78.1562 137.182L78.0115 136.192C77.0989 136.326 75.8869 136.472 74.3705 136.63L74.4744 137.625ZM78.1562 137.182L78.3128 138.169C79.2858 138.015 80.1388 137.772 80.7445 137.363L80.1847 136.534L79.6248 135.706C79.3896 135.864 78.8903 136.053 77.9997 136.194L78.1562 137.182ZM80.1847 136.534L80.7445 137.363C81.4703 136.872 81.8153 136.124 81.8153 135.273H80.8153H79.8153C79.8153 135.535 79.7399 135.628 79.6248 135.706L80.1847 136.534ZM80.8153 135.273H81.8153V135.17H80.8153H79.8153V135.273H80.8153ZM80.8153 135.17H81.8153C81.8153 133.863 81.3917 132.727 80.4475 131.909L79.7926 132.665L79.1377 133.42C79.5572 133.784 79.8153 134.318 79.8153 135.17H80.8153ZM79.7926 132.665L80.4538 131.915C79.5408 131.11 78.3171 130.778 76.929 130.778V131.778V132.778C78.0181 132.778 78.7036 133.038 79.1314 133.415L79.7926 132.665ZM76.929 131.778V130.778C75.4812 130.778 74.2074 131.099 73.2097 131.848L73.8097 132.648L74.4097 133.448C74.9574 133.037 75.7631 132.778 76.929 132.778V131.778ZM73.8097 132.648L73.2173 131.842C72.2797 132.531 71.6305 133.428 71.315 134.517L72.2756 134.795L73.2361 135.074C73.4206 134.436 73.7942 133.9 74.402 133.453L73.8097 132.648ZM72.2756 134.795L72.3565 133.799L65.6406 133.253L65.5597 134.25L65.4787 135.247L72.1946 135.792L72.2756 134.795ZM65.5597 134.25L66.5375 134.46C66.8455 133.022 67.4447 131.802 68.3282 130.778L67.571 130.125L66.8139 129.472C65.6974 130.766 64.9556 132.296 64.5819 134.04L65.5597 134.25ZM67.571 130.125L68.3313 130.775C69.2147 129.741 70.3644 128.933 71.8083 128.362L71.4403 127.432L71.0724 126.502C69.3572 127.181 67.9273 128.168 66.8107 129.475L67.571 130.125ZM71.4403 127.432L71.8117 128.36C73.2616 127.78 74.9722 127.477 76.9631 127.477V126.477V125.477C74.7722 125.477 72.8009 125.811 71.069 126.503L71.4403 127.432ZM76.9631 126.477V127.477C78.3388 127.477 79.6471 127.638 80.8908 127.957L81.1392 126.989L81.3876 126.02C79.9722 125.657 78.4964 125.477 76.9631 125.477V126.477ZM81.1392 126.989L80.8928 127.958C82.1298 128.272 83.2057 128.754 84.1325 129.396L84.7017 128.574L85.2709 127.752C84.1295 126.961 82.8305 126.387 81.3856 126.019L81.1392 126.989ZM84.7017 128.574L84.1367 129.399C85.0489 130.024 85.7645 130.823 86.2917 131.807L87.1733 131.335L88.0549 130.863C87.3775 129.598 86.4455 128.556 85.2667 127.749L84.7017 128.574ZM87.1733 131.335L86.2937 131.811C86.8008 132.749 87.0767 133.913 87.0767 135.341H88.0767H89.0767C89.0767 133.656 88.7504 132.149 88.0529 130.86L87.1733 131.335ZM88.0767 135.341H87.0767V153H88.0767H89.0767V135.341H88.0767ZM88.0767 153V152H81.1903V153V154H88.0767V153ZM81.1903 153H82.1903V149.369H81.1903H80.1903V153H81.1903ZM81.1903 149.369V148.369H80.9858V149.369V150.369H81.1903V149.369ZM80.9858 149.369L80.0964 148.912C79.7339 149.618 79.2488 150.241 78.6347 150.786L79.2983 151.534L79.9619 152.282C80.7568 151.577 81.3968 150.757 81.8752 149.826L80.9858 149.369ZM79.2983 151.534L78.6415 150.78C78.0422 151.302 77.3081 151.726 76.4229 152.041L76.7585 152.983L77.0942 153.925C78.1862 153.536 79.1453 152.993 79.9551 152.288L79.2983 151.534ZM76.7585 152.983L76.4325 152.038C75.5704 152.335 74.5423 152.494 73.3324 152.494V153.494V154.494C74.7133 154.494 75.9694 154.313 77.0845 153.928L76.7585 152.983ZM75.4119 148.483V149.483C76.6134 149.483 77.7178 149.246 78.6985 148.742L78.2415 147.852L77.7844 146.963C77.1288 147.3 76.3468 147.483 75.4119 147.483V148.483ZM78.2415 147.852L78.7082 148.737C79.668 148.23 80.4439 147.536 81.0096 146.653L80.1676 146.114L79.3256 145.574C78.9595 146.146 78.4513 146.611 77.7747 146.968L78.2415 147.852ZM80.1676 146.114L81.0096 146.653C81.5856 145.754 81.8665 144.741 81.8665 143.642H80.8665H79.8665C79.8665 144.384 79.6815 145.019 79.3256 145.574L80.1676 146.114ZM80.8665 143.642H81.8665V140.864H80.8665H79.8665V143.642H80.8665ZM80.8665 140.864L80.3215 140.025C80.1996 140.104 79.9814 140.208 79.6292 140.319L79.929 141.273L80.2288 142.227C80.672 142.087 81.0789 141.918 81.4115 141.702L80.8665 140.864ZM79.929 141.273L79.6468 140.313C79.2911 140.418 78.8801 140.52 78.4116 140.618L78.6165 141.597L78.8213 142.575C79.3301 142.469 79.7941 142.355 80.2111 142.232L79.929 141.273ZM78.6165 141.597L78.4336 140.613C77.9523 140.703 77.4711 140.787 76.9899 140.865L77.1506 141.852L77.3112 142.839C77.8073 142.759 78.3034 142.672 78.7994 142.58L78.6165 141.597ZM77.1506 141.852L77.0124 140.862C76.5229 140.93 76.0786 140.993 75.6796 141.05L75.821 142.04L75.9624 143.03C76.3589 142.973 76.801 142.911 77.2888 142.843L77.1506 141.852ZM75.821 142.04L75.6759 141.05C74.7579 141.185 73.9266 141.403 73.1941 141.717L73.5881 142.636L73.982 143.556C74.5222 143.324 75.1796 143.145 75.9661 143.029L75.821 142.04ZM73.5881 142.636L73.1942 141.717C72.4277 142.046 71.7825 142.513 71.3075 143.141L72.1051 143.744L72.9028 144.347C73.1323 144.044 73.4757 143.773 73.982 143.556L73.5881 142.636ZM72.1051 143.744L71.3147 143.132C70.8026 143.793 70.5767 144.588 70.5767 145.449H71.5767H72.5767C72.5767 144.946 72.7031 144.605 72.8955 144.357L72.1051 143.744ZM71.5767 145.449H70.5767C70.5767 146.714 71.0546 147.789 72.0609 148.524L72.6506 147.716L73.2403 146.908C72.8147 146.598 72.5767 146.161 72.5767 145.449H71.5767ZM72.6506 147.716L72.0754 148.534C73.0094 149.191 74.1448 149.483 75.4119 149.483V148.483V147.483C74.4518 147.483 73.7463 147.264 73.2257 146.898L72.6506 147.716ZM117.182 126.818L118.126 127.148L118.591 125.818H117.182V126.818ZM108.028 153V154H108.738L108.972 153.33L108.028 153ZM99.8466 153L98.9026 153.33L99.1368 154H99.8466V153ZM90.6932 126.818V125.818H89.2842L89.7492 127.148L90.6932 126.818ZM98.3636 126.818L99.324 126.539L99.1146 125.818H98.3636V126.818ZM103.801 145.551L102.841 145.83L103.05 146.551H103.801V145.551ZM104.074 145.551V146.551H104.826L105.034 145.829L104.074 145.551ZM109.494 126.818V125.818H108.743L108.534 126.54L109.494 126.818ZM117.182 126.818L116.238 126.488L107.084 152.67L108.028 153L108.972 153.33L118.126 127.148L117.182 126.818ZM108.028 153V152H99.8466V153V154H108.028V153ZM99.8466 153L100.791 152.67L91.6372 126.488L90.6932 126.818L89.7492 127.148L98.9026 153.33L99.8466 153ZM90.6932 126.818V127.818H98.3636V126.818V125.818H90.6932V126.818ZM98.3636 126.818L97.4033 127.097L102.841 145.83L103.801 145.551L104.761 145.272L99.324 126.539L98.3636 126.818ZM103.801 145.551V146.551H104.074V145.551V144.551H103.801V145.551ZM104.074 145.551L105.034 145.829L110.455 127.096L109.494 126.818L108.534 126.54L103.113 145.273L104.074 145.551ZM109.494 126.818V127.818H117.182V126.818V125.818H109.494V126.818ZM120.898 153H119.898V154H120.898V153ZM120.898 126.818V125.818H119.898V126.818H120.898ZM128.159 126.818H129.159V125.818H128.159V126.818ZM128.159 153V154H129.159V153H128.159ZM121.767 122.369L121.076 123.092L121.082 123.098L121.087 123.103L121.767 122.369ZM121.767 117.188L122.452 117.916L122.452 117.916L121.767 117.188ZM127.307 117.188L126.616 117.911L126.622 117.916L126.627 117.921L127.307 117.188ZM127.307 122.369L127.992 123.098L127.992 123.098L127.307 122.369ZM120.898 153H121.898V126.818H120.898H119.898V153H120.898ZM120.898 126.818V127.818H128.159V126.818V125.818H120.898V126.818ZM128.159 126.818H127.159V153H128.159H129.159V126.818H128.159ZM128.159 153V152H120.898V153V154H128.159V153ZM124.545 123.443V122.443C123.711 122.443 123.03 122.176 122.447 121.636L121.767 122.369L121.087 123.103C122.05 123.995 123.221 124.443 124.545 124.443V123.443ZM121.767 122.369L122.458 121.646C121.885 121.099 121.625 120.487 121.625 119.761H120.625H119.625C119.625 121.058 120.127 122.185 121.076 123.092L121.767 122.369ZM120.625 119.761H121.625C121.625 119.051 121.882 118.453 122.452 117.916L121.767 117.188L121.082 116.459C120.13 117.354 119.625 118.472 119.625 119.761H120.625ZM121.767 117.188L122.452 117.916C123.036 117.366 123.716 117.097 124.545 117.097V116.097V115.097C123.216 115.097 122.043 115.554 121.082 116.459L121.767 117.188ZM124.545 116.097V117.097C125.375 117.097 126.046 117.366 126.616 117.911L127.307 117.188L127.998 116.464C127.045 115.554 125.875 115.097 124.545 115.097V116.097ZM127.307 117.188L126.627 117.921C127.208 118.459 127.466 119.056 127.466 119.761H128.466H129.466C129.466 118.467 128.951 117.348 127.986 116.454L127.307 117.188ZM128.466 119.761H127.466C127.466 120.482 127.205 121.092 126.621 121.641L127.307 122.369L127.992 123.098C128.955 122.192 129.466 121.063 129.466 119.761H128.466ZM127.307 122.369L126.622 121.641C126.053 122.176 125.38 122.443 124.545 122.443V123.443V124.443C125.87 124.443 127.038 123.994 127.992 123.098L127.307 122.369ZM134.112 153H133.112V154H134.112V153ZM134.112 118.091V117.091H133.112V118.091H134.112ZM154.652 119.608L154.175 120.487L154.179 120.489L154.652 119.608ZM158.913 123.784L158.036 124.265L158.04 124.271L158.913 123.784ZM154.55 140.199L154.088 139.312L154.086 139.313L154.55 140.199ZM138.919 141.682H137.919V142.682H138.919V141.682ZM138.919 135.767V134.767H137.919V135.767H138.919ZM150.016 135.034L150.485 135.917L150.488 135.915L150.016 135.034ZM152.095 132.972L151.21 132.506L151.208 132.511L152.095 132.972ZM152.095 126.886L151.208 127.347L151.211 127.354L151.215 127.361L152.095 126.886ZM150.016 124.858L149.551 125.744L149.56 125.748L150.016 124.858ZM141.493 124.125V123.125H140.493V124.125H141.493ZM141.493 153V154H142.493V153H141.493ZM134.112 153H135.112V118.091H134.112H133.112V153H134.112ZM134.112 118.091V119.091H147.885V118.091V117.091H134.112V118.091ZM147.885 118.091V119.091C150.407 119.091 152.49 119.572 154.175 120.487L154.652 119.608L155.129 118.729C153.087 117.621 150.659 117.091 147.885 117.091V118.091ZM154.652 119.608L154.179 120.489C155.879 121.401 157.156 122.657 158.036 124.265L158.913 123.784L159.79 123.304C158.716 121.343 157.152 119.815 155.125 118.727L154.652 119.608ZM158.913 123.784L158.04 124.271C158.934 125.875 159.396 127.748 159.396 129.92H160.396H161.396C161.396 127.456 160.87 125.239 159.787 123.297L158.913 123.784ZM160.396 129.92H159.396C159.396 132.091 158.93 133.963 158.025 135.565L158.896 136.057L159.767 136.548C160.863 134.606 161.396 132.387 161.396 129.92H160.396ZM158.896 136.057L158.025 135.565C157.125 137.161 155.823 138.408 154.088 139.312L154.55 140.199L155.012 141.086C157.072 140.012 158.667 138.498 159.767 136.548L158.896 136.057ZM154.55 140.199L154.086 139.313C152.375 140.21 150.259 140.682 147.697 140.682V141.682V142.682C150.5 142.682 152.952 142.165 155.014 141.085L154.55 140.199ZM147.697 141.682V140.682H138.919V141.682V142.682H147.697V141.682ZM138.919 141.682H139.919V135.767H138.919H137.919V141.682H138.919ZM138.919 135.767V136.767H146.504V135.767V134.767H138.919V135.767ZM146.504 135.767V136.767C148.032 136.767 149.377 136.505 150.485 135.917L150.016 135.034L149.547 134.151C148.814 134.54 147.818 134.767 146.504 134.767V135.767ZM150.016 135.034L150.488 135.915C151.584 135.327 152.428 134.499 152.983 133.433L152.095 132.972L151.208 132.511C150.853 133.194 150.311 133.741 149.543 134.153L150.016 135.034ZM152.095 132.972L152.98 133.437C153.532 132.387 153.794 131.206 153.794 129.92H152.794H151.794C151.794 130.93 151.59 131.783 151.21 132.506L152.095 132.972ZM152.794 129.92H153.794C153.794 128.626 153.533 127.445 152.975 126.412L152.095 126.886L151.215 127.361C151.589 128.055 151.794 128.897 151.794 129.92H152.794ZM152.095 126.886L152.983 126.425C152.426 125.354 151.576 124.534 150.471 123.968L150.016 124.858L149.56 125.748C150.319 126.137 150.855 126.668 151.208 127.347L152.095 126.886ZM150.016 124.858L150.48 123.972C149.363 123.386 148.008 123.125 146.47 123.125V124.125V125.125C147.796 125.125 148.805 125.352 149.551 125.744L150.016 124.858ZM146.47 124.125V123.125H141.493V124.125V125.125H146.47V124.125ZM141.493 124.125H140.493V153H141.493H142.493V124.125H141.493ZM141.493 153V152H134.112V153V154H141.493V153ZM167.351 152.625L166.939 153.536L166.945 153.539L167.351 152.625ZM164.249 150.017L163.409 150.56L163.415 150.57L164.249 150.017ZM163.925 142.023L163.045 141.547L163.925 142.023ZM166.107 139.636L165.559 138.8L166.107 139.636ZM169.243 138.273L168.992 137.305L168.989 137.305L169.243 138.273ZM172.959 137.625L173.055 138.62L173.063 138.62L172.959 137.625ZM176.641 137.182L176.785 138.171L176.797 138.169L176.641 137.182ZM178.669 136.534L178.109 135.706L178.669 136.534ZM178.277 132.665L177.616 133.415L177.622 133.42L178.277 132.665ZM172.294 132.648L172.886 133.453L172.894 133.448L172.294 132.648ZM170.76 134.795L170.679 135.792L171.493 135.858L171.721 135.074L170.76 134.795ZM164.044 134.25L163.066 134.04L162.828 135.154L163.963 135.247L164.044 134.25ZM166.055 130.125L166.813 130.778L166.816 130.775L166.055 130.125ZM169.925 127.432L170.293 128.362L170.296 128.36L169.925 127.432ZM179.624 126.989L179.375 127.957L179.377 127.958L179.624 126.989ZM183.186 128.574L182.617 129.396L182.621 129.399L183.186 128.574ZM185.658 131.335L184.776 131.807L184.778 131.811L185.658 131.335ZM186.561 153V154H187.561V153H186.561ZM179.675 153H178.675V154H179.675V153ZM179.675 149.369H180.675V148.369H179.675V149.369ZM179.47 149.369V148.369H178.86L178.581 148.912L179.47 149.369ZM177.783 151.534L178.439 152.288L178.446 152.282L177.783 151.534ZM175.243 152.983L175.569 153.928L175.579 153.925L175.243 152.983ZM176.726 147.852L177.183 148.742L177.193 148.737L176.726 147.852ZM178.652 146.114L177.81 145.574V145.574L178.652 146.114ZM179.351 140.864H180.351V139.021L178.806 140.025L179.351 140.864ZM178.413 141.273L178.696 142.232L178.704 142.229L178.713 142.227L178.413 141.273ZM177.101 141.597L177.284 142.58L177.295 142.578L177.306 142.575L177.101 141.597ZM175.635 141.852L175.773 142.843L175.784 142.841L175.796 142.839L175.635 141.852ZM174.305 142.04L174.164 141.05L174.16 141.05L174.305 142.04ZM172.072 142.636L172.466 143.556L172.072 142.636ZM170.589 143.744L171.38 144.357L171.387 144.347L170.589 143.744ZM171.135 147.716L170.545 148.524L170.552 148.529L170.56 148.534L171.135 147.716ZM171.817 153.494V152.494C170.263 152.494 168.916 152.225 167.756 151.711L167.351 152.625L166.945 153.539C168.4 154.184 170.03 154.494 171.817 154.494V153.494ZM167.351 152.625L167.763 151.714C166.62 151.197 165.735 150.449 165.082 149.464L164.249 150.017L163.415 150.57C164.285 151.881 165.468 152.871 166.939 153.536L167.351 152.625ZM164.249 150.017L165.088 149.474C164.466 148.513 164.124 147.27 164.124 145.688H163.124H162.124C162.124 147.559 162.531 149.203 163.409 150.56L164.249 150.017ZM163.124 145.688H164.124C164.124 144.351 164.369 143.304 164.805 142.498L163.925 142.023L163.045 141.547C162.412 142.719 162.124 144.114 162.124 145.688H163.124ZM163.925 142.023L164.805 142.498C165.261 141.652 165.876 140.982 166.654 140.473L166.107 139.636L165.559 138.8C164.496 139.495 163.656 140.416 163.045 141.547L163.925 142.023ZM166.107 139.636L166.654 140.473C167.476 139.936 168.42 139.522 169.496 139.24L169.243 138.273L168.989 137.305C167.725 137.637 166.578 138.133 165.559 138.8L166.107 139.636ZM169.243 138.273L169.494 139.241C170.622 138.948 171.808 138.741 173.055 138.62L172.959 137.625L172.863 136.63C171.518 136.759 170.228 136.984 168.992 137.305L169.243 138.273ZM172.959 137.625L173.063 138.62C174.592 138.46 175.834 138.31 176.785 138.171L176.641 137.182L176.496 136.192C175.583 136.326 174.371 136.472 172.855 136.63L172.959 137.625ZM176.641 137.182L176.797 138.169C177.77 138.015 178.623 137.772 179.229 137.363L178.669 136.534L178.109 135.706C177.874 135.864 177.375 136.053 176.484 136.194L176.641 137.182ZM178.669 136.534L179.229 137.363C179.955 136.872 180.3 136.124 180.3 135.273H179.3H178.3C178.3 135.535 178.224 135.628 178.109 135.706L178.669 136.534ZM179.3 135.273H180.3V135.17H179.3H178.3V135.273H179.3ZM179.3 135.17H180.3C180.3 133.863 179.876 132.727 178.932 131.909L178.277 132.665L177.622 133.42C178.042 133.784 178.3 134.318 178.3 135.17H179.3ZM178.277 132.665L178.938 131.915C178.025 131.11 176.801 130.778 175.413 130.778V131.778V132.778C176.503 132.778 177.188 133.038 177.616 133.415L178.277 132.665ZM175.413 131.778V130.778C173.966 130.778 172.692 131.099 171.694 131.848L172.294 132.648L172.894 133.448C173.442 133.037 174.247 132.778 175.413 132.778V131.778ZM172.294 132.648L171.702 131.842C170.764 132.531 170.115 133.428 169.799 134.517L170.76 134.795L171.721 135.074C171.905 134.436 172.279 133.9 172.886 133.453L172.294 132.648ZM170.76 134.795L170.841 133.799L164.125 133.253L164.044 134.25L163.963 135.247L170.679 135.792L170.76 134.795ZM164.044 134.25L165.022 134.46C165.33 133.022 165.929 131.802 166.813 130.778L166.055 130.125L165.298 129.472C164.182 130.766 163.44 132.296 163.066 134.04L164.044 134.25ZM166.055 130.125L166.816 130.775C167.699 129.741 168.849 128.933 170.293 128.362L169.925 127.432L169.557 126.502C167.842 127.181 166.412 128.168 165.295 129.475L166.055 130.125ZM169.925 127.432L170.296 128.36C171.746 127.78 173.457 127.477 175.447 127.477V126.477V125.477C173.257 125.477 171.285 125.811 169.553 126.503L169.925 127.432ZM175.447 126.477V127.477C176.823 127.477 178.132 127.638 179.375 127.957L179.624 126.989L179.872 126.02C178.457 125.657 176.981 125.477 175.447 125.477V126.477ZM179.624 126.989L179.377 127.958C180.614 128.272 181.69 128.754 182.617 129.396L183.186 128.574L183.755 127.752C182.614 126.961 181.315 126.387 179.87 126.019L179.624 126.989ZM183.186 128.574L182.621 129.399C183.533 130.024 184.249 130.823 184.776 131.807L185.658 131.335L186.539 130.863C185.862 129.598 184.93 128.556 183.751 127.749L183.186 128.574ZM185.658 131.335L184.778 131.811C185.285 132.749 185.561 133.913 185.561 135.341H186.561H187.561C187.561 133.656 187.235 132.149 186.537 130.86L185.658 131.335ZM186.561 135.341H185.561V153H186.561H187.561V135.341H186.561ZM186.561 153V152H179.675V153V154H186.561V153ZM179.675 153H180.675V149.369H179.675H178.675V153H179.675ZM179.675 149.369V148.369H179.47V149.369V150.369H179.675V149.369ZM179.47 149.369L178.581 148.912C178.218 149.618 177.733 150.241 177.119 150.786L177.783 151.534L178.446 152.282C179.241 151.577 179.881 150.757 180.36 149.826L179.47 149.369ZM177.783 151.534L177.126 150.78C176.527 151.302 175.792 151.726 174.907 152.041L175.243 152.983L175.579 153.925C176.671 153.536 177.63 152.993 178.439 152.288L177.783 151.534ZM175.243 152.983L174.917 152.038C174.055 152.335 173.027 152.494 171.817 152.494V153.494V154.494C173.198 154.494 174.454 154.313 175.569 153.928L175.243 152.983ZM173.896 148.483V149.483C175.098 149.483 176.202 149.246 177.183 148.742L176.726 147.852L176.269 146.963C175.613 147.3 174.831 147.483 173.896 147.483V148.483ZM176.726 147.852L177.193 148.737C178.152 148.23 178.928 147.536 179.494 146.653L178.652 146.114L177.81 145.574C177.444 146.146 176.936 146.611 176.259 146.968L176.726 147.852ZM178.652 146.114L179.494 146.653C180.07 145.754 180.351 144.741 180.351 143.642H179.351H178.351C178.351 144.384 178.166 145.019 177.81 145.574L178.652 146.114ZM179.351 143.642H180.351V140.864H179.351H178.351V143.642H179.351ZM179.351 140.864L178.806 140.025C178.684 140.104 178.466 140.208 178.114 140.319L178.413 141.273L178.713 142.227C179.156 142.087 179.563 141.918 179.896 141.702L179.351 140.864ZM178.413 141.273L178.131 140.313C177.775 140.418 177.364 140.52 176.896 140.618L177.101 141.597L177.306 142.575C177.814 142.469 178.278 142.355 178.696 142.232L178.413 141.273ZM177.101 141.597L176.918 140.613C176.437 140.703 175.955 140.787 175.474 140.865L175.635 141.852L175.796 142.839C176.292 142.759 176.788 142.672 177.284 142.58L177.101 141.597ZM175.635 141.852L175.497 140.862C175.007 140.93 174.563 140.993 174.164 141.05L174.305 142.04L174.447 143.03C174.843 142.973 175.285 142.911 175.773 142.843L175.635 141.852ZM174.305 142.04L174.16 141.05C173.242 141.185 172.411 141.403 171.679 141.717L172.072 142.636L172.466 143.556C173.007 143.324 173.664 143.145 174.451 143.029L174.305 142.04ZM172.072 142.636L171.679 141.717C170.912 142.046 170.267 142.513 169.792 143.141L170.589 143.744L171.387 144.347C171.617 144.044 171.96 143.773 172.466 143.556L172.072 142.636ZM170.589 143.744L169.799 143.132C169.287 143.793 169.061 144.588 169.061 145.449H170.061H171.061C171.061 144.946 171.188 144.605 171.38 144.357L170.589 143.744ZM170.061 145.449H169.061C169.061 146.714 169.539 147.789 170.545 148.524L171.135 147.716L171.725 146.908C171.299 146.598 171.061 146.161 171.061 145.449H170.061ZM171.135 147.716L170.56 148.534C171.494 149.191 172.629 149.483 173.896 149.483V148.483V147.483C172.936 147.483 172.231 147.264 171.71 146.898L171.135 147.716ZM193.149 162.597L193.329 161.613L193.318 161.611L193.149 162.597ZM191.172 162.068L190.215 161.779L189.953 162.647L190.79 162.992L191.172 162.068ZM192.808 156.648L193.101 155.692L192.141 155.397L191.851 156.359L192.808 156.648ZM195.109 157.074L195.076 158.073L195.077 158.073L195.109 157.074ZM196.899 156.597L196.344 155.764L196.336 155.77L196.899 156.597ZM198.143 154.858L199.075 155.22L199.077 155.217L198.143 154.858ZM198.57 153.75L199.503 154.109L199.635 153.767L199.514 153.421L198.57 153.75ZM189.178 126.818V125.818H187.77L188.233 127.147L189.178 126.818ZM196.814 126.818L197.776 126.547L197.571 125.818H196.814V126.818ZM202.234 146.045L201.272 146.317L201.477 147.045H202.234V146.045ZM202.507 146.045V147.045H203.262L203.469 146.319L202.507 146.045ZM207.979 126.818V125.818H207.224L207.017 126.544L207.979 126.818ZM215.666 126.818L216.61 127.149L217.077 125.818H215.666V126.818ZM205.49 155.83L204.546 155.499L204.545 155.502L205.49 155.83ZM203.496 159.511L202.716 158.885L202.709 158.894L203.496 159.511ZM200.342 161.949L199.935 161.036L199.928 161.039L200.342 161.949ZM195.74 162.818V161.818C194.873 161.818 194.07 161.749 193.329 161.613L193.149 162.597L192.969 163.58C193.842 163.74 194.766 163.818 195.74 163.818V162.818ZM193.149 162.597L193.318 161.611C192.567 161.482 191.986 161.322 191.554 161.144L191.172 162.068L190.79 162.992C191.403 163.246 192.14 163.438 192.98 163.582L193.149 162.597ZM191.172 162.068L192.129 162.357L193.766 156.937L192.808 156.648L191.851 156.359L190.215 161.779L191.172 162.068ZM192.808 156.648L192.515 157.604C193.427 157.884 194.284 158.047 195.076 158.073L195.109 157.074L195.143 156.074C194.571 156.055 193.894 155.935 193.101 155.692L192.808 156.648ZM195.109 157.074L195.077 158.073C195.95 158.102 196.762 157.9 197.462 157.423L196.899 156.597L196.336 155.77C196.036 155.975 195.655 156.091 195.142 156.074L195.109 157.074ZM196.899 156.597L197.454 157.429C198.195 156.934 198.713 156.151 199.075 155.22L198.143 154.858L197.211 154.496C196.937 155.201 196.626 155.577 196.344 155.765L196.899 156.597ZM198.143 154.858L199.077 155.217L199.503 154.109L198.57 153.75L197.636 153.391L197.21 154.499L198.143 154.858ZM198.57 153.75L199.514 153.421L190.122 126.489L189.178 126.818L188.233 127.147L197.625 154.079L198.57 153.75ZM189.178 126.818V127.818H196.814V126.818V125.818H189.178V126.818ZM196.814 126.818L195.851 127.09L201.272 146.317L202.234 146.045L203.197 145.774L197.776 126.547L196.814 126.818ZM202.234 146.045V147.045H202.507V146.045V145.045H202.234V146.045ZM202.507 146.045L203.469 146.319L208.941 127.092L207.979 126.818L207.017 126.544L201.545 145.772L202.507 146.045ZM207.979 126.818V127.818H215.666V126.818V125.818H207.979V126.818ZM215.666 126.818L214.723 126.487L204.546 155.499L205.49 155.83L206.434 156.161L216.61 127.149L215.666 126.818ZM205.49 155.83L204.545 155.502C204.09 156.815 203.478 157.938 202.717 158.885L203.496 159.511L204.275 160.138C205.195 158.994 205.913 157.663 206.435 156.157L205.49 155.83ZM203.496 159.511L202.709 158.894C201.984 159.818 201.065 160.531 199.935 161.036L200.342 161.949L200.75 162.862C202.165 162.23 203.349 161.318 204.282 160.129L203.496 159.511ZM200.342 161.949L199.928 161.039C198.817 161.545 197.432 161.818 195.74 161.818V162.818V163.818C197.639 163.818 199.323 163.512 200.757 162.859L200.342 161.949Z" fill="black" mask="url(#path-7-outside-1_65_9)"/>
</g>
<path d="M55.3192 25.5653C55.251 24.8778 54.9584 24.3437 54.4413 23.9631C53.9243 23.5824 53.2226 23.392 52.3362 23.392C51.7339 23.392 51.2254 23.4773 50.8106 23.6477C50.3959 23.8125 50.0777 24.0426 49.8561 24.3381C49.6402 24.6335 49.5322 24.9688 49.5322 25.3438C49.5209 25.6562 49.5862 25.929 49.7283 26.1619C49.876 26.3949 50.0777 26.5966 50.3334 26.767C50.5891 26.9318 50.8845 27.0767 51.2197 27.2017C51.555 27.321 51.9129 27.4233 52.2936 27.5085L53.8618 27.8835C54.6231 28.054 55.322 28.2812 55.9584 28.5653C56.5947 28.8494 57.1459 29.1989 57.6118 29.6136C58.0777 30.0284 58.4385 30.517 58.6942 31.0795C58.9555 31.642 59.0891 32.2869 59.0947 33.0142C59.0891 34.0824 58.8163 35.0085 58.2766 35.7926C57.7425 36.571 56.9697 37.1761 55.9584 37.608C54.9527 38.0341 53.7396 38.2472 52.3192 38.2472C50.9101 38.2472 49.6828 38.0312 48.6374 37.5994C47.5976 37.1676 46.7851 36.5284 46.1999 35.6818C45.6203 34.8295 45.3163 33.7756 45.2879 32.5199H48.8589C48.8987 33.1051 49.0663 33.5937 49.3618 33.9858C49.6629 34.3722 50.0635 34.6648 50.5635 34.8636C51.0692 35.0568 51.6402 35.1534 52.2766 35.1534C52.9016 35.1534 53.4442 35.0625 53.9044 34.8807C54.3703 34.6989 54.7311 34.446 54.9868 34.1222C55.2425 33.7983 55.3703 33.4261 55.3703 33.0057C55.3703 32.6136 55.2538 32.2841 55.0209 32.017C54.7936 31.75 54.4584 31.5227 54.0152 31.3352C53.5777 31.1477 53.0408 30.9773 52.4044 30.8239L50.5038 30.3466C49.0322 29.9886 47.8703 29.429 47.018 28.6676C46.1658 27.9062 45.7425 26.8807 45.7481 25.5909C45.7425 24.5341 46.0237 23.6108 46.5919 22.821C47.1658 22.0312 47.9527 21.4148 48.9527 20.9716C49.9527 20.5284 51.0891 20.3068 52.3618 20.3068C53.6572 20.3068 54.7879 20.5284 55.7538 20.9716C56.7254 21.4148 57.4811 22.0312 58.0209 22.821C58.5606 23.6108 58.8391 24.5256 58.8561 25.5653H55.3192ZM65.2418 38.2472C64.4065 38.2472 63.6622 38.1023 63.0088 37.8125C62.3554 37.517 61.8383 37.0824 61.4577 36.5085C61.0827 35.929 60.8952 35.2074 60.8952 34.3438C60.8952 33.6165 61.0287 33.0057 61.2957 32.5114C61.5628 32.017 61.9264 31.6193 62.3866 31.3182C62.8469 31.017 63.3696 30.7898 63.9548 30.6364C64.5457 30.483 65.1651 30.375 65.8128 30.3125C66.5741 30.233 67.1878 30.1591 67.6537 30.0909C68.1196 30.017 68.4577 29.9091 68.6679 29.767C68.8781 29.625 68.9832 29.4148 68.9832 29.1364V29.0852C68.9832 28.5455 68.8128 28.1278 68.4719 27.8324C68.1366 27.5369 67.6594 27.3892 67.0401 27.3892C66.3866 27.3892 65.8668 27.5341 65.4804 27.8239C65.094 28.108 64.8383 28.4659 64.7133 28.8977L61.3554 28.625C61.5258 27.8295 61.8611 27.142 62.3611 26.5625C62.8611 25.9773 63.506 25.5284 64.2957 25.2159C65.0912 24.8977 66.0116 24.7386 67.0571 24.7386C67.7844 24.7386 68.4804 24.8239 69.1452 24.9943C69.8156 25.1648 70.4094 25.429 70.9264 25.7869C71.4491 26.1449 71.8611 26.6051 72.1622 27.1676C72.4633 27.7244 72.6139 28.392 72.6139 29.1705V38H69.1707V36.1847H69.0685C68.8582 36.5938 68.577 36.9545 68.2247 37.267C67.8724 37.5739 67.4491 37.8153 66.9548 37.9915C66.4605 38.1619 65.8895 38.2472 65.2418 38.2472ZM66.2815 35.7415C66.8156 35.7415 67.2872 35.6364 67.6963 35.4261C68.1054 35.2102 68.4264 34.9205 68.6594 34.5568C68.8923 34.1932 69.0088 33.7812 69.0088 33.321V31.9318C68.8952 32.0057 68.7389 32.0739 68.5401 32.1364C68.3469 32.1932 68.1281 32.2472 67.8838 32.2983C67.6395 32.3437 67.3952 32.3864 67.1508 32.4261C66.9065 32.4602 66.6849 32.4915 66.4861 32.5199C66.0599 32.5824 65.6878 32.6818 65.3696 32.8182C65.0514 32.9545 64.8043 33.1392 64.6281 33.3722C64.452 33.5994 64.3639 33.8835 64.3639 34.2244C64.3639 34.7188 64.5429 35.0966 64.9008 35.358C65.2645 35.6136 65.7247 35.7415 66.2815 35.7415ZM87.1665 24.9091L82.5898 38H78.4989L73.9222 24.9091H77.7574L80.4761 34.2756H80.6125L83.3227 24.9091H87.1665ZM89.0244 38V24.9091H92.6551V38H89.0244ZM90.8483 23.2216C90.3085 23.2216 89.8454 23.0426 89.4591 22.6847C89.0784 22.321 88.8881 21.8864 88.8881 21.3807C88.8881 20.8807 89.0784 20.4517 89.4591 20.0938C89.8454 19.7301 90.3085 19.5483 90.8483 19.5483C91.3881 19.5483 91.8483 19.7301 92.229 20.0938C92.6153 20.4517 92.8085 20.8807 92.8085 21.3807C92.8085 21.8864 92.6153 22.321 92.229 22.6847C91.8483 23.0426 91.3881 23.2216 90.8483 23.2216ZM95.6317 38V20.5455H102.518C103.842 20.5455 104.97 20.7983 105.902 21.304C106.833 21.804 107.544 22.5 108.032 23.392C108.527 24.2784 108.774 25.3011 108.774 26.4602C108.774 27.6193 108.524 28.642 108.024 29.5284C107.524 30.4148 106.799 31.1051 105.85 31.5994C104.907 32.0937 103.765 32.3409 102.424 32.3409H98.0351V29.3835H101.828C102.538 29.3835 103.123 29.2614 103.583 29.017C104.049 28.767 104.396 28.4233 104.623 27.9858C104.856 27.5426 104.973 27.0341 104.973 26.4602C104.973 25.8807 104.856 25.375 104.623 24.9432C104.396 24.5057 104.049 24.1676 103.583 23.929C103.117 23.6847 102.527 23.5625 101.811 23.5625H99.322V38H95.6317ZM114.484 38.2472C113.649 38.2472 112.904 38.1023 112.251 37.8125C111.598 37.517 111.081 37.0824 110.7 36.5085C110.325 35.929 110.137 35.2074 110.137 34.3438C110.137 33.6165 110.271 33.0057 110.538 32.5114C110.805 32.017 111.169 31.6193 111.629 31.3182C112.089 31.017 112.612 30.7898 113.197 30.6364C113.788 30.483 114.407 30.375 115.055 30.3125C115.816 30.233 116.43 30.1591 116.896 30.0909C117.362 30.017 117.7 29.9091 117.91 29.767C118.12 29.625 118.225 29.4148 118.225 29.1364V29.0852C118.225 28.5455 118.055 28.1278 117.714 27.8324C117.379 27.5369 116.902 27.3892 116.282 27.3892C115.629 27.3892 115.109 27.5341 114.723 27.8239C114.336 28.108 114.081 28.4659 113.956 28.8977L110.598 28.625C110.768 27.8295 111.103 27.142 111.603 26.5625C112.103 25.9773 112.748 25.5284 113.538 25.2159C114.333 24.8977 115.254 24.7386 116.299 24.7386C117.027 24.7386 117.723 24.8239 118.387 24.9943C119.058 25.1648 119.652 25.429 120.169 25.7869C120.691 26.1449 121.103 26.6051 121.404 27.1676C121.706 27.7244 121.856 28.392 121.856 29.1705V38H118.413V36.1847H118.311C118.1 36.5938 117.819 36.9545 117.467 37.267C117.115 37.5739 116.691 37.8153 116.197 37.9915C115.703 38.1619 115.132 38.2472 114.484 38.2472ZM115.524 35.7415C116.058 35.7415 116.529 35.6364 116.938 35.4261C117.348 35.2102 117.669 34.9205 117.902 34.5568C118.135 34.1932 118.251 33.7812 118.251 33.321V31.9318C118.137 32.0057 117.981 32.0739 117.782 32.1364C117.589 32.1932 117.37 32.2472 117.126 32.2983C116.882 32.3437 116.637 32.3864 116.393 32.4261C116.149 32.4602 115.927 32.4915 115.728 32.5199C115.302 32.5824 114.93 32.6818 114.612 32.8182C114.294 32.9545 114.046 33.1392 113.87 33.3722C113.694 33.5994 113.606 33.8835 113.606 34.2244C113.606 34.7188 113.785 35.0966 114.143 35.358C114.507 35.6136 114.967 35.7415 115.524 35.7415ZM126.446 42.9091C125.985 42.9091 125.554 42.8722 125.15 42.7983C124.752 42.7301 124.423 42.642 124.161 42.5341L124.98 39.8239C125.406 39.9545 125.789 40.0256 126.13 40.0369C126.477 40.0483 126.775 39.9688 127.025 39.7983C127.281 39.6278 127.488 39.3381 127.647 38.929L127.86 38.375L123.164 24.9091H126.983L129.693 34.5227H129.829L132.565 24.9091H136.409L131.321 39.4148C131.076 40.1193 130.744 40.733 130.323 41.2557C129.909 41.7841 129.383 42.1903 128.747 42.4744C128.11 42.7642 127.343 42.9091 126.446 42.9091Z" fill="#D9D9D9"/>
<defs>
<filter id="filter0_d_65_9" x="28.4019" y="115.097" width="192.675" height="56.7216" filterUnits="userSpaceOnUse" color-interpolation-filters="sRGB">
<feFlood flood-opacity="0" result="BackgroundImageFix"/>
<feColorMatrix in="SourceAlpha" type="matrix" values="0 0 0 0 0 0 0 0 0 0 0 0 0 0 0 0 0 0 127 0" result="hardAlpha"/>
<feOffset dy="4"/>
<feGaussianBlur stdDeviation="2"/>
<feComposite in2="hardAlpha" operator="out"/>
<feColorMatrix type="matrix" values="0 0 0 0 0 0 0 0 0 0 0 0 0 0 0 0 0 0 0.25 0"/>
<feBlend mode="normal" in2="BackgroundImageFix" result="effect1_dropShadow_65_9"/>
<feBlend mode="normal" in="SourceGraphic" in2="effect1_dropShadow_65_9" result="shape"/>
</filter>
</defs>
</svg>
