<svg width="30" height="30" viewBox="0 0 30 30" fill="none" xmlns="http://www.w3.org/2000/svg">
<path d="M30 11.25V24.375C30 25.8668 29.5259 27.2976 28.682 28.3525C27.8381 29.4074 26.6935 30 25.5 30H4.5C3.30653 30 2.16193 29.4074 1.31802 28.3525C0.474106 27.2976 0 25.8668 0 24.375V11.25H30ZM24 18.75H19.5C19.1022 18.75 18.7206 18.9475 18.4393 19.2992C18.158 19.6508 18 20.1277 18 20.625C18 21.1223 18.158 21.5992 18.4393 21.9508C18.7206 22.3025 19.1022 22.5 19.5 22.5H24C24.3978 22.5 24.7794 22.3025 25.0607 21.9508C25.342 21.5992 25.5 21.1223 25.5 20.625C25.5 20.1277 25.342 19.6508 25.0607 19.2992C24.7794 18.9475 24.3978 18.75 24 18.75ZM25.5 0C26.6935 0 27.8381 0.592632 28.682 1.64752C29.5259 2.70242 30 4.13316 30 5.625V7.5H0V5.625C0 4.13316 0.474106 2.70242 1.31802 1.64752C2.16193 0.592632 3.30653 0 4.5 0H25.5Z" fill="#2992DF"/>
</svg>
