<svg width="23" height="20" viewBox="0 0 23 20" fill="none" xmlns="http://www.w3.org/2000/svg">
<ellipse cx="11.6145" cy="10" rx="11.2048" ry="10" fill="#F4E9FF"/>
<path d="M16.3454 15L12.4237 11.5C12.1125 11.7222 11.7545 11.8981 11.3499 12.0278C10.9453 12.1574 10.5147 12.2222 10.0582 12.2222C8.92738 12.2222 7.97041 11.8726 7.18732 11.1733C6.40422 10.4741 6.01247 9.62 6.01205 8.61111C6.01205 7.60185 6.40381 6.74778 7.18732 6.04889C7.97082 5.35 8.9278 5.00037 10.0582 5C11.1891 5 12.1461 5.34963 12.9292 6.04889C13.7123 6.74815 14.104 7.60222 14.1044 8.61111C14.1044 9.01852 14.0318 9.40278 13.8866 9.76389C13.7413 10.125 13.5442 10.4444 13.2952 10.7222L17.2169 14.2222L16.3454 15ZM10.0582 11.1111C10.8364 11.1111 11.4979 10.868 12.0427 10.3817C12.5876 9.89537 12.8599 9.30519 12.8594 8.61111C12.8594 7.91667 12.587 7.3263 12.0421 6.84C11.4972 6.3537 10.8359 6.11074 10.0582 6.11111C9.28013 6.11111 8.61863 6.35426 8.07374 6.84056C7.52885 7.32685 7.25662 7.91704 7.25703 8.61111C7.25703 9.30556 7.52948 9.89593 8.07436 10.3822C8.61925 10.8685 9.28054 11.1115 10.0582 11.1111Z" fill="#3C0E6A"/>
</svg>
