<svg width="22" height="23" viewBox="0 0 22 23" fill="none" xmlns="http://www.w3.org/2000/svg">
<path d="M8.99184 13.7225L21 1.71429M8.99184 13.7225L12.8126 21.364C12.8605 21.4685 12.9374 21.5571 13.0342 21.6192C13.1309 21.6813 13.2435 21.7143 13.3584 21.7143C13.4734 21.7143 13.586 21.6813 13.6827 21.6192C13.7795 21.5571 13.8564 21.4685 13.9043 21.364L21 1.71429M8.99184 13.7225L1.35028 9.90168C1.24576 9.85378 1.1572 9.77689 1.0951 9.68013C1.03301 9.58337 1 9.47082 1 9.35585C1 9.24088 1.03301 9.12833 1.0951 9.03158C1.1572 8.93482 1.24576 8.85792 1.35028 8.81003L21 1.71429" stroke="#8E8B8B" stroke-width="2" stroke-linecap="round" stroke-linejoin="round"/>
</svg>
