<svg width="18" height="18" viewBox="0 0 18 18" fill="none" xmlns="http://www.w3.org/2000/svg">
<g clip-path="url(#clip0_65_7)">
<path d="M17.9596 0.771723C18.0005 0.669501 18.0105 0.557518 17.9884 0.449657C17.9663 0.341796 17.913 0.242801 17.8351 0.164943C17.7573 0.0870861 17.6583 0.0337909 17.5504 0.011665C17.4425 -0.0104609 17.3306 -0.000444433 17.2283 0.0404726L0.862956 6.58685H0.861831L0.353331 6.78935C0.25702 6.82776 0.173202 6.89206 0.111136 6.97512C0.0490696 7.05818 0.0111708 7.15679 0.00162568 7.26004C-0.00791942 7.36329 0.0112606 7.46716 0.0570472 7.5602C0.102834 7.65323 0.173445 7.7318 0.261081 7.78722L0.722331 8.07972L0.723456 8.08197L6.34283 11.6572L9.91808 17.2766L9.92033 17.2788L10.2128 17.7401C10.2684 17.8274 10.347 17.8977 10.44 17.9432C10.533 17.9887 10.6367 18.0076 10.7397 17.998C10.8428 17.9883 10.9412 17.9504 11.0241 17.8884C11.107 17.8265 11.1712 17.7428 11.2096 17.6467L17.9596 0.771723ZM15.8975 2.89797L7.46671 11.3287L7.22483 10.9485C7.18051 10.8787 7.12136 10.8195 7.05158 10.7752L6.67133 10.5333L15.1021 2.1026L16.4273 1.57272L15.8986 2.89797H15.8975Z" fill="white"/>
</g>
<defs>
<clipPath id="clip0_65_7">
<rect width="18" height="18" fill="white"/>
</clipPath>
</defs>
</svg>
