<svg width="24" height="24" viewBox="0 0 24 24" fill="none" xmlns="http://www.w3.org/2000/svg">
<path d="M23.9463 1.02867C24.0008 0.892382 24.0142 0.743077 23.9847 0.599268C23.9552 0.455458 23.8841 0.323469 23.7803 0.219663C23.6765 0.115856 23.5445 0.0447987 23.4007 0.0152985C23.2569 -0.0142017 23.1076 -0.000846859 22.9713 0.0537072L1.15158 8.7819H1.15008L0.472108 9.05189C0.343698 9.10312 0.231945 9.18884 0.149193 9.29958C0.066441 9.41033 0.0159111 9.54179 0.00318472 9.67946C-0.00954165 9.81712 0.0160309 9.95562 0.0770774 10.0797C0.138124 10.2037 0.232269 10.3085 0.349113 10.3823L0.964091 10.7723L0.965591 10.7753L8.45783 15.5422L13.2247 23.0344L13.2277 23.0374L13.6177 23.6524C13.6918 23.7688 13.7966 23.8625 13.9205 23.9231C14.0445 23.9838 14.1828 24.0091 14.3202 23.9962C14.4576 23.9833 14.5887 23.9328 14.6993 23.8502C14.8098 23.7675 14.8954 23.656 14.9466 23.5279L23.9463 1.02867ZM21.1969 3.86357L9.95628 15.1042L9.63379 14.5972C9.5747 14.5042 9.49583 14.4253 9.4028 14.3662L8.89581 14.0437L20.1364 2.80311L21.9034 2.09664L21.1984 3.86357H21.1969Z" fill="#3AFF98"/>
</svg>
