<svg width="30" height="30" viewBox="0 0 30 30" fill="none" xmlns="http://www.w3.org/2000/svg">
<path d="M23.1824 0.0114349C23.512 0.0114464 23.8304 0.109837 24.0788 0.288411C24.3272 0.466984 24.4887 0.713661 24.5336 0.982822L24.5463 1.13573V2.25852H25.9083C26.9935 2.25852 28.0343 2.61387 28.8016 3.24641C29.5689 3.87894 30 4.73685 30 5.63139V20.9982H23.1733L22.8933 21.0057C21.9094 21.0614 20.983 21.4082 20.2847 21.9822C19.5863 22.5562 19.163 23.3188 19.0926 24.1297L19.0817 24.3711V30H4.09529C3.01012 30 1.96939 29.6446 1.20205 29.0121C0.43472 28.3796 0.00363676 27.5217 0.00363676 26.6271L0 5.63289C0 4.73835 0.431084 3.88044 1.19842 3.24791C1.96575 2.61537 3.00648 2.26002 4.09165 2.26002L5.45008 2.25852L5.4519 1.13573C5.45201 0.85087 5.58328 0.576667 5.81919 0.368522C6.0551 0.160377 6.37807 0.0338099 6.72282 0.0143942C7.06758 -0.00502151 7.40842 0.0841619 7.67649 0.263924C7.94455 0.443687 8.11984 0.700625 8.16694 0.982822L8.17967 1.13573V2.25852H13.6352V1.13573C13.6317 0.848841 13.7613 0.571696 13.9976 0.361039C14.2339 0.150383 14.5589 0.022155 14.9061 0.00261299C15.2534 -0.016929 15.5965 0.0736937 15.8653 0.255924C16.1341 0.438154 16.3083 0.698203 16.3521 0.982822L16.3648 1.13573V2.25852H21.8149L21.8167 1.13573C21.8167 0.837545 21.9604 0.551577 22.2162 0.340732C22.4719 0.129886 22.8207 0.0114349 23.1824 0.0114349ZM29.2017 23.2468L21.8076 29.3404L21.8094 24.3711L21.8221 24.2182C21.8626 23.9751 21.9985 23.7496 22.2089 23.5761C22.4194 23.4026 22.6929 23.2906 22.9878 23.2573L23.1733 23.2468H29.2017ZM14.0844 20.9982H6.81578L6.6303 21.0087C6.30385 21.0457 6.00471 21.1789 5.78816 21.3836C5.57162 21.5884 5.45232 21.8508 5.45232 22.1225C5.45232 22.3941 5.57162 22.6566 5.78816 22.8613C6.00471 23.066 6.30385 23.1992 6.6303 23.2363L6.81578 23.2468H14.0862L14.2717 23.2363C14.5981 23.1992 14.8973 23.066 15.1138 22.8613C15.3304 22.6566 15.4497 22.3941 15.4497 22.1225C15.4497 21.8508 15.3304 21.5884 15.1138 21.3836C14.8973 21.1789 14.5981 21.0457 14.2717 21.0087L14.0862 20.9982H14.0844ZM23.1769 15.002H6.81578L6.6303 15.0125C6.30385 15.0495 6.00471 15.1827 5.78816 15.3874C5.57162 15.5922 5.45232 15.8546 5.45232 16.1263C5.45232 16.3979 5.57162 16.6603 5.78816 16.8651C6.00471 17.0698 6.30385 17.203 6.6303 17.2401L6.81578 17.2506H23.1788L23.3642 17.2401C23.6907 17.203 23.9898 17.0698 24.2064 16.8651C24.4229 16.6603 24.5422 16.3979 24.5422 16.1263C24.5422 15.8546 24.4229 15.5922 24.2064 15.3874C23.9898 15.1827 23.6907 15.0495 23.3642 15.0125L23.1769 15.002ZM23.1769 9.00576H6.81578L6.6303 9.01625C6.30385 9.05328 6.00471 9.18647 5.78816 9.39122C5.57162 9.59597 5.45232 9.85841 5.45232 10.13C5.45232 10.4017 5.57162 10.6641 5.78816 10.8689C6.00471 11.0736 6.30385 11.2068 6.6303 11.2438L6.81578 11.2543H23.1788L23.3642 11.2438C23.6907 11.2068 23.9898 11.0736 24.2064 10.8689C24.4229 10.6641 24.5422 10.4017 24.5422 10.13C24.5422 9.85841 24.4229 9.59597 24.2064 9.39122C23.9898 9.18647 23.6907 9.05328 23.3642 9.01625L23.1769 9.00576Z" fill="#BD7306"/>
</svg>
