<svg width="40" height="40" viewBox="0 0 40 40" fill="none" xmlns="http://www.w3.org/2000/svg">
<path d="M0 0H40V40H0V0Z" fill="#212020"/>
<path d="M23.3 24.7L24.7 23.3L21 19.6V15H19V20.4L23.3 24.7ZM20 30C18.6167 30 17.3167 29.7373 16.1 29.212C14.8833 28.6867 13.825 27.9743 12.925 27.075C12.025 26.175 11.3127 25.1167 10.788 23.9C10.2633 22.6833 10.0007 21.3833 10 20C10 18.6167 10.2627 17.3167 10.788 16.1C11.3133 14.8833 12.0257 13.825 12.925 12.925C13.825 12.025 14.8833 11.3127 16.1 10.788C17.3167 10.2633 18.6167 10.0007 20 10C21.3833 10 22.6833 10.2627 23.9 10.788C25.1167 11.3133 26.175 12.0257 27.075 12.925C27.975 13.825 28.6877 14.8833 29.213 16.1C29.7383 17.3167 30.0007 18.6167 30 20C30 21.3833 29.7373 22.6833 29.212 23.9C28.6867 25.1167 27.9743 26.175 27.075 27.075C26.175 27.975 25.1167 28.6877 23.9 29.213C22.6833 29.7383 21.3833 30.0007 20 30ZM20 28C22.2167 28 24.1043 27.221 25.663 25.663C27.2217 24.105 28.0007 22.2173 28 20C28 17.7833 27.221 15.8957 25.663 14.337C24.105 12.7783 22.2173 11.9993 20 12C17.7833 12 15.8957 12.779 14.337 14.337C12.7783 15.895 11.9993 17.7827 12 20C12 22.2167 12.779 24.1043 14.337 25.663C15.895 27.2217 17.7827 28.0007 20 28Z" fill="#224E91"/>
</svg>
