<svg width="240" height="342" viewBox="0 0 240 342" fill="none" xmlns="http://www.w3.org/2000/svg">
<mask id="path-1-inside-1_42_25" fill="white">
<path d="M7 5C7 2.23858 9.23858 0 12 0H230C232.761 0 235 2.23858 235 5V337C235 339.761 232.761 342 230 342H12C9.23857 342 7 339.761 7 337V5Z"/>
</mask>
<path d="M7 5C7 2.23858 9.23858 0 12 0H230C232.761 0 235 2.23858 235 5V337C235 339.761 232.761 342 230 342H12C9.23857 342 7 339.761 7 337V5Z" fill="#E2C5FF"/>
<path d="M7 0H235H7ZM235 337C235 340.866 231.866 344 228 344H14C10.134 344 7 340.866 7 337C7 338.657 9.23858 340 12 340H230C232.761 340 235 338.657 235 337ZM7 342V0V342ZM235 0V342V0Z" fill="#A6A6A6" mask="url(#path-1-inside-1_42_25)"/>
<path opacity="0.5" d="M49.4872 96.1307C49.3509 94.7557 48.7656 93.6875 47.7315 92.9261C46.6974 92.1648 45.294 91.7841 43.5213 91.7841C42.3168 91.7841 41.2997 91.9545 40.4702 92.2955C39.6406 92.625 39.0043 93.0852 38.5611 93.6761C38.1293 94.267 37.9134 94.9375 37.9134 95.6875C37.8906 96.3125 38.0213 96.858 38.3054 97.3239C38.6009 97.7898 39.0043 98.1932 39.5156 98.5341C40.027 98.8636 40.6179 99.1534 41.2884 99.4034C41.9588 99.642 42.6747 99.8466 43.4361 100.017L46.5724 100.767C48.0952 101.108 49.4929 101.562 50.7656 102.131C52.0384 102.699 53.1406 103.398 54.0724 104.227C55.0043 105.057 55.7259 106.034 56.2372 107.159C56.7599 108.284 57.027 109.574 57.0384 111.028C57.027 113.165 56.4815 115.017 55.402 116.585C54.3338 118.142 52.7884 119.352 50.7656 120.216C48.7543 121.068 46.3281 121.494 43.4872 121.494C40.669 121.494 38.2145 121.062 36.1236 120.199C34.044 119.335 32.419 118.057 31.2486 116.364C30.0895 114.659 29.4815 112.551 29.4247 110.04H36.5668C36.6463 111.21 36.9815 112.187 37.5724 112.972C38.1747 113.744 38.9759 114.33 39.9759 114.727C40.9872 115.114 42.1293 115.307 43.402 115.307C44.652 115.307 45.7372 115.125 46.6577 114.761C47.5895 114.398 48.3111 113.892 48.8224 113.244C49.3338 112.597 49.5895 111.852 49.5895 111.011C49.5895 110.227 49.3565 109.568 48.8906 109.034C48.4361 108.5 47.7656 108.045 46.8793 107.67C46.0043 107.295 44.9304 106.955 43.6577 106.648L39.8565 105.693C36.9134 104.977 34.5895 103.858 32.8849 102.335C31.1804 100.812 30.3338 98.7614 30.3452 96.1818C30.3338 94.0682 30.8963 92.2216 32.0327 90.642C33.1804 89.0625 34.7543 87.8295 36.7543 86.9432C38.7543 86.0568 41.027 85.6136 43.5724 85.6136C46.1634 85.6136 48.4247 86.0568 50.3565 86.9432C52.2997 87.8295 53.8111 89.0625 54.8906 90.642C55.9702 92.2216 56.527 94.0511 56.5611 96.1307H49.4872ZM69.3324 121.494C67.6619 121.494 66.1733 121.205 64.8665 120.625C63.5597 120.034 62.5256 119.165 61.7642 118.017C61.0142 116.858 60.6392 115.415 60.6392 113.688C60.6392 112.233 60.9063 111.011 61.4403 110.023C61.9744 109.034 62.7017 108.239 63.6222 107.636C64.5426 107.034 65.5881 106.58 66.7585 106.273C67.9403 105.966 69.179 105.75 70.4744 105.625C71.9972 105.466 73.2244 105.318 74.1562 105.182C75.0881 105.034 75.7642 104.818 76.1847 104.534C76.6051 104.25 76.8153 103.83 76.8153 103.273V103.17C76.8153 102.091 76.4744 101.256 75.7926 100.665C75.1222 100.074 74.1676 99.7784 72.929 99.7784C71.6222 99.7784 70.5824 100.068 69.8097 100.648C69.0369 101.216 68.5256 101.932 68.2756 102.795L61.5597 102.25C61.9006 100.659 62.571 99.2841 63.571 98.125C64.571 96.9545 65.8608 96.0568 67.4403 95.4318C69.0313 94.7955 70.8722 94.4773 72.9631 94.4773C74.4176 94.4773 75.8097 94.6477 77.1392 94.9886C78.4801 95.3295 79.6676 95.858 80.7017 96.5739C81.7472 97.2898 82.571 98.2102 83.1733 99.3352C83.7756 100.449 84.0767 101.784 84.0767 103.341V121H77.1903V117.369H76.9858C76.5653 118.188 76.0028 118.909 75.2983 119.534C74.5938 120.148 73.7472 120.631 72.7585 120.983C71.7699 121.324 70.6278 121.494 69.3324 121.494ZM71.4119 116.483C72.4801 116.483 73.4233 116.273 74.2415 115.852C75.0597 115.42 75.7017 114.841 76.1676 114.114C76.6335 113.386 76.8665 112.562 76.8665 111.642V108.864C76.6392 109.011 76.3267 109.148 75.929 109.273C75.5426 109.386 75.1051 109.494 74.6165 109.597C74.1278 109.687 73.6392 109.773 73.1506 109.852C72.6619 109.92 72.2188 109.983 71.821 110.04C70.9688 110.165 70.2244 110.364 69.5881 110.636C68.9517 110.909 68.4574 111.278 68.1051 111.744C67.7528 112.199 67.5767 112.767 67.5767 113.449C67.5767 114.438 67.9347 115.193 68.6506 115.716C69.3778 116.227 70.2983 116.483 71.4119 116.483ZM113.182 94.8182L104.028 121H95.8466L86.6932 94.8182H94.3636L99.8011 113.551H100.074L105.494 94.8182H113.182ZM116.898 121V94.8182H124.159V121H116.898ZM120.545 91.4432C119.466 91.4432 118.54 91.0852 117.767 90.3693C117.006 89.642 116.625 88.7727 116.625 87.7614C116.625 86.7614 117.006 85.9034 117.767 85.1875C118.54 84.4602 119.466 84.0966 120.545 84.0966C121.625 84.0966 122.545 84.4602 123.307 85.1875C124.08 85.9034 124.466 86.7614 124.466 87.7614C124.466 88.7727 124.08 89.642 123.307 90.3693C122.545 91.0852 121.625 91.4432 120.545 91.4432ZM130.112 121V86.0909H143.885C146.533 86.0909 148.788 86.5966 150.652 87.608C152.516 88.608 153.936 90 154.913 91.7841C155.902 93.5568 156.396 95.6023 156.396 97.9205C156.396 100.239 155.896 102.284 154.896 104.057C153.896 105.83 152.447 107.21 150.55 108.199C148.663 109.187 146.379 109.682 143.697 109.682H134.919V103.767H142.504C143.925 103.767 145.095 103.523 146.016 103.034C146.947 102.534 147.641 101.847 148.095 100.972C148.561 100.085 148.794 99.0682 148.794 97.9205C148.794 96.7614 148.561 95.75 148.095 94.8864C147.641 94.0114 146.947 93.3352 146.016 92.858C145.084 92.3693 143.902 92.125 142.47 92.125H137.493V121H130.112ZM167.817 121.494C166.146 121.494 164.658 121.205 163.351 120.625C162.044 120.034 161.01 119.165 160.249 118.017C159.499 116.858 159.124 115.415 159.124 113.688C159.124 112.233 159.391 111.011 159.925 110.023C160.459 109.034 161.186 108.239 162.107 107.636C163.027 107.034 164.072 106.58 165.243 106.273C166.425 105.966 167.663 105.75 168.959 105.625C170.482 105.466 171.709 105.318 172.641 105.182C173.572 105.034 174.249 104.818 174.669 104.534C175.089 104.25 175.3 103.83 175.3 103.273V103.17C175.3 102.091 174.959 101.256 174.277 100.665C173.607 100.074 172.652 99.7784 171.413 99.7784C170.107 99.7784 169.067 100.068 168.294 100.648C167.521 101.216 167.01 101.932 166.76 102.795L160.044 102.25C160.385 100.659 161.055 99.2841 162.055 98.125C163.055 96.9545 164.345 96.0568 165.925 95.4318C167.516 94.7955 169.357 94.4773 171.447 94.4773C172.902 94.4773 174.294 94.6477 175.624 94.9886C176.964 95.3295 178.152 95.858 179.186 96.5739C180.232 97.2898 181.055 98.2102 181.658 99.3352C182.26 100.449 182.561 101.784 182.561 103.341V121H175.675V117.369H175.47C175.05 118.188 174.487 118.909 173.783 119.534C173.078 120.148 172.232 120.631 171.243 120.983C170.254 121.324 169.112 121.494 167.817 121.494ZM169.896 116.483C170.964 116.483 171.908 116.273 172.726 115.852C173.544 115.42 174.186 114.841 174.652 114.114C175.118 113.386 175.351 112.562 175.351 111.642V108.864C175.124 109.011 174.811 109.148 174.413 109.273C174.027 109.386 173.589 109.494 173.101 109.597C172.612 109.687 172.124 109.773 171.635 109.852C171.146 109.92 170.703 109.983 170.305 110.04C169.453 110.165 168.709 110.364 168.072 110.636C167.436 110.909 166.942 111.278 166.589 111.744C166.237 112.199 166.061 112.767 166.061 113.449C166.061 114.438 166.419 115.193 167.135 115.716C167.862 116.227 168.783 116.483 169.896 116.483ZM191.74 130.818C190.82 130.818 189.956 130.744 189.149 130.597C188.354 130.46 187.695 130.284 187.172 130.068L188.808 124.648C189.661 124.909 190.428 125.051 191.109 125.074C191.803 125.097 192.399 124.938 192.899 124.597C193.411 124.256 193.825 123.676 194.143 122.858L194.57 121.75L185.178 94.8182H192.814L198.234 114.045H198.507L203.979 94.8182H211.666L201.49 123.83C201.001 125.239 200.337 126.466 199.496 127.511C198.666 128.568 197.615 129.381 196.342 129.949C195.07 130.528 193.536 130.818 191.74 130.818Z" fill="#D9D9D9"/>
<mask id="path-4-inside-2_42_25" fill="white">
<path d="M164.406 292.672V293.438C163.927 293.521 163.562 293.625 163.312 293.75C163.062 293.875 162.875 294.052 162.75 294.281C162.625 294.51 162.562 294.818 162.562 295.203C162.562 295.557 162.604 295.943 162.688 296.359C162.771 296.766 162.891 297.224 163.047 297.734L166.703 310.484L171.188 297.641C171.25 297.443 171.312 297.234 171.375 297.016C171.438 296.797 171.49 296.583 171.531 296.375C171.583 296.167 171.615 295.984 171.625 295.828C171.646 295.672 171.656 295.526 171.656 295.391C171.656 294.766 171.51 294.312 171.219 294.031C170.938 293.74 170.453 293.542 169.766 293.438V292.672H176.328V293.438C175.901 293.542 175.557 293.693 175.297 293.891C175.036 294.089 174.776 294.406 174.516 294.844C174.266 295.281 173.958 295.979 173.594 296.938L167.109 314.25H165.062L159.797 296.828C159.516 295.88 159.271 295.208 159.062 294.812C158.854 294.406 158.625 294.104 158.375 293.906C158.125 293.698 157.781 293.542 157.344 293.438V292.672H164.406ZM182.969 310.094C182.969 310.792 182.99 311.302 183.031 311.625C183.083 311.948 183.161 312.203 183.266 312.391C183.38 312.578 183.542 312.734 183.75 312.859C183.969 312.984 184.318 313.109 184.797 313.234V314H178.203V313.234C178.849 313.068 179.281 312.885 179.5 312.688C179.719 312.479 179.859 312.188 179.922 311.812C179.995 311.438 180.031 310.865 180.031 310.094V296.578C180.031 295.859 180.005 295.339 179.953 295.016C179.901 294.682 179.812 294.427 179.688 294.25C179.573 294.062 179.417 293.917 179.219 293.812C179.021 293.698 178.682 293.573 178.203 293.438V292.672H184.797V293.438C184.339 293.552 184.005 293.667 183.797 293.781C183.599 293.896 183.438 294.042 183.312 294.219C183.198 294.385 183.109 294.641 183.047 294.984C182.995 295.328 182.969 295.859 182.969 296.578V310.094ZM190 309.141C190.208 310.057 190.49 310.781 190.844 311.312C191.198 311.844 191.656 312.24 192.219 312.5C192.781 312.75 193.505 312.875 194.391 312.875C195.609 312.875 196.542 312.557 197.188 311.922C197.844 311.286 198.172 310.359 198.172 309.141C198.172 308.359 198.036 307.703 197.766 307.172C197.495 306.641 197.052 306.141 196.438 305.672C195.823 305.203 194.885 304.656 193.625 304.031C192.406 303.427 191.443 302.839 190.734 302.266C190.026 301.682 189.495 301.052 189.141 300.375C188.797 299.698 188.625 298.958 188.625 298.156C188.625 296.99 188.896 295.979 189.438 295.125C189.99 294.26 190.792 293.594 191.844 293.125C192.906 292.656 194.12 292.422 195.484 292.422C196.276 292.422 197.047 292.464 197.797 292.547C198.557 292.63 199.505 292.818 200.641 293.109V297.328H199.094C198.854 296.411 198.552 295.698 198.188 295.188C197.823 294.677 197.396 294.323 196.906 294.125C196.417 293.917 195.781 293.812 195 293.812C194.323 293.812 193.714 293.938 193.172 294.188C192.641 294.438 192.219 294.818 191.906 295.328C191.594 295.828 191.438 296.427 191.438 297.125C191.438 297.865 191.568 298.49 191.828 299C192.099 299.51 192.516 299.984 193.078 300.422C193.641 300.859 194.474 301.349 195.578 301.891C196.911 302.557 197.943 303.177 198.672 303.75C199.411 304.323 199.984 304.979 200.391 305.719C200.807 306.448 201.016 307.302 201.016 308.281C201.016 309.375 200.844 310.302 200.5 311.062C200.156 311.812 199.677 312.427 199.062 312.906C198.458 313.375 197.729 313.719 196.875 313.938C196.031 314.146 195.104 314.25 194.094 314.25C192.458 314.25 190.573 313.974 188.438 313.422V309.141H190ZM214.719 314V313.234C215.24 313.13 215.625 313.016 215.875 312.891C216.135 312.766 216.328 312.594 216.453 312.375C216.578 312.146 216.641 311.844 216.641 311.469C216.641 311.115 216.599 310.734 216.516 310.328C216.432 309.911 216.312 309.448 216.156 308.938L215.578 306.922H208.297L207.766 308.453C207.495 309.224 207.318 309.807 207.234 310.203C207.151 310.599 207.109 310.958 207.109 311.281C207.109 311.906 207.266 312.365 207.578 312.656C207.901 312.948 208.391 313.141 209.047 313.234V314H202.375V313.234C202.958 313.141 203.464 312.802 203.891 312.219C204.328 311.635 204.75 310.802 205.156 309.719L211.672 292.422H214.141L219.453 309.844C219.703 310.656 219.922 311.276 220.109 311.703C220.307 312.13 220.542 312.464 220.812 312.703C221.083 312.943 221.453 313.12 221.922 313.234V314H214.719ZM208.719 305.562H215.25L212.281 295.484L208.719 305.562Z"/>
</mask>
<path d="M164.406 292.672V293.438C163.927 293.521 163.562 293.625 163.312 293.75C163.062 293.875 162.875 294.052 162.75 294.281C162.625 294.51 162.562 294.818 162.562 295.203C162.562 295.557 162.604 295.943 162.688 296.359C162.771 296.766 162.891 297.224 163.047 297.734L166.703 310.484L171.188 297.641C171.25 297.443 171.312 297.234 171.375 297.016C171.438 296.797 171.49 296.583 171.531 296.375C171.583 296.167 171.615 295.984 171.625 295.828C171.646 295.672 171.656 295.526 171.656 295.391C171.656 294.766 171.51 294.312 171.219 294.031C170.938 293.74 170.453 293.542 169.766 293.438V292.672H176.328V293.438C175.901 293.542 175.557 293.693 175.297 293.891C175.036 294.089 174.776 294.406 174.516 294.844C174.266 295.281 173.958 295.979 173.594 296.938L167.109 314.25H165.062L159.797 296.828C159.516 295.88 159.271 295.208 159.062 294.812C158.854 294.406 158.625 294.104 158.375 293.906C158.125 293.698 157.781 293.542 157.344 293.438V292.672H164.406ZM182.969 310.094C182.969 310.792 182.99 311.302 183.031 311.625C183.083 311.948 183.161 312.203 183.266 312.391C183.38 312.578 183.542 312.734 183.75 312.859C183.969 312.984 184.318 313.109 184.797 313.234V314H178.203V313.234C178.849 313.068 179.281 312.885 179.5 312.688C179.719 312.479 179.859 312.188 179.922 311.812C179.995 311.438 180.031 310.865 180.031 310.094V296.578C180.031 295.859 180.005 295.339 179.953 295.016C179.901 294.682 179.812 294.427 179.688 294.25C179.573 294.062 179.417 293.917 179.219 293.812C179.021 293.698 178.682 293.573 178.203 293.438V292.672H184.797V293.438C184.339 293.552 184.005 293.667 183.797 293.781C183.599 293.896 183.438 294.042 183.312 294.219C183.198 294.385 183.109 294.641 183.047 294.984C182.995 295.328 182.969 295.859 182.969 296.578V310.094ZM190 309.141C190.208 310.057 190.49 310.781 190.844 311.312C191.198 311.844 191.656 312.24 192.219 312.5C192.781 312.75 193.505 312.875 194.391 312.875C195.609 312.875 196.542 312.557 197.188 311.922C197.844 311.286 198.172 310.359 198.172 309.141C198.172 308.359 198.036 307.703 197.766 307.172C197.495 306.641 197.052 306.141 196.438 305.672C195.823 305.203 194.885 304.656 193.625 304.031C192.406 303.427 191.443 302.839 190.734 302.266C190.026 301.682 189.495 301.052 189.141 300.375C188.797 299.698 188.625 298.958 188.625 298.156C188.625 296.99 188.896 295.979 189.438 295.125C189.99 294.26 190.792 293.594 191.844 293.125C192.906 292.656 194.12 292.422 195.484 292.422C196.276 292.422 197.047 292.464 197.797 292.547C198.557 292.63 199.505 292.818 200.641 293.109V297.328H199.094C198.854 296.411 198.552 295.698 198.188 295.188C197.823 294.677 197.396 294.323 196.906 294.125C196.417 293.917 195.781 293.812 195 293.812C194.323 293.812 193.714 293.938 193.172 294.188C192.641 294.438 192.219 294.818 191.906 295.328C191.594 295.828 191.438 296.427 191.438 297.125C191.438 297.865 191.568 298.49 191.828 299C192.099 299.51 192.516 299.984 193.078 300.422C193.641 300.859 194.474 301.349 195.578 301.891C196.911 302.557 197.943 303.177 198.672 303.75C199.411 304.323 199.984 304.979 200.391 305.719C200.807 306.448 201.016 307.302 201.016 308.281C201.016 309.375 200.844 310.302 200.5 311.062C200.156 311.812 199.677 312.427 199.062 312.906C198.458 313.375 197.729 313.719 196.875 313.938C196.031 314.146 195.104 314.25 194.094 314.25C192.458 314.25 190.573 313.974 188.438 313.422V309.141H190ZM214.719 314V313.234C215.24 313.13 215.625 313.016 215.875 312.891C216.135 312.766 216.328 312.594 216.453 312.375C216.578 312.146 216.641 311.844 216.641 311.469C216.641 311.115 216.599 310.734 216.516 310.328C216.432 309.911 216.312 309.448 216.156 308.938L215.578 306.922H208.297L207.766 308.453C207.495 309.224 207.318 309.807 207.234 310.203C207.151 310.599 207.109 310.958 207.109 311.281C207.109 311.906 207.266 312.365 207.578 312.656C207.901 312.948 208.391 313.141 209.047 313.234V314H202.375V313.234C202.958 313.141 203.464 312.802 203.891 312.219C204.328 311.635 204.75 310.802 205.156 309.719L211.672 292.422H214.141L219.453 309.844C219.703 310.656 219.922 311.276 220.109 311.703C220.307 312.13 220.542 312.464 220.812 312.703C221.083 312.943 221.453 313.12 221.922 313.234V314H214.719ZM208.719 305.562H215.25L212.281 295.484L208.719 305.562Z" fill="#49187A" fill-opacity="0.5"/>
<path d="M164.406 292.672H165.406V291.672H164.406V292.672ZM164.406 293.438L164.578 294.423L165.406 294.279V293.438H164.406ZM162.688 296.359L161.707 296.555L161.708 296.56L162.688 296.359ZM163.047 297.734L164.008 297.459L164.006 297.45L164.003 297.442L163.047 297.734ZM166.703 310.484L165.742 310.76L166.61 313.786L167.647 310.814L166.703 310.484ZM171.188 297.641L172.132 297.97L172.137 297.956L172.141 297.942L171.188 297.641ZM171.531 296.375L170.561 296.132L170.555 296.156L170.551 296.179L171.531 296.375ZM171.625 295.828L170.634 295.696L170.629 295.729L170.627 295.762L171.625 295.828ZM171.219 294.031L170.499 294.725L170.512 294.738L170.525 294.751L171.219 294.031ZM169.766 293.438H168.766V294.297L169.616 294.426L169.766 293.438ZM169.766 292.672V291.672H168.766V292.672H169.766ZM176.328 292.672H177.328V291.672H176.328V292.672ZM176.328 293.438L176.565 294.409L177.328 294.223V293.438H176.328ZM174.516 294.844L173.656 294.332L173.652 294.34L173.647 294.348L174.516 294.844ZM173.594 296.938L172.659 296.582L172.657 296.587L173.594 296.938ZM167.109 314.25V315.25H167.803L168.046 314.601L167.109 314.25ZM165.062 314.25L164.105 314.539L164.32 315.25H165.062V314.25ZM159.797 296.828L158.838 297.113L158.84 297.117L159.797 296.828ZM159.062 294.812L158.173 295.269L158.178 295.278L159.062 294.812ZM158.375 293.906L157.735 294.674L157.744 294.683L157.754 294.69L158.375 293.906ZM157.344 293.438H156.344V294.227L157.112 294.41L157.344 293.438ZM157.344 292.672V291.672H156.344V292.672H157.344ZM163.406 292.672V293.438H165.406V292.672H163.406ZM164.235 292.452C163.72 292.542 163.244 292.666 162.865 292.856L163.76 294.644C163.881 294.584 164.135 294.5 164.578 294.423L164.235 292.452ZM162.865 292.856C162.446 293.065 162.102 293.381 161.872 293.802L163.628 294.76C163.648 294.723 163.679 294.685 163.76 294.644L162.865 292.856ZM161.872 293.802C161.638 294.232 161.562 294.724 161.562 295.203H163.562C163.562 294.911 163.612 294.789 163.628 294.76L161.872 293.802ZM161.562 295.203C161.562 295.635 161.613 296.087 161.707 296.555L163.668 296.163C163.595 295.799 163.562 295.48 163.562 295.203H161.562ZM161.708 296.56C161.799 297.005 161.928 297.495 162.091 298.027L164.003 297.442C163.854 296.953 163.743 296.526 163.667 296.158L161.708 296.56ZM162.086 298.01L165.742 310.76L167.664 310.209L164.008 297.459L162.086 298.01ZM167.647 310.814L172.132 297.97L170.243 297.311L165.759 310.155L167.647 310.814ZM172.141 297.942C172.207 297.734 172.272 297.517 172.337 297.29L170.413 296.741C170.353 296.952 170.293 297.151 170.234 297.339L172.141 297.942ZM172.337 297.29C172.406 297.047 172.465 296.808 172.512 296.571L170.551 296.179C170.515 296.359 170.469 296.546 170.413 296.741L172.337 297.29ZM172.501 296.618C172.563 296.371 172.607 296.128 172.623 295.895L170.627 295.762C170.622 295.841 170.604 295.962 170.561 296.132L172.501 296.618ZM172.616 295.96C172.642 295.767 172.656 295.577 172.656 295.391H170.656C170.656 295.475 170.65 295.577 170.634 295.696L172.616 295.96ZM172.656 295.391C172.656 294.639 172.484 293.862 171.913 293.311L170.525 294.751C170.537 294.763 170.656 294.892 170.656 295.391H172.656ZM171.939 293.337C171.429 292.809 170.68 292.565 169.915 292.449L169.616 294.426C170.226 294.519 170.446 294.67 170.499 294.725L171.939 293.337ZM170.766 293.438V292.672H168.766V293.438H170.766ZM169.766 293.672H176.328V291.672H169.766V293.672ZM175.328 292.672V293.438H177.328V292.672H175.328ZM176.091 292.466C175.574 292.592 175.092 292.79 174.692 293.094L175.902 294.687C176.022 294.595 176.228 294.491 176.565 294.409L176.091 292.466ZM174.692 293.094C174.288 293.401 173.95 293.839 173.656 294.332L175.375 295.355C175.602 294.973 175.785 294.776 175.902 294.687L174.692 293.094ZM173.647 294.348C173.357 294.856 173.027 295.614 172.659 296.582L174.528 297.293C174.889 296.344 175.174 295.707 175.384 295.34L173.647 294.348ZM172.657 296.587L166.173 313.899L168.046 314.601L174.53 297.288L172.657 296.587ZM167.109 313.25H165.062V315.25H167.109V313.25ZM166.02 313.961L160.754 296.539L158.84 297.117L164.105 314.539L166.02 313.961ZM160.756 296.544C160.472 295.59 160.205 294.836 159.947 294.347L158.178 295.278C158.337 295.581 158.559 296.171 158.838 297.113L160.756 296.544ZM159.952 294.356C159.705 293.874 159.395 293.439 158.996 293.122L157.754 294.69C157.855 294.77 158.003 294.939 158.173 295.269L159.952 294.356ZM159.015 293.138C158.61 292.801 158.109 292.592 157.575 292.465L157.112 294.41C157.454 294.492 157.64 294.595 157.735 294.674L159.015 293.138ZM158.344 293.438V292.672H156.344V293.438H158.344ZM157.344 293.672H164.406V291.672H157.344V293.672ZM183.031 311.625L182.039 311.753L182.041 311.769L182.044 311.784L183.031 311.625ZM183.266 312.391L182.391 312.876L182.402 312.894L182.412 312.912L183.266 312.391ZM183.75 312.859L183.236 313.717L183.245 313.722L183.254 313.728L183.75 312.859ZM184.797 313.234H185.797V312.462L185.049 312.267L184.797 313.234ZM184.797 314V315H185.797V314H184.797ZM178.203 314H177.203V315H178.203V314ZM178.203 313.234L177.953 312.266L177.203 312.46V313.234H178.203ZM179.5 312.688L180.171 313.429L180.18 313.42L180.19 313.412L179.5 312.688ZM179.922 311.812L178.94 311.622L178.938 311.635L178.935 311.648L179.922 311.812ZM179.953 295.016L178.965 295.17L178.966 295.175L179.953 295.016ZM179.688 294.25L178.834 294.771L178.851 294.8L178.871 294.827L179.688 294.25ZM179.219 293.812L178.718 294.678L178.735 294.688L178.753 294.697L179.219 293.812ZM178.203 293.438H177.203V294.194L177.931 294.4L178.203 293.438ZM178.203 292.672V291.672H177.203V292.672H178.203ZM184.797 292.672H185.797V291.672H184.797V292.672ZM184.797 293.438L185.039 294.408L185.797 294.218V293.438H184.797ZM183.797 293.781L183.315 292.905L183.305 292.91L183.296 292.916L183.797 293.781ZM183.312 294.219L182.495 293.642L182.488 293.652L183.312 294.219ZM183.047 294.984L182.063 294.805L182.06 294.82L182.058 294.835L183.047 294.984ZM181.969 310.094C181.969 310.798 181.989 311.362 182.039 311.753L184.023 311.497C183.99 311.242 183.969 310.786 183.969 310.094H181.969ZM182.044 311.784C182.106 312.168 182.209 312.549 182.391 312.876L184.14 311.905C184.113 311.858 184.061 311.728 184.018 311.466L182.044 311.784ZM182.412 312.912C182.62 313.251 182.904 313.518 183.236 313.717L184.264 312.002C184.18 311.951 184.141 311.905 184.119 311.869L182.412 312.912ZM183.254 313.728C183.591 313.92 184.045 314.072 184.544 314.202L185.049 312.267C184.59 312.147 184.346 312.048 184.246 311.991L183.254 313.728ZM183.797 313.234V314H185.797V313.234H183.797ZM184.797 313H178.203V315H184.797V313ZM179.203 314V313.234H177.203V314H179.203ZM178.453 314.203C179.105 314.034 179.754 313.806 180.171 313.429L178.829 311.946C178.837 311.938 178.789 311.981 178.623 312.051C178.466 312.117 178.247 312.19 177.953 312.266L178.453 314.203ZM180.19 313.412C180.602 313.019 180.819 312.51 180.908 311.977L178.935 311.648C178.899 311.865 178.835 311.939 178.81 311.963L180.19 313.412ZM180.903 312.003C180.996 311.53 181.031 310.878 181.031 310.094H179.031C179.031 310.851 178.994 311.345 178.94 311.622L180.903 312.003ZM181.031 310.094V296.578H179.031V310.094H181.031ZM181.031 296.578C181.031 295.854 181.006 295.264 180.94 294.856L178.966 295.175C179.004 295.413 179.031 295.865 179.031 296.578H181.031ZM180.941 294.861C180.877 294.452 180.754 294.027 180.504 293.673L178.871 294.827C178.868 294.823 178.882 294.842 178.903 294.902C178.923 294.961 178.946 295.048 178.965 295.17L180.941 294.861ZM180.541 293.729C180.33 293.384 180.039 293.114 179.684 292.928L178.753 294.697C178.794 294.719 178.815 294.741 178.834 294.771L180.541 293.729ZM179.72 292.947C179.406 292.765 178.963 292.613 178.475 292.475L177.931 294.4C178.401 294.533 178.636 294.63 178.718 294.678L179.72 292.947ZM179.203 293.438V292.672H177.203V293.438H179.203ZM178.203 293.672H184.797V291.672H178.203V293.672ZM183.797 292.672V293.438H185.797V292.672H183.797ZM184.554 292.467C184.078 292.587 183.641 292.726 183.315 292.905L184.279 294.657C184.37 294.608 184.6 294.518 185.039 294.408L184.554 292.467ZM183.296 292.916C182.98 293.099 182.708 293.341 182.496 293.642L184.129 294.795C184.167 294.743 184.218 294.693 184.298 294.647L183.296 292.916ZM182.488 293.652C182.256 293.991 182.135 294.409 182.063 294.805L184.031 295.163C184.055 295.028 184.082 294.93 184.105 294.863C184.129 294.794 184.144 294.775 184.137 294.785L182.488 293.652ZM182.058 294.835C181.994 295.257 181.969 295.85 181.969 296.578H183.969C183.969 295.868 183.995 295.4 184.036 295.134L182.058 294.835ZM181.969 296.578V310.094H183.969V296.578H181.969ZM190 309.141L190.975 308.919L190.798 308.141H190V309.141ZM190.844 311.312L190.012 311.867L190.844 311.312ZM192.219 312.5L191.799 313.407L191.806 313.411L191.813 313.414L192.219 312.5ZM197.188 311.922L196.492 311.203L196.486 311.209L197.188 311.922ZM193.625 304.031L194.069 303.135L194.069 303.135L193.625 304.031ZM190.734 302.266L190.099 303.038L190.106 303.043L190.734 302.266ZM189.141 300.375L188.249 300.828L188.255 300.838L189.141 300.375ZM189.438 295.125L188.595 294.587L188.593 294.589L189.438 295.125ZM191.844 293.125L191.44 292.21L191.437 292.212L191.844 293.125ZM197.797 292.547L197.686 293.541L197.688 293.541L197.797 292.547ZM200.641 293.109H201.641V292.334L200.889 292.141L200.641 293.109ZM200.641 297.328V298.328H201.641V297.328H200.641ZM199.094 297.328L198.126 297.581L198.322 298.328H199.094V297.328ZM196.906 294.125L196.515 295.045L196.523 295.049L196.531 295.052L196.906 294.125ZM193.172 294.188L192.753 293.28L192.746 293.283L193.172 294.188ZM191.906 295.328L192.754 295.858L192.759 295.85L191.906 295.328ZM191.828 299L190.937 299.454L190.941 299.462L190.945 299.469L191.828 299ZM195.578 301.891L196.025 300.996L196.019 300.993L195.578 301.891ZM198.672 303.75L198.054 304.536L198.059 304.541L198.672 303.75ZM200.391 305.719L199.514 306.2L199.518 306.208L199.522 306.215L200.391 305.719ZM200.5 311.062L201.409 311.479L201.411 311.474L200.5 311.062ZM199.062 312.906L199.675 313.696L199.677 313.695L199.062 312.906ZM196.875 313.938L197.115 314.908L197.123 314.906L196.875 313.938ZM188.438 313.422H187.438V314.196L188.187 314.39L188.438 313.422ZM188.438 309.141V308.141H187.438V309.141H188.438ZM189.025 309.362C189.249 310.347 189.566 311.199 190.012 311.867L191.676 310.758C191.413 310.364 191.168 309.768 190.975 308.919L189.025 309.362ZM190.012 311.867C190.465 312.547 191.064 313.067 191.799 313.407L192.639 311.593C192.249 311.412 191.931 311.141 191.676 310.758L190.012 311.867ZM191.813 313.414C192.546 313.74 193.422 313.875 194.391 313.875V311.875C193.588 311.875 193.016 311.76 192.625 311.586L191.813 313.414ZM194.391 313.875C195.779 313.875 196.999 313.51 197.889 312.635L196.486 311.209C196.085 311.604 195.44 311.875 194.391 311.875V313.875ZM197.883 312.64C198.792 311.76 199.172 310.536 199.172 309.141H197.172C197.172 310.183 196.895 310.813 196.492 311.203L197.883 312.64ZM199.172 309.141C199.172 308.249 199.018 307.426 198.657 306.718L196.875 307.626C197.055 307.98 197.172 308.47 197.172 309.141H199.172ZM198.657 306.718C198.301 306.019 197.744 305.41 197.044 304.877L195.831 306.467C196.36 306.871 196.689 307.262 196.875 307.626L198.657 306.718ZM197.044 304.877C196.353 304.35 195.348 303.77 194.069 303.135L193.181 304.927C194.422 305.543 195.293 306.056 195.831 306.467L197.044 304.877ZM194.069 303.135C192.887 302.549 191.994 301.998 191.363 301.488L190.106 303.043C190.891 303.679 191.925 304.305 193.181 304.927L194.069 303.135ZM191.37 301.494C190.745 300.979 190.308 300.449 190.027 299.912L188.255 300.838C188.682 301.655 189.307 302.386 190.099 303.038L191.37 301.494ZM190.032 299.922C189.764 299.393 189.625 298.81 189.625 298.156H187.625C187.625 299.107 187.83 300.002 188.249 300.828L190.032 299.922ZM189.625 298.156C189.625 297.149 189.857 296.331 190.282 295.661L188.593 294.589C187.935 295.627 187.625 296.83 187.625 298.156H189.625ZM190.28 295.663C190.714 294.983 191.355 294.438 192.251 294.038L191.437 292.212C190.229 292.75 189.265 293.537 188.595 294.587L190.28 295.663ZM192.247 294.04C193.162 293.636 194.235 293.422 195.484 293.422V291.422C194.005 291.422 192.65 291.676 191.44 292.21L192.247 294.04ZM195.484 293.422C196.241 293.422 196.975 293.462 197.686 293.541L197.907 291.553C197.119 291.465 196.311 291.422 195.484 291.422V293.422ZM197.688 293.541C198.383 293.617 199.281 293.793 200.392 294.078L200.889 292.141C199.729 291.843 198.731 291.643 197.906 291.553L197.688 293.541ZM199.641 293.109V297.328H201.641V293.109H199.641ZM200.641 296.328H199.094V298.328H200.641V296.328ZM200.061 297.075C199.805 296.095 199.463 295.253 199.001 294.606L197.374 295.769C197.641 296.143 197.903 296.728 198.126 297.581L200.061 297.075ZM199.001 294.606C198.547 293.971 197.978 293.479 197.281 293.198L196.531 295.052C196.814 295.166 197.099 295.384 197.374 295.769L199.001 294.606ZM197.298 293.205C196.641 292.925 195.858 292.812 195 292.812V294.812C195.704 294.812 196.193 294.908 196.515 295.045L197.298 293.205ZM195 292.812C194.198 292.812 193.443 292.961 192.753 293.28L193.591 295.095C193.985 294.914 194.448 294.812 195 294.812V292.812ZM192.746 293.283C192.035 293.618 191.466 294.132 191.053 294.806L192.759 295.85C192.972 295.503 193.247 295.257 193.598 295.092L192.746 293.283ZM191.058 294.798C190.629 295.484 190.438 296.275 190.438 297.125H192.438C192.438 296.58 192.558 296.172 192.754 295.858L191.058 294.798ZM190.438 297.125C190.438 297.978 190.587 298.768 190.937 299.454L192.719 298.546C192.548 298.211 192.438 297.751 192.438 297.125H190.438ZM190.945 299.469C191.295 300.129 191.816 300.707 192.464 301.211L193.692 299.633C193.216 299.262 192.903 298.891 192.711 298.531L190.945 299.469ZM192.464 301.211C193.106 301.71 194.009 302.235 195.138 302.788L196.019 300.993C194.938 300.463 194.175 300.009 193.692 299.633L192.464 301.211ZM195.131 302.785C196.436 303.437 197.4 304.022 198.054 304.536L199.29 302.964C198.485 302.332 197.387 301.677 196.025 300.996L195.131 302.785ZM198.059 304.541C198.703 305.039 199.181 305.593 199.514 306.2L201.267 305.237C200.788 304.365 200.12 303.607 199.284 302.959L198.059 304.541ZM199.522 306.215C199.839 306.77 200.016 307.447 200.016 308.281H202.016C202.016 307.157 201.775 306.126 201.259 305.223L199.522 306.215ZM200.016 308.281C200.016 309.275 199.859 310.053 199.589 310.651L201.411 311.474C201.829 310.551 202.016 309.475 202.016 308.281H200.016ZM199.591 310.646C199.31 311.259 198.928 311.743 198.448 312.118L199.677 313.695C200.426 313.111 201.003 312.366 201.409 311.479L199.591 310.646ZM198.45 312.116C197.969 312.489 197.369 312.779 196.627 312.969L197.123 314.906C198.09 314.659 198.948 314.261 199.675 313.696L198.45 312.116ZM196.635 312.967C195.881 313.153 195.036 313.25 194.094 313.25V315.25C195.172 315.25 196.181 315.139 197.115 314.908L196.635 312.967ZM194.094 313.25C192.566 313.25 190.768 312.991 188.688 312.454L188.187 314.39C190.378 314.956 192.35 315.25 194.094 315.25V313.25ZM189.438 313.422V309.141H187.438V313.422H189.438ZM188.438 310.141H190V308.141H188.438V310.141ZM214.719 314H213.719V315H214.719V314ZM214.719 313.234L214.523 312.254L213.719 312.415V313.234H214.719ZM215.875 312.891L215.442 311.989L215.435 311.993L215.428 311.996L215.875 312.891ZM216.453 312.375L217.321 312.871L217.326 312.863L217.331 312.854L216.453 312.375ZM216.516 310.328L215.535 310.524L215.536 310.529L216.516 310.328ZM216.156 308.938L215.195 309.213L215.197 309.222L215.2 309.23L216.156 308.938ZM215.578 306.922L216.539 306.646L216.332 305.922H215.578V306.922ZM208.297 306.922V305.922H207.585L207.352 306.594L208.297 306.922ZM207.766 308.453L208.709 308.785L208.71 308.781L207.766 308.453ZM207.234 310.203L206.256 309.997L207.234 310.203ZM207.578 312.656L206.896 313.387L206.902 313.393L206.908 313.398L207.578 312.656ZM209.047 313.234H210.047V312.367L209.188 312.244L209.047 313.234ZM209.047 314V315H210.047V314H209.047ZM202.375 314H201.375V315H202.375V314ZM202.375 313.234L202.216 312.247L201.375 312.382V313.234H202.375ZM203.891 312.219L203.091 311.619L203.084 311.628L203.891 312.219ZM205.156 309.719L204.22 309.366L204.22 309.368L205.156 309.719ZM211.672 292.422V291.422H210.98L210.736 292.069L211.672 292.422ZM214.141 292.422L215.097 292.13L214.881 291.422H214.141V292.422ZM219.453 309.844L218.497 310.135L218.497 310.138L219.453 309.844ZM220.109 311.703L219.194 312.105L219.198 312.114L219.202 312.124L220.109 311.703ZM221.922 313.234H222.922V312.449L222.159 312.263L221.922 313.234ZM221.922 314V315H222.922V314H221.922ZM208.719 305.562L207.776 305.229L207.305 306.562H208.719V305.562ZM215.25 305.562V306.562H216.587L216.209 305.28L215.25 305.562ZM212.281 295.484L213.24 295.202L212.368 292.239L211.338 295.151L212.281 295.484ZM215.719 314V313.234H213.719V314H215.719ZM214.915 314.215C215.46 314.106 215.95 313.971 216.322 313.785L215.428 311.996C215.3 312.06 215.02 312.154 214.523 312.254L214.915 314.215ZM216.308 313.792C216.723 313.593 217.081 313.291 217.321 312.871L215.585 311.879C215.575 311.897 215.547 311.939 215.442 311.989L216.308 313.792ZM217.331 312.854C217.564 312.428 217.641 311.943 217.641 311.469H215.641C215.641 311.745 215.593 311.864 215.575 311.896L217.331 312.854ZM217.641 311.469C217.641 311.037 217.59 310.589 217.495 310.127L215.536 310.529C215.608 310.88 215.641 311.192 215.641 311.469H217.641ZM217.496 310.132C217.405 309.676 217.276 309.179 217.112 308.645L215.2 309.23C215.349 309.716 215.46 310.147 215.535 310.524L217.496 310.132ZM217.117 308.662L216.539 306.646L214.617 307.198L215.195 309.213L217.117 308.662ZM215.578 305.922H208.297V307.922H215.578V305.922ZM207.352 306.594L206.821 308.125L208.71 308.781L209.242 307.25L207.352 306.594ZM206.822 308.122C206.548 308.901 206.353 309.535 206.256 309.997L208.213 310.409C208.282 310.08 208.441 309.547 208.709 308.785L206.822 308.122ZM206.256 309.997C206.162 310.445 206.109 310.874 206.109 311.281H208.109C208.109 311.042 208.14 310.753 208.213 310.409L206.256 309.997ZM206.109 311.281C206.109 312.054 206.302 312.833 206.896 313.387L208.26 311.925C208.229 311.896 208.109 311.758 208.109 311.281H206.109ZM206.908 313.398C207.437 313.876 208.148 314.116 208.905 314.224L209.188 312.244C208.633 312.165 208.365 312.019 208.248 311.914L206.908 313.398ZM208.047 313.234V314H210.047V313.234H208.047ZM209.047 313H202.375V315H209.047V313ZM203.375 314V313.234H201.375V314H203.375ZM202.534 314.222C203.433 314.077 204.152 313.555 204.697 312.809L203.084 311.628C202.775 312.049 202.484 312.204 202.216 312.247L202.534 314.222ZM204.691 312.819C205.208 312.128 205.67 311.197 206.093 310.07L204.22 309.368C203.83 310.408 203.448 311.143 203.091 311.619L204.691 312.819ZM206.092 310.071L212.608 292.774L210.736 292.069L204.22 309.366L206.092 310.071ZM211.672 293.422H214.141V291.422H211.672V293.422ZM213.184 292.714L218.497 310.135L220.41 309.552L215.097 292.13L213.184 292.714ZM218.497 310.138C218.751 310.962 218.983 311.625 219.194 312.105L221.025 311.301C220.861 310.927 220.655 310.35 220.409 309.55L218.497 310.138ZM219.202 312.124C219.441 312.64 219.75 313.098 220.15 313.452L221.475 311.954C221.334 311.829 221.173 311.621 221.017 311.283L219.202 312.124ZM220.15 313.452C220.576 313.829 221.109 314.065 221.684 314.206L222.159 312.263C221.798 312.175 221.591 312.056 221.475 311.954L220.15 313.452ZM220.922 313.234V314H222.922V313.234H220.922ZM221.922 313H214.719V315H221.922V313ZM208.719 306.562H215.25V304.562H208.719V306.562ZM216.209 305.28L213.24 295.202L211.322 295.767L214.291 305.845L216.209 305.28ZM211.338 295.151L207.776 305.229L209.662 305.896L213.224 295.818L211.338 295.151Z" fill="#352940" fill-opacity="0.5" mask="url(#path-4-inside-2_42_25)"/>
</svg>
