<svg width="50" height="50" viewBox="0 0 50 50" fill="none" xmlns="http://www.w3.org/2000/svg">
<rect opacity="0.5" width="50" height="50" fill="#343434"/>
<path d="M45.6667 20.5V35.0833C45.6667 36.7409 45.0082 38.3306 43.8361 39.5028C42.664 40.6749 41.0743 41.3333 39.4167 41.3333H10.25C8.5924 41.3333 7.00269 40.6749 5.83058 39.5028C4.65848 38.3306 4 36.7409 4 35.0833V20.5H45.6667ZM37.3333 28.8333H31.0833C30.5308 28.8333 30.0009 29.0528 29.6102 29.4435C29.2195 29.8342 29 30.3641 29 30.9167C29 31.4692 29.2195 31.9991 29.6102 32.3898C30.0009 32.7805 30.5308 33 31.0833 33H37.3333C37.8859 33 38.4158 32.7805 38.8065 32.3898C39.1972 31.9991 39.4167 31.4692 39.4167 30.9167C39.4167 30.3641 39.1972 29.8342 38.8065 29.4435C38.4158 29.0528 37.8859 28.8333 37.3333 28.8333ZM39.4167 8C41.0743 8 42.664 8.65848 43.8361 9.83058C45.0082 11.0027 45.6667 12.5924 45.6667 14.25V16.3333H4V14.25C4 12.5924 4.65848 11.0027 5.83058 9.83058C7.00269 8.65848 8.5924 8 10.25 8H39.4167Z" fill="#03A86C"/>
</svg>
